G04 #@! TF.GenerationSoftware,KiCad,Pcbnew,5.0.0-fee4fd1~66~ubuntu18.04.1*
G04 #@! TF.CreationDate,2018-08-17T17:18:45-07:00*
G04 #@! TF.ProjectId,RPi FS HAT,525069204653204841542E6B69636164,2*
G04 #@! TF.SameCoordinates,Original*
G04 #@! TF.FileFunction,Legend,Top*
G04 #@! TF.FilePolarity,Positive*
%FSLAX46Y46*%
G04 Gerber Fmt 4.6, Leading zero omitted, Abs format (unit mm)*
G04 Created by KiCad (PCBNEW 5.0.0-fee4fd1~66~ubuntu18.04.1) date Fri Aug 17 17:18:45 2018*
%MOMM*%
%LPD*%
G01*
G04 APERTURE LIST*
%ADD10C,0.200000*%
%ADD11C,0.250000*%
%ADD12C,0.120000*%
%ADD13C,0.203200*%
%ADD14C,0.150000*%
G04 APERTURE END LIST*
D10*
X157378476Y-126727000D02*
X157302285Y-126688904D01*
X157188000Y-126688904D01*
X157073714Y-126727000D01*
X156997523Y-126803190D01*
X156959428Y-126879380D01*
X156921333Y-127031761D01*
X156921333Y-127146047D01*
X156959428Y-127298428D01*
X156997523Y-127374619D01*
X157073714Y-127450809D01*
X157188000Y-127488904D01*
X157264190Y-127488904D01*
X157378476Y-127450809D01*
X157416571Y-127412714D01*
X157416571Y-127146047D01*
X157264190Y-127146047D01*
X157759428Y-127488904D02*
X157759428Y-126688904D01*
X158216571Y-127488904D01*
X158216571Y-126688904D01*
X158597523Y-127488904D02*
X158597523Y-126688904D01*
X158788000Y-126688904D01*
X158902285Y-126727000D01*
X158978476Y-126803190D01*
X159016571Y-126879380D01*
X159054666Y-127031761D01*
X159054666Y-127146047D01*
X159016571Y-127298428D01*
X158978476Y-127374619D01*
X158902285Y-127450809D01*
X158788000Y-127488904D01*
X158597523Y-127488904D01*
X161868000Y-127488904D02*
X161868000Y-126688904D01*
X162058476Y-126688904D01*
X162172761Y-126727000D01*
X162248952Y-126803190D01*
X162287047Y-126879380D01*
X162325142Y-127031761D01*
X162325142Y-127146047D01*
X162287047Y-127298428D01*
X162248952Y-127374619D01*
X162172761Y-127450809D01*
X162058476Y-127488904D01*
X161868000Y-127488904D01*
X162629904Y-127260333D02*
X163010857Y-127260333D01*
X162553714Y-127488904D02*
X162820380Y-126688904D01*
X163087047Y-127488904D01*
X163239428Y-126688904D02*
X163696571Y-126688904D01*
X163468000Y-127488904D02*
X163468000Y-126688904D01*
X163925142Y-127260333D02*
X164306095Y-127260333D01*
X163848952Y-127488904D02*
X164115619Y-126688904D01*
X164382285Y-127488904D01*
X164617523Y-126688904D02*
X165112761Y-126688904D01*
X164846095Y-126993666D01*
X164960380Y-126993666D01*
X165036571Y-127031761D01*
X165074666Y-127069857D01*
X165112761Y-127146047D01*
X165112761Y-127336523D01*
X165074666Y-127412714D01*
X165036571Y-127450809D01*
X164960380Y-127488904D01*
X164731809Y-127488904D01*
X164655619Y-127450809D01*
X164617523Y-127412714D01*
X165341333Y-126688904D02*
X165608000Y-127488904D01*
X165874666Y-126688904D01*
X166065142Y-126688904D02*
X166560380Y-126688904D01*
X166293714Y-126993666D01*
X166408000Y-126993666D01*
X166484190Y-127031761D01*
X166522285Y-127069857D01*
X166560380Y-127146047D01*
X166560380Y-127336523D01*
X166522285Y-127412714D01*
X166484190Y-127450809D01*
X166408000Y-127488904D01*
X166179428Y-127488904D01*
X166103238Y-127450809D01*
X166065142Y-127412714D01*
D11*
X163631523Y-122912142D02*
X163583904Y-122959761D01*
X163441047Y-123007380D01*
X163345809Y-123007380D01*
X163202952Y-122959761D01*
X163107714Y-122864523D01*
X163060095Y-122769285D01*
X163012476Y-122578809D01*
X163012476Y-122435952D01*
X163060095Y-122245476D01*
X163107714Y-122150238D01*
X163202952Y-122055000D01*
X163345809Y-122007380D01*
X163441047Y-122007380D01*
X163583904Y-122055000D01*
X163631523Y-122102619D01*
D12*
G04 #@! TO.C,D1*
X166608000Y-121468000D02*
X163923000Y-121468000D01*
X163923000Y-121468000D02*
X163923000Y-123388000D01*
X163923000Y-123388000D02*
X166608000Y-123388000D01*
G04 #@! TO.C,J1*
X167065000Y-119440000D02*
X167065000Y-114240000D01*
X149225000Y-119440000D02*
X167065000Y-119440000D01*
X146625000Y-114240000D02*
X167065000Y-114240000D01*
X149225000Y-119440000D02*
X149225000Y-116840000D01*
X149225000Y-116840000D02*
X146625000Y-116840000D01*
X146625000Y-116840000D02*
X146625000Y-114240000D01*
X147955000Y-119440000D02*
X146625000Y-119440000D01*
X146625000Y-119440000D02*
X146625000Y-118110000D01*
G04 #@! TO.C,R1*
X148585422Y-121718000D02*
X149102578Y-121718000D01*
X148585422Y-123138000D02*
X149102578Y-123138000D01*
G04 #@! TO.C,R2*
X154160088Y-121718000D02*
X154677244Y-121718000D01*
X154160088Y-123138000D02*
X154677244Y-123138000D01*
G04 #@! TO.C,R3*
X159734754Y-123138000D02*
X160251910Y-123138000D01*
X159734754Y-121718000D02*
X160251910Y-121718000D01*
D13*
G04 #@! TO.C,SW1*
X153035000Y-124460000D02*
X148717000Y-124460000D01*
X148717000Y-130556000D02*
X153035000Y-130556000D01*
X153924000Y-126512320D02*
X153924000Y-128524000D01*
X147828000Y-126481840D02*
X147828000Y-128524000D01*
X152654000Y-127508000D02*
G75*
G03X152654000Y-127508000I-1778000J0D01*
G01*
D12*
G04 #@! TO.C,U1*
X156658000Y-127702000D02*
X156658000Y-130362000D01*
X164338000Y-127702000D02*
X156658000Y-127702000D01*
X164338000Y-130362000D02*
X156658000Y-130362000D01*
X164338000Y-127702000D02*
X164338000Y-130362000D01*
X165608000Y-127702000D02*
X166938000Y-127702000D01*
X166938000Y-127702000D02*
X166938000Y-129032000D01*
G04 #@! TO.C,D1*
D14*
X164869904Y-121230380D02*
X164869904Y-120230380D01*
X165108000Y-120230380D01*
X165250857Y-120278000D01*
X165346095Y-120373238D01*
X165393714Y-120468476D01*
X165441333Y-120658952D01*
X165441333Y-120801809D01*
X165393714Y-120992285D01*
X165346095Y-121087523D01*
X165250857Y-121182761D01*
X165108000Y-121230380D01*
X164869904Y-121230380D01*
X166393714Y-121230380D02*
X165822285Y-121230380D01*
X166108000Y-121230380D02*
X166108000Y-120230380D01*
X166012761Y-120373238D01*
X165917523Y-120468476D01*
X165822285Y-120516095D01*
X164965142Y-124530380D02*
X164488952Y-124530380D01*
X164488952Y-123530380D01*
X165298476Y-124006571D02*
X165631809Y-124006571D01*
X165774666Y-124530380D02*
X165298476Y-124530380D01*
X165298476Y-123530380D01*
X165774666Y-123530380D01*
X166203238Y-124530380D02*
X166203238Y-123530380D01*
X166441333Y-123530380D01*
X166584190Y-123578000D01*
X166679428Y-123673238D01*
X166727047Y-123768476D01*
X166774666Y-123958952D01*
X166774666Y-124101809D01*
X166727047Y-124292285D01*
X166679428Y-124387523D01*
X166584190Y-124482761D01*
X166441333Y-124530380D01*
X166203238Y-124530380D01*
G04 #@! TO.C,J1*
X145077380Y-117173333D02*
X145791666Y-117173333D01*
X145934523Y-117220952D01*
X146029761Y-117316190D01*
X146077380Y-117459047D01*
X146077380Y-117554285D01*
X146077380Y-116173333D02*
X146077380Y-116744761D01*
X146077380Y-116459047D02*
X145077380Y-116459047D01*
X145220238Y-116554285D01*
X145315476Y-116649523D01*
X145363095Y-116744761D01*
G04 #@! TO.C,R1*
X148677333Y-121230380D02*
X148344000Y-120754190D01*
X148105904Y-121230380D02*
X148105904Y-120230380D01*
X148486857Y-120230380D01*
X148582095Y-120278000D01*
X148629714Y-120325619D01*
X148677333Y-120420857D01*
X148677333Y-120563714D01*
X148629714Y-120658952D01*
X148582095Y-120706571D01*
X148486857Y-120754190D01*
X148105904Y-120754190D01*
X149629714Y-121230380D02*
X149058285Y-121230380D01*
X149344000Y-121230380D02*
X149344000Y-120230380D01*
X149248761Y-120373238D01*
X149153523Y-120468476D01*
X149058285Y-120516095D01*
X147582095Y-124530380D02*
X147010666Y-124530380D01*
X147296380Y-124530380D02*
X147296380Y-123530380D01*
X147201142Y-123673238D01*
X147105904Y-123768476D01*
X147010666Y-123816095D01*
X148201142Y-123530380D02*
X148296380Y-123530380D01*
X148391619Y-123578000D01*
X148439238Y-123625619D01*
X148486857Y-123720857D01*
X148534476Y-123911333D01*
X148534476Y-124149428D01*
X148486857Y-124339904D01*
X148439238Y-124435142D01*
X148391619Y-124482761D01*
X148296380Y-124530380D01*
X148201142Y-124530380D01*
X148105904Y-124482761D01*
X148058285Y-124435142D01*
X148010666Y-124339904D01*
X147963047Y-124149428D01*
X147963047Y-123911333D01*
X148010666Y-123720857D01*
X148058285Y-123625619D01*
X148105904Y-123578000D01*
X148201142Y-123530380D01*
X148963047Y-124530380D02*
X148963047Y-123530380D01*
X149534476Y-124530380D02*
X149105904Y-123958952D01*
X149534476Y-123530380D02*
X148963047Y-124101809D01*
X149915428Y-124530380D02*
X150153523Y-124530380D01*
X150153523Y-124339904D01*
X150058285Y-124292285D01*
X149963047Y-124197047D01*
X149915428Y-124054190D01*
X149915428Y-123816095D01*
X149963047Y-123673238D01*
X150058285Y-123578000D01*
X150201142Y-123530380D01*
X150391619Y-123530380D01*
X150534476Y-123578000D01*
X150629714Y-123673238D01*
X150677333Y-123816095D01*
X150677333Y-124054190D01*
X150629714Y-124197047D01*
X150534476Y-124292285D01*
X150439238Y-124339904D01*
X150439238Y-124530380D01*
X150677333Y-124530380D01*
G04 #@! TO.C,R2*
X154251999Y-121230380D02*
X153918666Y-120754190D01*
X153680570Y-121230380D02*
X153680570Y-120230380D01*
X154061523Y-120230380D01*
X154156761Y-120278000D01*
X154204380Y-120325619D01*
X154251999Y-120420857D01*
X154251999Y-120563714D01*
X154204380Y-120658952D01*
X154156761Y-120706571D01*
X154061523Y-120754190D01*
X153680570Y-120754190D01*
X154632951Y-120325619D02*
X154680570Y-120278000D01*
X154775808Y-120230380D01*
X155013904Y-120230380D01*
X155109142Y-120278000D01*
X155156761Y-120325619D01*
X155204380Y-120420857D01*
X155204380Y-120516095D01*
X155156761Y-120658952D01*
X154585332Y-121230380D01*
X155204380Y-121230380D01*
X153156761Y-124530380D02*
X152585332Y-124530380D01*
X152871046Y-124530380D02*
X152871046Y-123530380D01*
X152775808Y-123673238D01*
X152680570Y-123768476D01*
X152585332Y-123816095D01*
X153775808Y-123530380D02*
X153871046Y-123530380D01*
X153966285Y-123578000D01*
X154013904Y-123625619D01*
X154061523Y-123720857D01*
X154109142Y-123911333D01*
X154109142Y-124149428D01*
X154061523Y-124339904D01*
X154013904Y-124435142D01*
X153966285Y-124482761D01*
X153871046Y-124530380D01*
X153775808Y-124530380D01*
X153680570Y-124482761D01*
X153632951Y-124435142D01*
X153585332Y-124339904D01*
X153537713Y-124149428D01*
X153537713Y-123911333D01*
X153585332Y-123720857D01*
X153632951Y-123625619D01*
X153680570Y-123578000D01*
X153775808Y-123530380D01*
X154537713Y-124530380D02*
X154537713Y-123530380D01*
X155109142Y-124530380D02*
X154680570Y-123958952D01*
X155109142Y-123530380D02*
X154537713Y-124101809D01*
X155490094Y-124530380D02*
X155728189Y-124530380D01*
X155728189Y-124339904D01*
X155632951Y-124292285D01*
X155537713Y-124197047D01*
X155490094Y-124054190D01*
X155490094Y-123816095D01*
X155537713Y-123673238D01*
X155632951Y-123578000D01*
X155775808Y-123530380D01*
X155966285Y-123530380D01*
X156109142Y-123578000D01*
X156204380Y-123673238D01*
X156251999Y-123816095D01*
X156251999Y-124054190D01*
X156204380Y-124197047D01*
X156109142Y-124292285D01*
X156013904Y-124339904D01*
X156013904Y-124530380D01*
X156251999Y-124530380D01*
G04 #@! TO.C,R3*
X159826665Y-121230380D02*
X159493332Y-120754190D01*
X159255236Y-121230380D02*
X159255236Y-120230380D01*
X159636189Y-120230380D01*
X159731427Y-120278000D01*
X159779046Y-120325619D01*
X159826665Y-120420857D01*
X159826665Y-120563714D01*
X159779046Y-120658952D01*
X159731427Y-120706571D01*
X159636189Y-120754190D01*
X159255236Y-120754190D01*
X160159998Y-120230380D02*
X160779046Y-120230380D01*
X160445712Y-120611333D01*
X160588570Y-120611333D01*
X160683808Y-120658952D01*
X160731427Y-120706571D01*
X160779046Y-120801809D01*
X160779046Y-121039904D01*
X160731427Y-121135142D01*
X160683808Y-121182761D01*
X160588570Y-121230380D01*
X160302855Y-121230380D01*
X160207617Y-121182761D01*
X160159998Y-121135142D01*
X158136189Y-123530380D02*
X158755236Y-123530380D01*
X158421903Y-123911333D01*
X158564760Y-123911333D01*
X158659998Y-123958952D01*
X158707617Y-124006571D01*
X158755236Y-124101809D01*
X158755236Y-124339904D01*
X158707617Y-124435142D01*
X158659998Y-124482761D01*
X158564760Y-124530380D01*
X158279046Y-124530380D01*
X158183808Y-124482761D01*
X158136189Y-124435142D01*
X159088570Y-123530380D02*
X159707617Y-123530380D01*
X159374284Y-123911333D01*
X159517141Y-123911333D01*
X159612379Y-123958952D01*
X159659998Y-124006571D01*
X159707617Y-124101809D01*
X159707617Y-124339904D01*
X159659998Y-124435142D01*
X159612379Y-124482761D01*
X159517141Y-124530380D01*
X159231427Y-124530380D01*
X159136189Y-124482761D01*
X159088570Y-124435142D01*
X160326665Y-123530380D02*
X160421903Y-123530380D01*
X160517141Y-123578000D01*
X160564760Y-123625619D01*
X160612379Y-123720857D01*
X160659998Y-123911333D01*
X160659998Y-124149428D01*
X160612379Y-124339904D01*
X160564760Y-124435142D01*
X160517141Y-124482761D01*
X160421903Y-124530380D01*
X160326665Y-124530380D01*
X160231427Y-124482761D01*
X160183808Y-124435142D01*
X160136189Y-124339904D01*
X160088570Y-124149428D01*
X160088570Y-123911333D01*
X160136189Y-123720857D01*
X160183808Y-123625619D01*
X160231427Y-123578000D01*
X160326665Y-123530380D01*
X161040951Y-124530380D02*
X161279046Y-124530380D01*
X161279046Y-124339904D01*
X161183808Y-124292285D01*
X161088570Y-124197047D01*
X161040951Y-124054190D01*
X161040951Y-123816095D01*
X161088570Y-123673238D01*
X161183808Y-123578000D01*
X161326665Y-123530380D01*
X161517141Y-123530380D01*
X161659998Y-123578000D01*
X161755236Y-123673238D01*
X161802855Y-123816095D01*
X161802855Y-124054190D01*
X161755236Y-124197047D01*
X161659998Y-124292285D01*
X161564760Y-124339904D01*
X161564760Y-124530380D01*
X161802855Y-124530380D01*
G04 #@! TO.C,U1*
X166965380Y-129666904D02*
X167774904Y-129666904D01*
X167870142Y-129619285D01*
X167917761Y-129571666D01*
X167965380Y-129476428D01*
X167965380Y-129285952D01*
X167917761Y-129190714D01*
X167870142Y-129143095D01*
X167774904Y-129095476D01*
X166965380Y-129095476D01*
X167965380Y-128095476D02*
X167965380Y-128666904D01*
X167965380Y-128381190D02*
X166965380Y-128381190D01*
X167108238Y-128476428D01*
X167203476Y-128571666D01*
X167251095Y-128666904D01*
X156535380Y-130516047D02*
X155535380Y-130516047D01*
X155535380Y-130277952D01*
X155583000Y-130135095D01*
X155678238Y-130039857D01*
X155773476Y-129992238D01*
X155963952Y-129944619D01*
X156106809Y-129944619D01*
X156297285Y-129992238D01*
X156392523Y-130039857D01*
X156487761Y-130135095D01*
X156535380Y-130277952D01*
X156535380Y-130516047D01*
X156535380Y-129516047D02*
X155535380Y-129516047D01*
X156011571Y-129516047D02*
X156011571Y-128944619D01*
X156535380Y-128944619D02*
X155535380Y-128944619D01*
X155535380Y-128611285D02*
X155535380Y-128039857D01*
X156535380Y-128325571D02*
X155535380Y-128325571D01*
X155630619Y-127754142D02*
X155583000Y-127706523D01*
X155535380Y-127611285D01*
X155535380Y-127373190D01*
X155583000Y-127277952D01*
X155630619Y-127230333D01*
X155725857Y-127182714D01*
X155821095Y-127182714D01*
X155963952Y-127230333D01*
X156535380Y-127801761D01*
X156535380Y-127182714D01*
X155630619Y-126801761D02*
X155583000Y-126754142D01*
X155535380Y-126658904D01*
X155535380Y-126420809D01*
X155583000Y-126325571D01*
X155630619Y-126277952D01*
X155725857Y-126230333D01*
X155821095Y-126230333D01*
X155963952Y-126277952D01*
X156535380Y-126849380D01*
X156535380Y-126230333D01*
G04 #@! TD*
M02*
