G04 #@! TF.GenerationSoftware,KiCad,Pcbnew,5.0.0-fee4fd1~66~ubuntu18.04.1*
G04 #@! TF.CreationDate,2018-08-17T17:18:45-07:00*
G04 #@! TF.ProjectId,RPi FS HAT,525069204653204841542E6B69636164,2*
G04 #@! TF.SameCoordinates,Original*
G04 #@! TF.FileFunction,Legend,Bot*
G04 #@! TF.FilePolarity,Positive*
%FSLAX46Y46*%
G04 Gerber Fmt 4.6, Leading zero omitted, Abs format (unit mm)*
G04 Created by KiCad (PCBNEW 5.0.0-fee4fd1~66~ubuntu18.04.1) date Fri Aug 17 17:18:45 2018*
%MOMM*%
%LPD*%
G01*
G04 APERTURE LIST*
%ADD10C,0.200000*%
%ADD11C,0.010000*%
G04 APERTURE END LIST*
D10*
X167116380Y-120500904D02*
X167383047Y-120119952D01*
X167573523Y-120500904D02*
X167573523Y-119700904D01*
X167268761Y-119700904D01*
X167192571Y-119739000D01*
X167154476Y-119777095D01*
X167116380Y-119853285D01*
X167116380Y-119967571D01*
X167154476Y-120043761D01*
X167192571Y-120081857D01*
X167268761Y-120119952D01*
X167573523Y-120119952D01*
X166430666Y-120500904D02*
X166430666Y-120081857D01*
X166468761Y-120005666D01*
X166544952Y-119967571D01*
X166697333Y-119967571D01*
X166773523Y-120005666D01*
X166430666Y-120462809D02*
X166506857Y-120500904D01*
X166697333Y-120500904D01*
X166773523Y-120462809D01*
X166811619Y-120386619D01*
X166811619Y-120310428D01*
X166773523Y-120234238D01*
X166697333Y-120196142D01*
X166506857Y-120196142D01*
X166430666Y-120158047D01*
X166087809Y-120462809D02*
X166011619Y-120500904D01*
X165859238Y-120500904D01*
X165783047Y-120462809D01*
X165744952Y-120386619D01*
X165744952Y-120348523D01*
X165783047Y-120272333D01*
X165859238Y-120234238D01*
X165973523Y-120234238D01*
X166049714Y-120196142D01*
X166087809Y-120119952D01*
X166087809Y-120081857D01*
X166049714Y-120005666D01*
X165973523Y-119967571D01*
X165859238Y-119967571D01*
X165783047Y-120005666D01*
X165402095Y-119967571D02*
X165402095Y-120767571D01*
X165402095Y-120005666D02*
X165325904Y-119967571D01*
X165173523Y-119967571D01*
X165097333Y-120005666D01*
X165059238Y-120043761D01*
X165021142Y-120119952D01*
X165021142Y-120348523D01*
X165059238Y-120424714D01*
X165097333Y-120462809D01*
X165173523Y-120500904D01*
X165325904Y-120500904D01*
X165402095Y-120462809D01*
X164678285Y-120500904D02*
X164678285Y-119700904D01*
X164678285Y-120005666D02*
X164602095Y-119967571D01*
X164449714Y-119967571D01*
X164373523Y-120005666D01*
X164335428Y-120043761D01*
X164297333Y-120119952D01*
X164297333Y-120348523D01*
X164335428Y-120424714D01*
X164373523Y-120462809D01*
X164449714Y-120500904D01*
X164602095Y-120500904D01*
X164678285Y-120462809D01*
X163649714Y-120462809D02*
X163725904Y-120500904D01*
X163878285Y-120500904D01*
X163954476Y-120462809D01*
X163992571Y-120386619D01*
X163992571Y-120081857D01*
X163954476Y-120005666D01*
X163878285Y-119967571D01*
X163725904Y-119967571D01*
X163649714Y-120005666D01*
X163611619Y-120081857D01*
X163611619Y-120158047D01*
X163992571Y-120234238D01*
X163268761Y-120500904D02*
X163268761Y-119967571D01*
X163268761Y-120119952D02*
X163230666Y-120043761D01*
X163192571Y-120005666D01*
X163116380Y-119967571D01*
X163040190Y-119967571D01*
X162773523Y-120500904D02*
X162773523Y-119967571D01*
X162773523Y-120119952D02*
X162735428Y-120043761D01*
X162697333Y-120005666D01*
X162621142Y-119967571D01*
X162544952Y-119967571D01*
X162354476Y-119967571D02*
X162164000Y-120500904D01*
X161973523Y-119967571D02*
X162164000Y-120500904D01*
X162240190Y-120691380D01*
X162278285Y-120729476D01*
X162354476Y-120767571D01*
X161059238Y-120500904D02*
X161059238Y-119700904D01*
X160754476Y-119700904D01*
X160678285Y-119739000D01*
X160640190Y-119777095D01*
X160602095Y-119853285D01*
X160602095Y-119967571D01*
X160640190Y-120043761D01*
X160678285Y-120081857D01*
X160754476Y-120119952D01*
X161059238Y-120119952D01*
X160259238Y-120500904D02*
X160259238Y-119967571D01*
X160259238Y-119700904D02*
X160297333Y-119739000D01*
X160259238Y-119777095D01*
X160221142Y-119739000D01*
X160259238Y-119700904D01*
X160259238Y-119777095D01*
X167306857Y-121481857D02*
X167573523Y-121481857D01*
X167573523Y-121900904D02*
X167573523Y-121100904D01*
X167192571Y-121100904D01*
X166544952Y-121367571D02*
X166544952Y-121900904D01*
X166887809Y-121367571D02*
X166887809Y-121786619D01*
X166849714Y-121862809D01*
X166773523Y-121900904D01*
X166659238Y-121900904D01*
X166583047Y-121862809D01*
X166544952Y-121824714D01*
X166049714Y-121900904D02*
X166125904Y-121862809D01*
X166164000Y-121786619D01*
X166164000Y-121100904D01*
X165630666Y-121900904D02*
X165706857Y-121862809D01*
X165744952Y-121786619D01*
X165744952Y-121100904D01*
X164754476Y-121862809D02*
X164640190Y-121900904D01*
X164449714Y-121900904D01*
X164373523Y-121862809D01*
X164335428Y-121824714D01*
X164297333Y-121748523D01*
X164297333Y-121672333D01*
X164335428Y-121596142D01*
X164373523Y-121558047D01*
X164449714Y-121519952D01*
X164602095Y-121481857D01*
X164678285Y-121443761D01*
X164716380Y-121405666D01*
X164754476Y-121329476D01*
X164754476Y-121253285D01*
X164716380Y-121177095D01*
X164678285Y-121139000D01*
X164602095Y-121100904D01*
X164411619Y-121100904D01*
X164297333Y-121139000D01*
X164068761Y-121367571D02*
X163764000Y-121367571D01*
X163954476Y-121100904D02*
X163954476Y-121786619D01*
X163916380Y-121862809D01*
X163840190Y-121900904D01*
X163764000Y-121900904D01*
X163154476Y-121900904D02*
X163154476Y-121481857D01*
X163192571Y-121405666D01*
X163268761Y-121367571D01*
X163421142Y-121367571D01*
X163497333Y-121405666D01*
X163154476Y-121862809D02*
X163230666Y-121900904D01*
X163421142Y-121900904D01*
X163497333Y-121862809D01*
X163535428Y-121786619D01*
X163535428Y-121710428D01*
X163497333Y-121634238D01*
X163421142Y-121596142D01*
X163230666Y-121596142D01*
X163154476Y-121558047D01*
X162430666Y-121862809D02*
X162506857Y-121900904D01*
X162659238Y-121900904D01*
X162735428Y-121862809D01*
X162773523Y-121824714D01*
X162811619Y-121748523D01*
X162811619Y-121519952D01*
X162773523Y-121443761D01*
X162735428Y-121405666D01*
X162659238Y-121367571D01*
X162506857Y-121367571D01*
X162430666Y-121405666D01*
X162087809Y-121900904D02*
X162087809Y-121100904D01*
X162011619Y-121596142D02*
X161783047Y-121900904D01*
X161783047Y-121367571D02*
X162087809Y-121672333D01*
X167687809Y-122500904D02*
X167421142Y-123300904D01*
X167154476Y-122500904D01*
X166583047Y-123262809D02*
X166659238Y-123300904D01*
X166811619Y-123300904D01*
X166887809Y-123262809D01*
X166925904Y-123186619D01*
X166925904Y-122881857D01*
X166887809Y-122805666D01*
X166811619Y-122767571D01*
X166659238Y-122767571D01*
X166583047Y-122805666D01*
X166544952Y-122881857D01*
X166544952Y-122958047D01*
X166925904Y-123034238D01*
X166202095Y-123300904D02*
X166202095Y-122767571D01*
X166202095Y-122919952D02*
X166164000Y-122843761D01*
X166125904Y-122805666D01*
X166049714Y-122767571D01*
X165973523Y-122767571D01*
X165744952Y-123262809D02*
X165668761Y-123300904D01*
X165516380Y-123300904D01*
X165440190Y-123262809D01*
X165402095Y-123186619D01*
X165402095Y-123148523D01*
X165440190Y-123072333D01*
X165516380Y-123034238D01*
X165630666Y-123034238D01*
X165706857Y-122996142D01*
X165744952Y-122919952D01*
X165744952Y-122881857D01*
X165706857Y-122805666D01*
X165630666Y-122767571D01*
X165516380Y-122767571D01*
X165440190Y-122805666D01*
X165059238Y-123300904D02*
X165059238Y-122767571D01*
X165059238Y-122500904D02*
X165097333Y-122539000D01*
X165059238Y-122577095D01*
X165021142Y-122539000D01*
X165059238Y-122500904D01*
X165059238Y-122577095D01*
X164564000Y-123300904D02*
X164640190Y-123262809D01*
X164678285Y-123224714D01*
X164716380Y-123148523D01*
X164716380Y-122919952D01*
X164678285Y-122843761D01*
X164640190Y-122805666D01*
X164564000Y-122767571D01*
X164449714Y-122767571D01*
X164373523Y-122805666D01*
X164335428Y-122843761D01*
X164297333Y-122919952D01*
X164297333Y-123148523D01*
X164335428Y-123224714D01*
X164373523Y-123262809D01*
X164449714Y-123300904D01*
X164564000Y-123300904D01*
X163954476Y-122767571D02*
X163954476Y-123300904D01*
X163954476Y-122843761D02*
X163916380Y-122805666D01*
X163840190Y-122767571D01*
X163725904Y-122767571D01*
X163649714Y-122805666D01*
X163611619Y-122881857D01*
X163611619Y-123300904D01*
X162659238Y-122577095D02*
X162621142Y-122539000D01*
X162544952Y-122500904D01*
X162354476Y-122500904D01*
X162278285Y-122539000D01*
X162240190Y-122577095D01*
X162202095Y-122653285D01*
X162202095Y-122729476D01*
X162240190Y-122843761D01*
X162697333Y-123300904D01*
X162202095Y-123300904D01*
X156778523Y-126828571D02*
X156778523Y-127628571D01*
X156778523Y-126866666D02*
X156702333Y-126828571D01*
X156549952Y-126828571D01*
X156473761Y-126866666D01*
X156435666Y-126904761D01*
X156397571Y-126980952D01*
X156397571Y-127209523D01*
X156435666Y-127285714D01*
X156473761Y-127323809D01*
X156549952Y-127361904D01*
X156702333Y-127361904D01*
X156778523Y-127323809D01*
X155749952Y-127323809D02*
X155826142Y-127361904D01*
X155978523Y-127361904D01*
X156054714Y-127323809D01*
X156092809Y-127247619D01*
X156092809Y-126942857D01*
X156054714Y-126866666D01*
X155978523Y-126828571D01*
X155826142Y-126828571D01*
X155749952Y-126866666D01*
X155711857Y-126942857D01*
X155711857Y-127019047D01*
X156092809Y-127095238D01*
X155483285Y-126828571D02*
X155178523Y-126828571D01*
X155369000Y-126561904D02*
X155369000Y-127247619D01*
X155330904Y-127323809D01*
X155254714Y-127361904D01*
X155178523Y-127361904D01*
X154607095Y-127323809D02*
X154683285Y-127361904D01*
X154835666Y-127361904D01*
X154911857Y-127323809D01*
X154949952Y-127247619D01*
X154949952Y-126942857D01*
X154911857Y-126866666D01*
X154835666Y-126828571D01*
X154683285Y-126828571D01*
X154607095Y-126866666D01*
X154569000Y-126942857D01*
X154569000Y-127019047D01*
X154949952Y-127095238D01*
X154226142Y-127361904D02*
X154226142Y-126828571D01*
X154226142Y-126980952D02*
X154188047Y-126904761D01*
X154149952Y-126866666D01*
X154073761Y-126828571D01*
X153997571Y-126828571D01*
X153235666Y-126980952D02*
X153273761Y-126942857D01*
X153349952Y-126904761D01*
X153426142Y-126904761D01*
X153502333Y-126942857D01*
X153540428Y-126980952D01*
X153578523Y-127057142D01*
X153578523Y-127133333D01*
X153540428Y-127209523D01*
X153502333Y-127247619D01*
X153426142Y-127285714D01*
X153349952Y-127285714D01*
X153273761Y-127247619D01*
X153235666Y-127209523D01*
X153235666Y-126904761D02*
X153235666Y-127209523D01*
X153197571Y-127247619D01*
X153159476Y-127247619D01*
X153083285Y-127209523D01*
X153045190Y-127133333D01*
X153045190Y-126942857D01*
X153121380Y-126828571D01*
X153235666Y-126752380D01*
X153388047Y-126714285D01*
X153540428Y-126752380D01*
X153654714Y-126828571D01*
X153730904Y-126942857D01*
X153769000Y-127095238D01*
X153730904Y-127247619D01*
X153654714Y-127361904D01*
X153540428Y-127438095D01*
X153388047Y-127476190D01*
X153235666Y-127438095D01*
X153121380Y-127361904D01*
X152816619Y-126828571D02*
X152511857Y-126828571D01*
X152702333Y-126561904D02*
X152702333Y-127247619D01*
X152664238Y-127323809D01*
X152588047Y-127361904D01*
X152511857Y-127361904D01*
X152321380Y-127361904D02*
X151902333Y-126828571D01*
X152321380Y-126828571D02*
X151902333Y-127361904D01*
X151597571Y-126828571D02*
X151597571Y-127628571D01*
X151597571Y-126866666D02*
X151521380Y-126828571D01*
X151369000Y-126828571D01*
X151292809Y-126866666D01*
X151254714Y-126904761D01*
X151216619Y-126980952D01*
X151216619Y-127209523D01*
X151254714Y-127285714D01*
X151292809Y-127323809D01*
X151369000Y-127361904D01*
X151521380Y-127361904D01*
X151597571Y-127323809D01*
X150759476Y-127361904D02*
X150835666Y-127323809D01*
X150873761Y-127247619D01*
X150873761Y-126561904D01*
X150340428Y-127361904D02*
X150416619Y-127323809D01*
X150454714Y-127285714D01*
X150492809Y-127209523D01*
X150492809Y-126980952D01*
X150454714Y-126904761D01*
X150416619Y-126866666D01*
X150340428Y-126828571D01*
X150226142Y-126828571D01*
X150149952Y-126866666D01*
X150111857Y-126904761D01*
X150073761Y-126980952D01*
X150073761Y-127209523D01*
X150111857Y-127285714D01*
X150149952Y-127323809D01*
X150226142Y-127361904D01*
X150340428Y-127361904D01*
X149730904Y-127361904D02*
X149730904Y-126828571D01*
X149730904Y-126980952D02*
X149692809Y-126904761D01*
X149654714Y-126866666D01*
X149578523Y-126828571D01*
X149502333Y-126828571D01*
X148930904Y-127323809D02*
X149007095Y-127361904D01*
X149159476Y-127361904D01*
X149235666Y-127323809D01*
X149273761Y-127247619D01*
X149273761Y-126942857D01*
X149235666Y-126866666D01*
X149159476Y-126828571D01*
X149007095Y-126828571D01*
X148930904Y-126866666D01*
X148892809Y-126942857D01*
X148892809Y-127019047D01*
X149273761Y-127095238D01*
X148549952Y-127285714D02*
X148511857Y-127323809D01*
X148549952Y-127361904D01*
X148588047Y-127323809D01*
X148549952Y-127285714D01*
X148549952Y-127361904D01*
X147826142Y-127323809D02*
X147902333Y-127361904D01*
X148054714Y-127361904D01*
X148130904Y-127323809D01*
X148169000Y-127285714D01*
X148207095Y-127209523D01*
X148207095Y-126980952D01*
X148169000Y-126904761D01*
X148130904Y-126866666D01*
X148054714Y-126828571D01*
X147902333Y-126828571D01*
X147826142Y-126866666D01*
X147369000Y-127361904D02*
X147445190Y-127323809D01*
X147483285Y-127285714D01*
X147521380Y-127209523D01*
X147521380Y-126980952D01*
X147483285Y-126904761D01*
X147445190Y-126866666D01*
X147369000Y-126828571D01*
X147254714Y-126828571D01*
X147178523Y-126866666D01*
X147140428Y-126904761D01*
X147102333Y-126980952D01*
X147102333Y-127209523D01*
X147140428Y-127285714D01*
X147178523Y-127323809D01*
X147254714Y-127361904D01*
X147369000Y-127361904D01*
X146759476Y-127361904D02*
X146759476Y-126828571D01*
X146759476Y-126904761D02*
X146721380Y-126866666D01*
X146645190Y-126828571D01*
X146530904Y-126828571D01*
X146454714Y-126866666D01*
X146416619Y-126942857D01*
X146416619Y-127361904D01*
X146416619Y-126942857D02*
X146378523Y-126866666D01*
X146302333Y-126828571D01*
X146188047Y-126828571D01*
X146111857Y-126866666D01*
X146073761Y-126942857D01*
X146073761Y-127361904D01*
X167433857Y-125607857D02*
X167319571Y-125645952D01*
X167281476Y-125684047D01*
X167243380Y-125760238D01*
X167243380Y-125874523D01*
X167281476Y-125950714D01*
X167319571Y-125988809D01*
X167395761Y-126026904D01*
X167700523Y-126026904D01*
X167700523Y-125226904D01*
X167433857Y-125226904D01*
X167357666Y-125265000D01*
X167319571Y-125303095D01*
X167281476Y-125379285D01*
X167281476Y-125455476D01*
X167319571Y-125531666D01*
X167357666Y-125569761D01*
X167433857Y-125607857D01*
X167700523Y-125607857D01*
X166557666Y-125493571D02*
X166557666Y-126026904D01*
X166900523Y-125493571D02*
X166900523Y-125912619D01*
X166862428Y-125988809D01*
X166786238Y-126026904D01*
X166671952Y-126026904D01*
X166595761Y-125988809D01*
X166557666Y-125950714D01*
X166291000Y-125493571D02*
X165986238Y-125493571D01*
X166176714Y-125226904D02*
X166176714Y-125912619D01*
X166138619Y-125988809D01*
X166062428Y-126026904D01*
X165986238Y-126026904D01*
X165833857Y-125493571D02*
X165529095Y-125493571D01*
X165719571Y-125226904D02*
X165719571Y-125912619D01*
X165681476Y-125988809D01*
X165605285Y-126026904D01*
X165529095Y-126026904D01*
X165148142Y-126026904D02*
X165224333Y-125988809D01*
X165262428Y-125950714D01*
X165300523Y-125874523D01*
X165300523Y-125645952D01*
X165262428Y-125569761D01*
X165224333Y-125531666D01*
X165148142Y-125493571D01*
X165033857Y-125493571D01*
X164957666Y-125531666D01*
X164919571Y-125569761D01*
X164881476Y-125645952D01*
X164881476Y-125874523D01*
X164919571Y-125950714D01*
X164957666Y-125988809D01*
X165033857Y-126026904D01*
X165148142Y-126026904D01*
X164538619Y-125493571D02*
X164538619Y-126026904D01*
X164538619Y-125569761D02*
X164500523Y-125531666D01*
X164424333Y-125493571D01*
X164310047Y-125493571D01*
X164233857Y-125531666D01*
X164195761Y-125607857D01*
X164195761Y-126026904D01*
X163814809Y-125950714D02*
X163776714Y-125988809D01*
X163814809Y-126026904D01*
X163852904Y-125988809D01*
X163814809Y-125950714D01*
X163814809Y-126026904D01*
X163814809Y-125531666D02*
X163776714Y-125569761D01*
X163814809Y-125607857D01*
X163852904Y-125569761D01*
X163814809Y-125531666D01*
X163814809Y-125607857D01*
X162405285Y-125265000D02*
X162481476Y-125226904D01*
X162595761Y-125226904D01*
X162710047Y-125265000D01*
X162786238Y-125341190D01*
X162824333Y-125417380D01*
X162862428Y-125569761D01*
X162862428Y-125684047D01*
X162824333Y-125836428D01*
X162786238Y-125912619D01*
X162710047Y-125988809D01*
X162595761Y-126026904D01*
X162519571Y-126026904D01*
X162405285Y-125988809D01*
X162367190Y-125950714D01*
X162367190Y-125684047D01*
X162519571Y-125684047D01*
X162024333Y-126026904D02*
X162024333Y-125226904D01*
X161719571Y-125226904D01*
X161643380Y-125265000D01*
X161605285Y-125303095D01*
X161567190Y-125379285D01*
X161567190Y-125493571D01*
X161605285Y-125569761D01*
X161643380Y-125607857D01*
X161719571Y-125645952D01*
X162024333Y-125645952D01*
X161224333Y-126026904D02*
X161224333Y-125226904D01*
X160691000Y-125226904D02*
X160538619Y-125226904D01*
X160462428Y-125265000D01*
X160386238Y-125341190D01*
X160348142Y-125493571D01*
X160348142Y-125760238D01*
X160386238Y-125912619D01*
X160462428Y-125988809D01*
X160538619Y-126026904D01*
X160691000Y-126026904D01*
X160767190Y-125988809D01*
X160843380Y-125912619D01*
X160881476Y-125760238D01*
X160881476Y-125493571D01*
X160843380Y-125341190D01*
X160767190Y-125265000D01*
X160691000Y-125226904D01*
X159586238Y-126026904D02*
X160043380Y-126026904D01*
X159814809Y-126026904D02*
X159814809Y-125226904D01*
X159891000Y-125341190D01*
X159967190Y-125417380D01*
X160043380Y-125455476D01*
X158900523Y-125493571D02*
X158900523Y-126026904D01*
X159091000Y-125188809D02*
X159281476Y-125760238D01*
X158786238Y-125760238D01*
X167319571Y-127426904D02*
X167700523Y-127426904D01*
X167700523Y-126626904D01*
X167052904Y-127007857D02*
X166786238Y-127007857D01*
X166671952Y-127426904D02*
X167052904Y-127426904D01*
X167052904Y-126626904D01*
X166671952Y-126626904D01*
X166329095Y-127426904D02*
X166329095Y-126626904D01*
X166138619Y-126626904D01*
X166024333Y-126665000D01*
X165948142Y-126741190D01*
X165910047Y-126817380D01*
X165871952Y-126969761D01*
X165871952Y-127084047D01*
X165910047Y-127236428D01*
X165948142Y-127312619D01*
X166024333Y-127388809D01*
X166138619Y-127426904D01*
X166329095Y-127426904D01*
X165529095Y-127350714D02*
X165491000Y-127388809D01*
X165529095Y-127426904D01*
X165567190Y-127388809D01*
X165529095Y-127350714D01*
X165529095Y-127426904D01*
X165529095Y-126931666D02*
X165491000Y-126969761D01*
X165529095Y-127007857D01*
X165567190Y-126969761D01*
X165529095Y-126931666D01*
X165529095Y-127007857D01*
X164119571Y-126665000D02*
X164195761Y-126626904D01*
X164310047Y-126626904D01*
X164424333Y-126665000D01*
X164500523Y-126741190D01*
X164538619Y-126817380D01*
X164576714Y-126969761D01*
X164576714Y-127084047D01*
X164538619Y-127236428D01*
X164500523Y-127312619D01*
X164424333Y-127388809D01*
X164310047Y-127426904D01*
X164233857Y-127426904D01*
X164119571Y-127388809D01*
X164081476Y-127350714D01*
X164081476Y-127084047D01*
X164233857Y-127084047D01*
X163738619Y-127426904D02*
X163738619Y-126626904D01*
X163433857Y-126626904D01*
X163357666Y-126665000D01*
X163319571Y-126703095D01*
X163281476Y-126779285D01*
X163281476Y-126893571D01*
X163319571Y-126969761D01*
X163357666Y-127007857D01*
X163433857Y-127045952D01*
X163738619Y-127045952D01*
X162938619Y-127426904D02*
X162938619Y-126626904D01*
X162405285Y-126626904D02*
X162252904Y-126626904D01*
X162176714Y-126665000D01*
X162100523Y-126741190D01*
X162062428Y-126893571D01*
X162062428Y-127160238D01*
X162100523Y-127312619D01*
X162176714Y-127388809D01*
X162252904Y-127426904D01*
X162405285Y-127426904D01*
X162481476Y-127388809D01*
X162557666Y-127312619D01*
X162595761Y-127160238D01*
X162595761Y-126893571D01*
X162557666Y-126741190D01*
X162481476Y-126665000D01*
X162405285Y-126626904D01*
X161376714Y-126893571D02*
X161376714Y-127426904D01*
X161567190Y-126588809D02*
X161757666Y-127160238D01*
X161262428Y-127160238D01*
D11*
G04 #@! TO.C,G\002A\002A\002A*
G36*
X152691042Y-119503503D02*
X152663949Y-119504126D01*
X152643820Y-119504893D01*
X152629155Y-119505985D01*
X152618451Y-119507584D01*
X152610206Y-119509870D01*
X152602920Y-119513025D01*
X152600113Y-119514478D01*
X152584109Y-119526055D01*
X152573957Y-119541329D01*
X152568906Y-119561767D01*
X152568010Y-119577226D01*
X152570295Y-119601791D01*
X152578063Y-119620275D01*
X152591897Y-119633497D01*
X152612379Y-119642281D01*
X152614554Y-119642878D01*
X152632257Y-119647560D01*
X152564909Y-119757158D01*
X152593444Y-119755904D01*
X152621980Y-119754650D01*
X152651568Y-119702791D01*
X152681157Y-119650933D01*
X152713267Y-119650933D01*
X152713267Y-119756766D01*
X152764067Y-119756766D01*
X152764067Y-119608600D01*
X152713623Y-119608600D01*
X152681971Y-119608600D01*
X152664650Y-119608000D01*
X152649170Y-119606424D01*
X152638772Y-119604207D01*
X152638487Y-119604102D01*
X152627612Y-119598473D01*
X152622075Y-119590508D01*
X152620259Y-119577525D01*
X152620199Y-119573772D01*
X152621858Y-119561598D01*
X152627684Y-119553086D01*
X152638771Y-119547646D01*
X152656214Y-119544688D01*
X152676001Y-119543702D01*
X152711150Y-119542983D01*
X152712387Y-119575792D01*
X152713623Y-119608600D01*
X152764067Y-119608600D01*
X152764067Y-119502067D01*
X152691042Y-119503503D01*
X152691042Y-119503503D01*
G37*
X152691042Y-119503503D02*
X152663949Y-119504126D01*
X152643820Y-119504893D01*
X152629155Y-119505985D01*
X152618451Y-119507584D01*
X152610206Y-119509870D01*
X152602920Y-119513025D01*
X152600113Y-119514478D01*
X152584109Y-119526055D01*
X152573957Y-119541329D01*
X152568906Y-119561767D01*
X152568010Y-119577226D01*
X152570295Y-119601791D01*
X152578063Y-119620275D01*
X152591897Y-119633497D01*
X152612379Y-119642281D01*
X152614554Y-119642878D01*
X152632257Y-119647560D01*
X152564909Y-119757158D01*
X152593444Y-119755904D01*
X152621980Y-119754650D01*
X152651568Y-119702791D01*
X152681157Y-119650933D01*
X152713267Y-119650933D01*
X152713267Y-119756766D01*
X152764067Y-119756766D01*
X152764067Y-119608600D01*
X152713623Y-119608600D01*
X152681971Y-119608600D01*
X152664650Y-119608000D01*
X152649170Y-119606424D01*
X152638772Y-119604207D01*
X152638487Y-119604102D01*
X152627612Y-119598473D01*
X152622075Y-119590508D01*
X152620259Y-119577525D01*
X152620199Y-119573772D01*
X152621858Y-119561598D01*
X152627684Y-119553086D01*
X152638771Y-119547646D01*
X152656214Y-119544688D01*
X152676001Y-119543702D01*
X152711150Y-119542983D01*
X152712387Y-119575792D01*
X152713623Y-119608600D01*
X152764067Y-119608600D01*
X152764067Y-119502067D01*
X152691042Y-119503503D01*
G36*
X152627340Y-119407410D02*
X152585317Y-119418439D01*
X152547509Y-119436053D01*
X152514442Y-119459622D01*
X152486642Y-119488518D01*
X152464636Y-119522112D01*
X152448952Y-119559775D01*
X152440115Y-119600877D01*
X152438653Y-119644791D01*
X152442629Y-119678731D01*
X152453622Y-119716583D01*
X152471976Y-119751934D01*
X152496721Y-119783793D01*
X152526887Y-119811169D01*
X152561504Y-119833071D01*
X152599601Y-119848508D01*
X152612104Y-119851858D01*
X152637757Y-119855995D01*
X152667124Y-119857725D01*
X152696815Y-119857054D01*
X152723444Y-119853990D01*
X152734434Y-119851595D01*
X152776134Y-119836430D01*
X152813068Y-119814877D01*
X152844692Y-119787697D01*
X152870465Y-119755648D01*
X152889844Y-119719490D01*
X152902286Y-119679982D01*
X152907249Y-119637884D01*
X152907113Y-119633840D01*
X152843437Y-119633840D01*
X152841036Y-119660019D01*
X152830632Y-119698425D01*
X152813882Y-119731919D01*
X152791547Y-119759996D01*
X152764386Y-119782152D01*
X152733159Y-119797882D01*
X152698626Y-119806682D01*
X152661547Y-119808047D01*
X152626484Y-119802467D01*
X152594267Y-119790249D01*
X152566111Y-119771449D01*
X152542484Y-119747153D01*
X152523858Y-119718446D01*
X152510700Y-119686414D01*
X152503481Y-119652141D01*
X152502670Y-119616715D01*
X152508737Y-119581220D01*
X152518830Y-119553563D01*
X152535401Y-119525590D01*
X152557436Y-119500109D01*
X152582914Y-119479090D01*
X152609816Y-119464505D01*
X152610325Y-119464305D01*
X152637769Y-119456979D01*
X152668990Y-119454151D01*
X152700621Y-119455822D01*
X152729294Y-119461994D01*
X152735639Y-119464253D01*
X152766153Y-119480588D01*
X152792563Y-119503395D01*
X152814183Y-119531398D01*
X152830326Y-119563323D01*
X152840306Y-119597895D01*
X152843437Y-119633840D01*
X152907113Y-119633840D01*
X152906341Y-119610913D01*
X152898441Y-119567075D01*
X152883446Y-119527331D01*
X152861936Y-119492194D01*
X152834488Y-119462180D01*
X152801681Y-119437801D01*
X152764092Y-119419572D01*
X152722302Y-119408007D01*
X152676887Y-119403619D01*
X152673050Y-119403593D01*
X152627340Y-119407410D01*
X152627340Y-119407410D01*
G37*
X152627340Y-119407410D02*
X152585317Y-119418439D01*
X152547509Y-119436053D01*
X152514442Y-119459622D01*
X152486642Y-119488518D01*
X152464636Y-119522112D01*
X152448952Y-119559775D01*
X152440115Y-119600877D01*
X152438653Y-119644791D01*
X152442629Y-119678731D01*
X152453622Y-119716583D01*
X152471976Y-119751934D01*
X152496721Y-119783793D01*
X152526887Y-119811169D01*
X152561504Y-119833071D01*
X152599601Y-119848508D01*
X152612104Y-119851858D01*
X152637757Y-119855995D01*
X152667124Y-119857725D01*
X152696815Y-119857054D01*
X152723444Y-119853990D01*
X152734434Y-119851595D01*
X152776134Y-119836430D01*
X152813068Y-119814877D01*
X152844692Y-119787697D01*
X152870465Y-119755648D01*
X152889844Y-119719490D01*
X152902286Y-119679982D01*
X152907249Y-119637884D01*
X152907113Y-119633840D01*
X152843437Y-119633840D01*
X152841036Y-119660019D01*
X152830632Y-119698425D01*
X152813882Y-119731919D01*
X152791547Y-119759996D01*
X152764386Y-119782152D01*
X152733159Y-119797882D01*
X152698626Y-119806682D01*
X152661547Y-119808047D01*
X152626484Y-119802467D01*
X152594267Y-119790249D01*
X152566111Y-119771449D01*
X152542484Y-119747153D01*
X152523858Y-119718446D01*
X152510700Y-119686414D01*
X152503481Y-119652141D01*
X152502670Y-119616715D01*
X152508737Y-119581220D01*
X152518830Y-119553563D01*
X152535401Y-119525590D01*
X152557436Y-119500109D01*
X152582914Y-119479090D01*
X152609816Y-119464505D01*
X152610325Y-119464305D01*
X152637769Y-119456979D01*
X152668990Y-119454151D01*
X152700621Y-119455822D01*
X152729294Y-119461994D01*
X152735639Y-119464253D01*
X152766153Y-119480588D01*
X152792563Y-119503395D01*
X152814183Y-119531398D01*
X152830326Y-119563323D01*
X152840306Y-119597895D01*
X152843437Y-119633840D01*
X152907113Y-119633840D01*
X152906341Y-119610913D01*
X152898441Y-119567075D01*
X152883446Y-119527331D01*
X152861936Y-119492194D01*
X152834488Y-119462180D01*
X152801681Y-119437801D01*
X152764092Y-119419572D01*
X152722302Y-119408007D01*
X152676887Y-119403619D01*
X152673050Y-119403593D01*
X152627340Y-119407410D01*
G36*
X153492200Y-119955833D02*
X153460179Y-119924122D01*
X153414441Y-119884224D01*
X153365967Y-119852303D01*
X153314978Y-119828421D01*
X153261694Y-119812638D01*
X153206338Y-119805014D01*
X153149129Y-119805611D01*
X153090290Y-119814489D01*
X153074794Y-119818151D01*
X153033392Y-119831132D01*
X152997837Y-119848024D01*
X152965950Y-119870036D01*
X152941755Y-119892006D01*
X152914215Y-119924195D01*
X152891912Y-119960556D01*
X152874476Y-120001954D01*
X152861540Y-120049252D01*
X152853191Y-120099555D01*
X152852327Y-120111005D01*
X152851546Y-120130578D01*
X152850853Y-120157930D01*
X152850250Y-120192718D01*
X152849742Y-120234599D01*
X152849333Y-120283229D01*
X152849027Y-120338265D01*
X152848827Y-120399364D01*
X152848738Y-120466182D01*
X152848734Y-120485847D01*
X152848734Y-120836267D01*
X153026097Y-120836267D01*
X153027658Y-120475375D01*
X153027947Y-120408973D01*
X153028227Y-120350465D01*
X153028537Y-120299281D01*
X153028913Y-120254847D01*
X153029392Y-120216592D01*
X153030013Y-120183944D01*
X153030813Y-120156331D01*
X153031828Y-120133181D01*
X153033096Y-120113923D01*
X153034655Y-120097984D01*
X153036542Y-120084792D01*
X153038794Y-120073776D01*
X153041448Y-120064364D01*
X153044543Y-120055983D01*
X153048115Y-120048062D01*
X153052201Y-120040029D01*
X153056633Y-120031700D01*
X153074888Y-120004596D01*
X153097836Y-119983587D01*
X153126219Y-119968193D01*
X153160780Y-119957934D01*
X153174513Y-119955462D01*
X153219812Y-119952690D01*
X153265233Y-119958327D01*
X153310650Y-119972319D01*
X153355937Y-119994609D01*
X153400968Y-120025145D01*
X153445618Y-120063871D01*
X153461509Y-120079739D01*
X153492200Y-120111464D01*
X153492200Y-120836267D01*
X153670000Y-120836267D01*
X153670000Y-119443500D01*
X153492200Y-119443500D01*
X153492200Y-119955833D01*
X153492200Y-119955833D01*
G37*
X153492200Y-119955833D02*
X153460179Y-119924122D01*
X153414441Y-119884224D01*
X153365967Y-119852303D01*
X153314978Y-119828421D01*
X153261694Y-119812638D01*
X153206338Y-119805014D01*
X153149129Y-119805611D01*
X153090290Y-119814489D01*
X153074794Y-119818151D01*
X153033392Y-119831132D01*
X152997837Y-119848024D01*
X152965950Y-119870036D01*
X152941755Y-119892006D01*
X152914215Y-119924195D01*
X152891912Y-119960556D01*
X152874476Y-120001954D01*
X152861540Y-120049252D01*
X152853191Y-120099555D01*
X152852327Y-120111005D01*
X152851546Y-120130578D01*
X152850853Y-120157930D01*
X152850250Y-120192718D01*
X152849742Y-120234599D01*
X152849333Y-120283229D01*
X152849027Y-120338265D01*
X152848827Y-120399364D01*
X152848738Y-120466182D01*
X152848734Y-120485847D01*
X152848734Y-120836267D01*
X153026097Y-120836267D01*
X153027658Y-120475375D01*
X153027947Y-120408973D01*
X153028227Y-120350465D01*
X153028537Y-120299281D01*
X153028913Y-120254847D01*
X153029392Y-120216592D01*
X153030013Y-120183944D01*
X153030813Y-120156331D01*
X153031828Y-120133181D01*
X153033096Y-120113923D01*
X153034655Y-120097984D01*
X153036542Y-120084792D01*
X153038794Y-120073776D01*
X153041448Y-120064364D01*
X153044543Y-120055983D01*
X153048115Y-120048062D01*
X153052201Y-120040029D01*
X153056633Y-120031700D01*
X153074888Y-120004596D01*
X153097836Y-119983587D01*
X153126219Y-119968193D01*
X153160780Y-119957934D01*
X153174513Y-119955462D01*
X153219812Y-119952690D01*
X153265233Y-119958327D01*
X153310650Y-119972319D01*
X153355937Y-119994609D01*
X153400968Y-120025145D01*
X153445618Y-120063871D01*
X153461509Y-120079739D01*
X153492200Y-120111464D01*
X153492200Y-120836267D01*
X153670000Y-120836267D01*
X153670000Y-119443500D01*
X153492200Y-119443500D01*
X153492200Y-119955833D01*
G36*
X155702000Y-119608600D02*
X156163434Y-119608600D01*
X156163434Y-120836267D01*
X156349700Y-120836267D01*
X156349700Y-119608600D01*
X156806901Y-119608600D01*
X156806901Y-119443500D01*
X155702000Y-119443500D01*
X155702000Y-119608600D01*
X155702000Y-119608600D01*
G37*
X155702000Y-119608600D02*
X156163434Y-119608600D01*
X156163434Y-120836267D01*
X156349700Y-120836267D01*
X156349700Y-119608600D01*
X156806901Y-119608600D01*
X156806901Y-119443500D01*
X155702000Y-119443500D01*
X155702000Y-119608600D01*
G36*
X154105618Y-119807977D02*
X154049082Y-119817311D01*
X153996374Y-119832550D01*
X153978809Y-119839411D01*
X153931236Y-119863776D01*
X153888013Y-119894684D01*
X153850060Y-119931288D01*
X153818295Y-119972739D01*
X153800117Y-120004417D01*
X153791946Y-120023092D01*
X153783264Y-120046722D01*
X153775148Y-120071996D01*
X153768673Y-120095606D01*
X153765358Y-120111308D01*
X153762390Y-120129300D01*
X153943725Y-120129300D01*
X153950895Y-120095937D01*
X153963045Y-120058594D01*
X153982292Y-120025670D01*
X154008215Y-119997690D01*
X154040393Y-119975176D01*
X154053117Y-119968656D01*
X154078495Y-119958070D01*
X154103019Y-119951053D01*
X154129388Y-119947091D01*
X154160302Y-119945669D01*
X154173767Y-119945688D01*
X154218014Y-119948767D01*
X154257101Y-119957273D01*
X154292737Y-119971683D01*
X154316507Y-119985515D01*
X154350587Y-120012833D01*
X154380622Y-120047150D01*
X154406282Y-120087855D01*
X154427236Y-120134339D01*
X154443152Y-120185991D01*
X154453020Y-120237250D01*
X154455293Y-120260279D01*
X154456663Y-120289342D01*
X154457152Y-120322057D01*
X154456783Y-120356042D01*
X154455579Y-120388914D01*
X154453563Y-120418291D01*
X154451095Y-120439618D01*
X154439455Y-120495555D01*
X154422349Y-120546155D01*
X154400047Y-120591075D01*
X154372821Y-120629973D01*
X154340942Y-120662507D01*
X154304682Y-120688333D01*
X154264310Y-120707109D01*
X154232108Y-120716230D01*
X154209810Y-120719404D01*
X154182987Y-120720831D01*
X154154358Y-120720593D01*
X154126640Y-120718767D01*
X154102551Y-120715432D01*
X154088680Y-120712047D01*
X154049601Y-120695746D01*
X154015855Y-120673827D01*
X153988042Y-120646918D01*
X153966764Y-120615646D01*
X153952621Y-120580640D01*
X153949224Y-120566392D01*
X153944066Y-120539933D01*
X153762390Y-120539933D01*
X153765358Y-120557925D01*
X153771016Y-120583311D01*
X153779757Y-120612218D01*
X153790320Y-120640964D01*
X153801443Y-120665869D01*
X153804058Y-120670869D01*
X153832016Y-120715107D01*
X153864641Y-120753078D01*
X153902473Y-120785183D01*
X153946051Y-120811821D01*
X153995914Y-120833393D01*
X154042534Y-120847756D01*
X154060020Y-120851968D01*
X154076637Y-120855016D01*
X154094514Y-120857128D01*
X154115782Y-120858532D01*
X154142571Y-120859454D01*
X154154717Y-120859727D01*
X154180779Y-120859987D01*
X154205942Y-120859758D01*
X154228104Y-120859092D01*
X154245166Y-120858042D01*
X154252084Y-120857250D01*
X154311134Y-120844236D01*
X154367256Y-120824192D01*
X154419586Y-120797614D01*
X154467256Y-120764999D01*
X154509403Y-120726845D01*
X154538277Y-120693041D01*
X154557069Y-120665164D01*
X154575868Y-120631800D01*
X154593239Y-120595805D01*
X154607745Y-120560035D01*
X154613147Y-120544167D01*
X154628809Y-120482990D01*
X154638691Y-120417968D01*
X154642840Y-120350788D01*
X154641300Y-120283137D01*
X154634117Y-120216702D01*
X154621334Y-120153170D01*
X154602998Y-120094228D01*
X154601029Y-120089083D01*
X154574555Y-120031514D01*
X154542420Y-119980183D01*
X154504701Y-119935167D01*
X154461478Y-119896542D01*
X154412830Y-119864386D01*
X154358837Y-119838777D01*
X154336202Y-119830531D01*
X154281272Y-119815825D01*
X154223404Y-119807192D01*
X154164289Y-119804590D01*
X154105618Y-119807977D01*
X154105618Y-119807977D01*
G37*
X154105618Y-119807977D02*
X154049082Y-119817311D01*
X153996374Y-119832550D01*
X153978809Y-119839411D01*
X153931236Y-119863776D01*
X153888013Y-119894684D01*
X153850060Y-119931288D01*
X153818295Y-119972739D01*
X153800117Y-120004417D01*
X153791946Y-120023092D01*
X153783264Y-120046722D01*
X153775148Y-120071996D01*
X153768673Y-120095606D01*
X153765358Y-120111308D01*
X153762390Y-120129300D01*
X153943725Y-120129300D01*
X153950895Y-120095937D01*
X153963045Y-120058594D01*
X153982292Y-120025670D01*
X154008215Y-119997690D01*
X154040393Y-119975176D01*
X154053117Y-119968656D01*
X154078495Y-119958070D01*
X154103019Y-119951053D01*
X154129388Y-119947091D01*
X154160302Y-119945669D01*
X154173767Y-119945688D01*
X154218014Y-119948767D01*
X154257101Y-119957273D01*
X154292737Y-119971683D01*
X154316507Y-119985515D01*
X154350587Y-120012833D01*
X154380622Y-120047150D01*
X154406282Y-120087855D01*
X154427236Y-120134339D01*
X154443152Y-120185991D01*
X154453020Y-120237250D01*
X154455293Y-120260279D01*
X154456663Y-120289342D01*
X154457152Y-120322057D01*
X154456783Y-120356042D01*
X154455579Y-120388914D01*
X154453563Y-120418291D01*
X154451095Y-120439618D01*
X154439455Y-120495555D01*
X154422349Y-120546155D01*
X154400047Y-120591075D01*
X154372821Y-120629973D01*
X154340942Y-120662507D01*
X154304682Y-120688333D01*
X154264310Y-120707109D01*
X154232108Y-120716230D01*
X154209810Y-120719404D01*
X154182987Y-120720831D01*
X154154358Y-120720593D01*
X154126640Y-120718767D01*
X154102551Y-120715432D01*
X154088680Y-120712047D01*
X154049601Y-120695746D01*
X154015855Y-120673827D01*
X153988042Y-120646918D01*
X153966764Y-120615646D01*
X153952621Y-120580640D01*
X153949224Y-120566392D01*
X153944066Y-120539933D01*
X153762390Y-120539933D01*
X153765358Y-120557925D01*
X153771016Y-120583311D01*
X153779757Y-120612218D01*
X153790320Y-120640964D01*
X153801443Y-120665869D01*
X153804058Y-120670869D01*
X153832016Y-120715107D01*
X153864641Y-120753078D01*
X153902473Y-120785183D01*
X153946051Y-120811821D01*
X153995914Y-120833393D01*
X154042534Y-120847756D01*
X154060020Y-120851968D01*
X154076637Y-120855016D01*
X154094514Y-120857128D01*
X154115782Y-120858532D01*
X154142571Y-120859454D01*
X154154717Y-120859727D01*
X154180779Y-120859987D01*
X154205942Y-120859758D01*
X154228104Y-120859092D01*
X154245166Y-120858042D01*
X154252084Y-120857250D01*
X154311134Y-120844236D01*
X154367256Y-120824192D01*
X154419586Y-120797614D01*
X154467256Y-120764999D01*
X154509403Y-120726845D01*
X154538277Y-120693041D01*
X154557069Y-120665164D01*
X154575868Y-120631800D01*
X154593239Y-120595805D01*
X154607745Y-120560035D01*
X154613147Y-120544167D01*
X154628809Y-120482990D01*
X154638691Y-120417968D01*
X154642840Y-120350788D01*
X154641300Y-120283137D01*
X154634117Y-120216702D01*
X154621334Y-120153170D01*
X154602998Y-120094228D01*
X154601029Y-120089083D01*
X154574555Y-120031514D01*
X154542420Y-119980183D01*
X154504701Y-119935167D01*
X154461478Y-119896542D01*
X154412830Y-119864386D01*
X154358837Y-119838777D01*
X154336202Y-119830531D01*
X154281272Y-119815825D01*
X154223404Y-119807192D01*
X154164289Y-119804590D01*
X154105618Y-119807977D01*
G36*
X155124202Y-119808354D02*
X155074687Y-119815037D01*
X155028595Y-119826360D01*
X154991908Y-119839367D01*
X154938700Y-119865210D01*
X154890658Y-119897597D01*
X154847946Y-119936246D01*
X154810726Y-119980869D01*
X154779162Y-120031182D01*
X154753417Y-120086900D01*
X154733654Y-120147739D01*
X154720036Y-120213411D01*
X154712727Y-120283634D01*
X154711435Y-120329325D01*
X154711401Y-120374833D01*
X155474232Y-120374833D01*
X155471172Y-120401193D01*
X155461273Y-120461664D01*
X155446299Y-120515583D01*
X155426107Y-120563284D01*
X155400550Y-120605100D01*
X155369483Y-120641366D01*
X155364112Y-120646561D01*
X155340098Y-120667649D01*
X155317456Y-120683589D01*
X155292964Y-120696343D01*
X155263399Y-120707875D01*
X155263385Y-120707879D01*
X155249234Y-120712564D01*
X155236852Y-120715807D01*
X155224101Y-120717877D01*
X155208842Y-120719038D01*
X155188940Y-120719558D01*
X155168601Y-120719690D01*
X155142678Y-120719572D01*
X155123058Y-120718911D01*
X155107581Y-120717480D01*
X155094088Y-120715053D01*
X155080423Y-120711404D01*
X155075616Y-120709927D01*
X155032146Y-120693100D01*
X154994939Y-120672046D01*
X154964384Y-120647124D01*
X154940868Y-120618690D01*
X154924777Y-120587104D01*
X154918326Y-120564275D01*
X154913499Y-120539933D01*
X154729427Y-120539933D01*
X154733155Y-120560042D01*
X154746720Y-120610608D01*
X154767788Y-120657911D01*
X154795858Y-120701454D01*
X154830431Y-120740744D01*
X154871008Y-120775285D01*
X154917091Y-120804581D01*
X154968179Y-120828137D01*
X155019958Y-120844513D01*
X155068836Y-120854121D01*
X155122186Y-120859844D01*
X155176891Y-120861545D01*
X155229830Y-120859086D01*
X155261734Y-120855204D01*
X155324443Y-120841325D01*
X155383377Y-120819908D01*
X155438814Y-120790847D01*
X155450425Y-120783511D01*
X155496929Y-120748210D01*
X155537918Y-120706673D01*
X155573230Y-120659223D01*
X155602706Y-120606182D01*
X155626184Y-120547872D01*
X155643503Y-120484616D01*
X155654504Y-120416737D01*
X155658370Y-120366367D01*
X155658235Y-120293743D01*
X155652511Y-120235133D01*
X155470258Y-120235133D01*
X154901901Y-120235133D01*
X154901901Y-120225227D01*
X154903224Y-120213839D01*
X154906788Y-120196771D01*
X154911980Y-120176318D01*
X154918189Y-120154772D01*
X154924802Y-120134426D01*
X154929520Y-120121685D01*
X154950165Y-120079866D01*
X154976939Y-120041684D01*
X155000825Y-120016152D01*
X155024771Y-119995471D01*
X155047849Y-119979773D01*
X155073332Y-119967100D01*
X155099216Y-119957284D01*
X155115943Y-119951964D01*
X155130783Y-119948548D01*
X155146601Y-119946628D01*
X155166266Y-119945800D01*
X155181301Y-119945656D01*
X155217490Y-119946850D01*
X155248506Y-119951081D01*
X155277294Y-119958983D01*
X155306800Y-119971188D01*
X155312228Y-119973799D01*
X155337155Y-119989086D01*
X155362974Y-120010290D01*
X155387645Y-120035386D01*
X155409128Y-120062350D01*
X155422004Y-120082733D01*
X155434202Y-120107568D01*
X155445896Y-120136335D01*
X155456071Y-120166109D01*
X155463708Y-120193963D01*
X155467358Y-120213276D01*
X155470258Y-120235133D01*
X155652511Y-120235133D01*
X155651490Y-120224681D01*
X155638356Y-120159549D01*
X155619050Y-120098718D01*
X155593792Y-120042559D01*
X155562800Y-119991441D01*
X155526294Y-119945736D01*
X155484491Y-119905813D01*
X155437611Y-119872042D01*
X155385873Y-119844794D01*
X155340051Y-119827602D01*
X155307178Y-119818308D01*
X155276068Y-119811876D01*
X155243998Y-119807941D01*
X155208246Y-119806135D01*
X155179184Y-119805945D01*
X155124202Y-119808354D01*
X155124202Y-119808354D01*
G37*
X155124202Y-119808354D02*
X155074687Y-119815037D01*
X155028595Y-119826360D01*
X154991908Y-119839367D01*
X154938700Y-119865210D01*
X154890658Y-119897597D01*
X154847946Y-119936246D01*
X154810726Y-119980869D01*
X154779162Y-120031182D01*
X154753417Y-120086900D01*
X154733654Y-120147739D01*
X154720036Y-120213411D01*
X154712727Y-120283634D01*
X154711435Y-120329325D01*
X154711401Y-120374833D01*
X155474232Y-120374833D01*
X155471172Y-120401193D01*
X155461273Y-120461664D01*
X155446299Y-120515583D01*
X155426107Y-120563284D01*
X155400550Y-120605100D01*
X155369483Y-120641366D01*
X155364112Y-120646561D01*
X155340098Y-120667649D01*
X155317456Y-120683589D01*
X155292964Y-120696343D01*
X155263399Y-120707875D01*
X155263385Y-120707879D01*
X155249234Y-120712564D01*
X155236852Y-120715807D01*
X155224101Y-120717877D01*
X155208842Y-120719038D01*
X155188940Y-120719558D01*
X155168601Y-120719690D01*
X155142678Y-120719572D01*
X155123058Y-120718911D01*
X155107581Y-120717480D01*
X155094088Y-120715053D01*
X155080423Y-120711404D01*
X155075616Y-120709927D01*
X155032146Y-120693100D01*
X154994939Y-120672046D01*
X154964384Y-120647124D01*
X154940868Y-120618690D01*
X154924777Y-120587104D01*
X154918326Y-120564275D01*
X154913499Y-120539933D01*
X154729427Y-120539933D01*
X154733155Y-120560042D01*
X154746720Y-120610608D01*
X154767788Y-120657911D01*
X154795858Y-120701454D01*
X154830431Y-120740744D01*
X154871008Y-120775285D01*
X154917091Y-120804581D01*
X154968179Y-120828137D01*
X155019958Y-120844513D01*
X155068836Y-120854121D01*
X155122186Y-120859844D01*
X155176891Y-120861545D01*
X155229830Y-120859086D01*
X155261734Y-120855204D01*
X155324443Y-120841325D01*
X155383377Y-120819908D01*
X155438814Y-120790847D01*
X155450425Y-120783511D01*
X155496929Y-120748210D01*
X155537918Y-120706673D01*
X155573230Y-120659223D01*
X155602706Y-120606182D01*
X155626184Y-120547872D01*
X155643503Y-120484616D01*
X155654504Y-120416737D01*
X155658370Y-120366367D01*
X155658235Y-120293743D01*
X155652511Y-120235133D01*
X155470258Y-120235133D01*
X154901901Y-120235133D01*
X154901901Y-120225227D01*
X154903224Y-120213839D01*
X154906788Y-120196771D01*
X154911980Y-120176318D01*
X154918189Y-120154772D01*
X154924802Y-120134426D01*
X154929520Y-120121685D01*
X154950165Y-120079866D01*
X154976939Y-120041684D01*
X155000825Y-120016152D01*
X155024771Y-119995471D01*
X155047849Y-119979773D01*
X155073332Y-119967100D01*
X155099216Y-119957284D01*
X155115943Y-119951964D01*
X155130783Y-119948548D01*
X155146601Y-119946628D01*
X155166266Y-119945800D01*
X155181301Y-119945656D01*
X155217490Y-119946850D01*
X155248506Y-119951081D01*
X155277294Y-119958983D01*
X155306800Y-119971188D01*
X155312228Y-119973799D01*
X155337155Y-119989086D01*
X155362974Y-120010290D01*
X155387645Y-120035386D01*
X155409128Y-120062350D01*
X155422004Y-120082733D01*
X155434202Y-120107568D01*
X155445896Y-120136335D01*
X155456071Y-120166109D01*
X155463708Y-120193963D01*
X155467358Y-120213276D01*
X155470258Y-120235133D01*
X155652511Y-120235133D01*
X155651490Y-120224681D01*
X155638356Y-120159549D01*
X155619050Y-120098718D01*
X155593792Y-120042559D01*
X155562800Y-119991441D01*
X155526294Y-119945736D01*
X155484491Y-119905813D01*
X155437611Y-119872042D01*
X155385873Y-119844794D01*
X155340051Y-119827602D01*
X155307178Y-119818308D01*
X155276068Y-119811876D01*
X155243998Y-119807941D01*
X155208246Y-119806135D01*
X155179184Y-119805945D01*
X155124202Y-119808354D01*
G36*
X149584834Y-121141066D02*
X149762634Y-121141066D01*
X149762634Y-120946333D01*
X149584834Y-120946333D01*
X149584834Y-121141066D01*
X149584834Y-121141066D01*
G37*
X149584834Y-121141066D02*
X149762634Y-121141066D01*
X149762634Y-120946333D01*
X149584834Y-120946333D01*
X149584834Y-121141066D01*
G36*
X147826446Y-121313667D02*
X147773367Y-121323148D01*
X147725929Y-121338918D01*
X147684147Y-121360969D01*
X147648035Y-121389291D01*
X147617610Y-121423875D01*
X147592884Y-121464711D01*
X147575932Y-121505581D01*
X147571838Y-121517622D01*
X147568230Y-121528659D01*
X147565074Y-121539286D01*
X147562337Y-121550097D01*
X147559985Y-121561686D01*
X147557985Y-121574647D01*
X147556306Y-121589572D01*
X147554912Y-121607057D01*
X147553772Y-121627694D01*
X147552852Y-121652078D01*
X147552118Y-121680802D01*
X147551539Y-121714460D01*
X147551080Y-121753645D01*
X147550709Y-121798952D01*
X147550393Y-121850974D01*
X147550098Y-121910305D01*
X147549807Y-121973975D01*
X147548133Y-122343333D01*
X147730241Y-122343333D01*
X147731651Y-121978208D01*
X147731900Y-121912818D01*
X147732132Y-121855313D01*
X147732380Y-121805114D01*
X147732678Y-121761640D01*
X147733057Y-121724309D01*
X147733552Y-121692543D01*
X147734195Y-121665760D01*
X147735019Y-121643379D01*
X147736058Y-121624820D01*
X147737344Y-121609503D01*
X147738910Y-121596846D01*
X147740790Y-121586270D01*
X147743017Y-121577193D01*
X147745623Y-121569035D01*
X147748641Y-121561216D01*
X147752105Y-121553155D01*
X147756048Y-121544272D01*
X147756389Y-121543498D01*
X147768267Y-121523492D01*
X147785204Y-121503620D01*
X147804382Y-121486887D01*
X147816808Y-121479069D01*
X147836232Y-121471365D01*
X147860878Y-121464960D01*
X147887527Y-121460523D01*
X147912958Y-121458724D01*
X147914784Y-121458714D01*
X147957521Y-121462376D01*
X147999738Y-121473494D01*
X148041825Y-121492265D01*
X148084172Y-121518886D01*
X148127169Y-121553552D01*
X148155025Y-121579870D01*
X148196300Y-121621000D01*
X148196300Y-122343333D01*
X148374100Y-122343333D01*
X148374100Y-121335800D01*
X148196300Y-121335800D01*
X148196300Y-121459488D01*
X148160526Y-121425625D01*
X148117733Y-121388573D01*
X148075445Y-121359325D01*
X148032480Y-121337386D01*
X147987657Y-121322263D01*
X147939795Y-121313463D01*
X147887712Y-121310490D01*
X147885150Y-121310485D01*
X147826446Y-121313667D01*
X147826446Y-121313667D01*
G37*
X147826446Y-121313667D02*
X147773367Y-121323148D01*
X147725929Y-121338918D01*
X147684147Y-121360969D01*
X147648035Y-121389291D01*
X147617610Y-121423875D01*
X147592884Y-121464711D01*
X147575932Y-121505581D01*
X147571838Y-121517622D01*
X147568230Y-121528659D01*
X147565074Y-121539286D01*
X147562337Y-121550097D01*
X147559985Y-121561686D01*
X147557985Y-121574647D01*
X147556306Y-121589572D01*
X147554912Y-121607057D01*
X147553772Y-121627694D01*
X147552852Y-121652078D01*
X147552118Y-121680802D01*
X147551539Y-121714460D01*
X147551080Y-121753645D01*
X147550709Y-121798952D01*
X147550393Y-121850974D01*
X147550098Y-121910305D01*
X147549807Y-121973975D01*
X147548133Y-122343333D01*
X147730241Y-122343333D01*
X147731651Y-121978208D01*
X147731900Y-121912818D01*
X147732132Y-121855313D01*
X147732380Y-121805114D01*
X147732678Y-121761640D01*
X147733057Y-121724309D01*
X147733552Y-121692543D01*
X147734195Y-121665760D01*
X147735019Y-121643379D01*
X147736058Y-121624820D01*
X147737344Y-121609503D01*
X147738910Y-121596846D01*
X147740790Y-121586270D01*
X147743017Y-121577193D01*
X147745623Y-121569035D01*
X147748641Y-121561216D01*
X147752105Y-121553155D01*
X147756048Y-121544272D01*
X147756389Y-121543498D01*
X147768267Y-121523492D01*
X147785204Y-121503620D01*
X147804382Y-121486887D01*
X147816808Y-121479069D01*
X147836232Y-121471365D01*
X147860878Y-121464960D01*
X147887527Y-121460523D01*
X147912958Y-121458724D01*
X147914784Y-121458714D01*
X147957521Y-121462376D01*
X147999738Y-121473494D01*
X148041825Y-121492265D01*
X148084172Y-121518886D01*
X148127169Y-121553552D01*
X148155025Y-121579870D01*
X148196300Y-121621000D01*
X148196300Y-122343333D01*
X148374100Y-122343333D01*
X148374100Y-121335800D01*
X148196300Y-121335800D01*
X148196300Y-121459488D01*
X148160526Y-121425625D01*
X148117733Y-121388573D01*
X148075445Y-121359325D01*
X148032480Y-121337386D01*
X147987657Y-121322263D01*
X147939795Y-121313463D01*
X147887712Y-121310490D01*
X147885150Y-121310485D01*
X147826446Y-121313667D01*
G36*
X149584834Y-122343333D02*
X149762634Y-122343333D01*
X149762634Y-121335800D01*
X149584834Y-121335800D01*
X149584834Y-122343333D01*
X149584834Y-122343333D01*
G37*
X149584834Y-122343333D02*
X149762634Y-122343333D01*
X149762634Y-121335800D01*
X149584834Y-121335800D01*
X149584834Y-122343333D01*
G36*
X151357852Y-121310869D02*
X151339958Y-121312317D01*
X151312034Y-121315307D01*
X151312034Y-121406440D01*
X151312087Y-121436554D01*
X151312297Y-121459196D01*
X151312740Y-121475360D01*
X151313492Y-121486041D01*
X151314629Y-121492233D01*
X151316227Y-121494929D01*
X151318363Y-121495126D01*
X151318804Y-121494975D01*
X151329639Y-121492325D01*
X151346595Y-121489862D01*
X151367326Y-121487766D01*
X151389487Y-121486219D01*
X151410733Y-121485400D01*
X151428716Y-121485491D01*
X151436001Y-121485957D01*
X151482118Y-121494440D01*
X151525286Y-121510713D01*
X151565667Y-121534869D01*
X151603421Y-121566999D01*
X151630674Y-121597073D01*
X151654934Y-121626726D01*
X151654934Y-122343333D01*
X151836967Y-122343333D01*
X151836967Y-121335800D01*
X151655149Y-121335800D01*
X151652817Y-121467550D01*
X151637200Y-121447060D01*
X151606214Y-121411018D01*
X151571527Y-121378772D01*
X151534787Y-121351629D01*
X151497643Y-121330899D01*
X151482895Y-121324639D01*
X151457699Y-121317486D01*
X151426797Y-121312663D01*
X151392684Y-121310385D01*
X151357852Y-121310869D01*
X151357852Y-121310869D01*
G37*
X151357852Y-121310869D02*
X151339958Y-121312317D01*
X151312034Y-121315307D01*
X151312034Y-121406440D01*
X151312087Y-121436554D01*
X151312297Y-121459196D01*
X151312740Y-121475360D01*
X151313492Y-121486041D01*
X151314629Y-121492233D01*
X151316227Y-121494929D01*
X151318363Y-121495126D01*
X151318804Y-121494975D01*
X151329639Y-121492325D01*
X151346595Y-121489862D01*
X151367326Y-121487766D01*
X151389487Y-121486219D01*
X151410733Y-121485400D01*
X151428716Y-121485491D01*
X151436001Y-121485957D01*
X151482118Y-121494440D01*
X151525286Y-121510713D01*
X151565667Y-121534869D01*
X151603421Y-121566999D01*
X151630674Y-121597073D01*
X151654934Y-121626726D01*
X151654934Y-122343333D01*
X151836967Y-122343333D01*
X151836967Y-121335800D01*
X151655149Y-121335800D01*
X151652817Y-121467550D01*
X151637200Y-121447060D01*
X151606214Y-121411018D01*
X151571527Y-121378772D01*
X151534787Y-121351629D01*
X151497643Y-121330899D01*
X151482895Y-121324639D01*
X151457699Y-121317486D01*
X151426797Y-121312663D01*
X151392684Y-121310385D01*
X151357852Y-121310869D01*
G36*
X153047700Y-122343333D02*
X153225500Y-122343333D01*
X153225500Y-120946333D01*
X153047700Y-120946333D01*
X153047700Y-122343333D01*
X153047700Y-122343333D01*
G37*
X153047700Y-122343333D02*
X153225500Y-122343333D01*
X153225500Y-120946333D01*
X153047700Y-120946333D01*
X153047700Y-122343333D01*
G36*
X154486426Y-121336567D02*
X154460946Y-121336785D01*
X154352447Y-121337916D01*
X154521103Y-121574983D01*
X154549436Y-121614883D01*
X154576282Y-121652836D01*
X154601242Y-121688267D01*
X154623918Y-121720604D01*
X154643909Y-121749273D01*
X154660818Y-121773700D01*
X154674245Y-121793313D01*
X154683790Y-121807538D01*
X154689056Y-121815802D01*
X154689997Y-121817675D01*
X154687642Y-121821971D01*
X154680757Y-121832599D01*
X154669730Y-121848998D01*
X154654949Y-121870609D01*
X154636803Y-121896872D01*
X154615678Y-121927228D01*
X154591964Y-121961115D01*
X154566049Y-121997975D01*
X154538321Y-122037247D01*
X154513922Y-122071675D01*
X154484755Y-122112766D01*
X154456871Y-122152055D01*
X154430682Y-122188961D01*
X154406597Y-122222906D01*
X154385029Y-122253310D01*
X154366387Y-122279594D01*
X154351084Y-122301179D01*
X154339529Y-122317484D01*
X154332134Y-122327932D01*
X154329484Y-122331692D01*
X154321357Y-122343333D01*
X154545042Y-122343333D01*
X154668991Y-122148431D01*
X154692318Y-122111870D01*
X154714338Y-122077587D01*
X154734627Y-122046226D01*
X154752761Y-122018432D01*
X154768317Y-121994848D01*
X154780871Y-121976118D01*
X154790000Y-121962887D01*
X154795278Y-121955799D01*
X154796408Y-121954756D01*
X154799267Y-121958465D01*
X154806215Y-121968676D01*
X154816825Y-121984731D01*
X154830671Y-122005969D01*
X154847325Y-122031733D01*
X154866360Y-122061362D01*
X154887350Y-122094197D01*
X154909868Y-122129580D01*
X154921934Y-122148600D01*
X155043991Y-122341217D01*
X155155513Y-122342346D01*
X155267034Y-122343476D01*
X155259404Y-122331763D01*
X155255737Y-122326432D01*
X155247581Y-122314777D01*
X155235346Y-122297378D01*
X155219443Y-122274816D01*
X155200282Y-122247671D01*
X155178272Y-122216525D01*
X155153825Y-122181958D01*
X155127350Y-122144550D01*
X155099257Y-122104884D01*
X155076238Y-122072400D01*
X155047357Y-122031594D01*
X155019944Y-121992746D01*
X154994390Y-121956417D01*
X154971085Y-121923166D01*
X154950418Y-121893552D01*
X154932779Y-121868137D01*
X154918559Y-121847480D01*
X154908147Y-121832140D01*
X154901932Y-121822678D01*
X154900243Y-121819695D01*
X154902555Y-121815474D01*
X154909386Y-121804933D01*
X154920336Y-121788647D01*
X154935010Y-121767188D01*
X154953009Y-121741132D01*
X154973937Y-121711053D01*
X154997395Y-121677523D01*
X155022987Y-121641118D01*
X155050314Y-121602411D01*
X155067001Y-121578853D01*
X155095188Y-121539082D01*
X155121925Y-121501312D01*
X155146808Y-121466114D01*
X155169436Y-121434059D01*
X155189406Y-121405718D01*
X155206317Y-121381661D01*
X155219767Y-121362460D01*
X155229354Y-121348684D01*
X155234676Y-121340905D01*
X155235652Y-121339361D01*
X155231999Y-121338391D01*
X155220905Y-121337607D01*
X155203394Y-121337034D01*
X155180490Y-121336696D01*
X155153216Y-121336618D01*
X155125948Y-121336787D01*
X155014808Y-121337916D01*
X154906496Y-121510299D01*
X154884832Y-121544713D01*
X154864526Y-121576842D01*
X154846022Y-121605994D01*
X154829764Y-121631474D01*
X154816197Y-121652588D01*
X154805765Y-121668642D01*
X154798912Y-121678943D01*
X154796083Y-121682797D01*
X154796054Y-121682808D01*
X154793449Y-121679359D01*
X154786803Y-121669422D01*
X154776561Y-121653692D01*
X154763167Y-121632862D01*
X154747066Y-121607627D01*
X154728701Y-121578680D01*
X154708517Y-121546716D01*
X154686959Y-121512428D01*
X154686040Y-121510965D01*
X154664358Y-121476509D01*
X154643953Y-121444289D01*
X154625279Y-121415007D01*
X154608793Y-121389369D01*
X154594950Y-121368079D01*
X154584205Y-121351841D01*
X154577013Y-121341359D01*
X154573829Y-121337338D01*
X154573801Y-121337324D01*
X154568537Y-121336914D01*
X154555988Y-121336627D01*
X154537333Y-121336470D01*
X154513752Y-121336448D01*
X154486426Y-121336567D01*
X154486426Y-121336567D01*
G37*
X154486426Y-121336567D02*
X154460946Y-121336785D01*
X154352447Y-121337916D01*
X154521103Y-121574983D01*
X154549436Y-121614883D01*
X154576282Y-121652836D01*
X154601242Y-121688267D01*
X154623918Y-121720604D01*
X154643909Y-121749273D01*
X154660818Y-121773700D01*
X154674245Y-121793313D01*
X154683790Y-121807538D01*
X154689056Y-121815802D01*
X154689997Y-121817675D01*
X154687642Y-121821971D01*
X154680757Y-121832599D01*
X154669730Y-121848998D01*
X154654949Y-121870609D01*
X154636803Y-121896872D01*
X154615678Y-121927228D01*
X154591964Y-121961115D01*
X154566049Y-121997975D01*
X154538321Y-122037247D01*
X154513922Y-122071675D01*
X154484755Y-122112766D01*
X154456871Y-122152055D01*
X154430682Y-122188961D01*
X154406597Y-122222906D01*
X154385029Y-122253310D01*
X154366387Y-122279594D01*
X154351084Y-122301179D01*
X154339529Y-122317484D01*
X154332134Y-122327932D01*
X154329484Y-122331692D01*
X154321357Y-122343333D01*
X154545042Y-122343333D01*
X154668991Y-122148431D01*
X154692318Y-122111870D01*
X154714338Y-122077587D01*
X154734627Y-122046226D01*
X154752761Y-122018432D01*
X154768317Y-121994848D01*
X154780871Y-121976118D01*
X154790000Y-121962887D01*
X154795278Y-121955799D01*
X154796408Y-121954756D01*
X154799267Y-121958465D01*
X154806215Y-121968676D01*
X154816825Y-121984731D01*
X154830671Y-122005969D01*
X154847325Y-122031733D01*
X154866360Y-122061362D01*
X154887350Y-122094197D01*
X154909868Y-122129580D01*
X154921934Y-122148600D01*
X155043991Y-122341217D01*
X155155513Y-122342346D01*
X155267034Y-122343476D01*
X155259404Y-122331763D01*
X155255737Y-122326432D01*
X155247581Y-122314777D01*
X155235346Y-122297378D01*
X155219443Y-122274816D01*
X155200282Y-122247671D01*
X155178272Y-122216525D01*
X155153825Y-122181958D01*
X155127350Y-122144550D01*
X155099257Y-122104884D01*
X155076238Y-122072400D01*
X155047357Y-122031594D01*
X155019944Y-121992746D01*
X154994390Y-121956417D01*
X154971085Y-121923166D01*
X154950418Y-121893552D01*
X154932779Y-121868137D01*
X154918559Y-121847480D01*
X154908147Y-121832140D01*
X154901932Y-121822678D01*
X154900243Y-121819695D01*
X154902555Y-121815474D01*
X154909386Y-121804933D01*
X154920336Y-121788647D01*
X154935010Y-121767188D01*
X154953009Y-121741132D01*
X154973937Y-121711053D01*
X154997395Y-121677523D01*
X155022987Y-121641118D01*
X155050314Y-121602411D01*
X155067001Y-121578853D01*
X155095188Y-121539082D01*
X155121925Y-121501312D01*
X155146808Y-121466114D01*
X155169436Y-121434059D01*
X155189406Y-121405718D01*
X155206317Y-121381661D01*
X155219767Y-121362460D01*
X155229354Y-121348684D01*
X155234676Y-121340905D01*
X155235652Y-121339361D01*
X155231999Y-121338391D01*
X155220905Y-121337607D01*
X155203394Y-121337034D01*
X155180490Y-121336696D01*
X155153216Y-121336618D01*
X155125948Y-121336787D01*
X155014808Y-121337916D01*
X154906496Y-121510299D01*
X154884832Y-121544713D01*
X154864526Y-121576842D01*
X154846022Y-121605994D01*
X154829764Y-121631474D01*
X154816197Y-121652588D01*
X154805765Y-121668642D01*
X154798912Y-121678943D01*
X154796083Y-121682797D01*
X154796054Y-121682808D01*
X154793449Y-121679359D01*
X154786803Y-121669422D01*
X154776561Y-121653692D01*
X154763167Y-121632862D01*
X154747066Y-121607627D01*
X154728701Y-121578680D01*
X154708517Y-121546716D01*
X154686959Y-121512428D01*
X154686040Y-121510965D01*
X154664358Y-121476509D01*
X154643953Y-121444289D01*
X154625279Y-121415007D01*
X154608793Y-121389369D01*
X154594950Y-121368079D01*
X154584205Y-121351841D01*
X154577013Y-121341359D01*
X154573829Y-121337338D01*
X154573801Y-121337324D01*
X154568537Y-121336914D01*
X154555988Y-121336627D01*
X154537333Y-121336470D01*
X154513752Y-121336448D01*
X154486426Y-121336567D01*
G36*
X155350634Y-121115666D02*
X156176134Y-121115666D01*
X156176134Y-121539000D01*
X155401434Y-121539000D01*
X155401434Y-121704100D01*
X156176134Y-121704100D01*
X156176134Y-122178233D01*
X155316767Y-122178233D01*
X155316767Y-122343333D01*
X156362426Y-122343333D01*
X156361355Y-121645892D01*
X156360284Y-120948450D01*
X155855459Y-120947374D01*
X155350634Y-120946299D01*
X155350634Y-121115666D01*
X155350634Y-121115666D01*
G37*
X155350634Y-121115666D02*
X156176134Y-121115666D01*
X156176134Y-121539000D01*
X155401434Y-121539000D01*
X155401434Y-121704100D01*
X156176134Y-121704100D01*
X156176134Y-122178233D01*
X155316767Y-122178233D01*
X155316767Y-122343333D01*
X156362426Y-122343333D01*
X156361355Y-121645892D01*
X156360284Y-120948450D01*
X155855459Y-120947374D01*
X155350634Y-120946299D01*
X155350634Y-121115666D01*
G36*
X150033567Y-121335800D02*
X149868467Y-121335800D01*
X149868467Y-121475500D01*
X150033909Y-121475500D01*
X150032581Y-121804642D01*
X150032327Y-121867771D01*
X150032076Y-121923011D01*
X150031787Y-121970940D01*
X150031415Y-122012134D01*
X150030918Y-122047172D01*
X150030253Y-122076630D01*
X150029376Y-122101086D01*
X150028244Y-122121118D01*
X150026814Y-122137303D01*
X150025043Y-122150219D01*
X150022887Y-122160442D01*
X150020303Y-122168551D01*
X150017249Y-122175122D01*
X150013680Y-122180734D01*
X150009555Y-122185964D01*
X150004828Y-122191388D01*
X150003541Y-122192851D01*
X149994021Y-122202243D01*
X149983540Y-122208913D01*
X149970593Y-122213198D01*
X149953678Y-122215434D01*
X149931292Y-122215955D01*
X149903628Y-122215171D01*
X149847300Y-122212809D01*
X149847300Y-122346662D01*
X149873759Y-122351454D01*
X149893315Y-122354092D01*
X149918329Y-122356158D01*
X149946367Y-122357583D01*
X149974994Y-122358295D01*
X150001777Y-122358226D01*
X150024282Y-122357305D01*
X150036158Y-122356120D01*
X150077852Y-122347613D01*
X150112697Y-122334731D01*
X150141307Y-122317095D01*
X150164297Y-122294327D01*
X150182190Y-122266230D01*
X150187666Y-122254678D01*
X150192514Y-122242636D01*
X150196773Y-122229546D01*
X150200479Y-122214846D01*
X150203670Y-122197977D01*
X150206383Y-122178379D01*
X150208657Y-122155492D01*
X150210528Y-122128755D01*
X150212034Y-122097608D01*
X150213212Y-122061492D01*
X150214101Y-122019846D01*
X150214737Y-121972111D01*
X150215158Y-121917726D01*
X150215401Y-121856131D01*
X150215505Y-121786766D01*
X150215513Y-121768658D01*
X150215600Y-121475500D01*
X150338367Y-121475500D01*
X150338367Y-121335800D01*
X150215600Y-121335800D01*
X150215600Y-121081800D01*
X150033567Y-121081800D01*
X150033567Y-121335800D01*
X150033567Y-121335800D01*
G37*
X150033567Y-121335800D02*
X149868467Y-121335800D01*
X149868467Y-121475500D01*
X150033909Y-121475500D01*
X150032581Y-121804642D01*
X150032327Y-121867771D01*
X150032076Y-121923011D01*
X150031787Y-121970940D01*
X150031415Y-122012134D01*
X150030918Y-122047172D01*
X150030253Y-122076630D01*
X150029376Y-122101086D01*
X150028244Y-122121118D01*
X150026814Y-122137303D01*
X150025043Y-122150219D01*
X150022887Y-122160442D01*
X150020303Y-122168551D01*
X150017249Y-122175122D01*
X150013680Y-122180734D01*
X150009555Y-122185964D01*
X150004828Y-122191388D01*
X150003541Y-122192851D01*
X149994021Y-122202243D01*
X149983540Y-122208913D01*
X149970593Y-122213198D01*
X149953678Y-122215434D01*
X149931292Y-122215955D01*
X149903628Y-122215171D01*
X149847300Y-122212809D01*
X149847300Y-122346662D01*
X149873759Y-122351454D01*
X149893315Y-122354092D01*
X149918329Y-122356158D01*
X149946367Y-122357583D01*
X149974994Y-122358295D01*
X150001777Y-122358226D01*
X150024282Y-122357305D01*
X150036158Y-122356120D01*
X150077852Y-122347613D01*
X150112697Y-122334731D01*
X150141307Y-122317095D01*
X150164297Y-122294327D01*
X150182190Y-122266230D01*
X150187666Y-122254678D01*
X150192514Y-122242636D01*
X150196773Y-122229546D01*
X150200479Y-122214846D01*
X150203670Y-122197977D01*
X150206383Y-122178379D01*
X150208657Y-122155492D01*
X150210528Y-122128755D01*
X150212034Y-122097608D01*
X150213212Y-122061492D01*
X150214101Y-122019846D01*
X150214737Y-121972111D01*
X150215158Y-121917726D01*
X150215401Y-121856131D01*
X150215505Y-121786766D01*
X150215513Y-121768658D01*
X150215600Y-121475500D01*
X150338367Y-121475500D01*
X150338367Y-121335800D01*
X150215600Y-121335800D01*
X150215600Y-121081800D01*
X150033567Y-121081800D01*
X150033567Y-121335800D01*
G36*
X146974098Y-121311101D02*
X146943603Y-121312575D01*
X146923035Y-121314545D01*
X146862831Y-121324834D01*
X146809648Y-121339758D01*
X146763372Y-121359399D01*
X146723884Y-121383842D01*
X146691068Y-121413170D01*
X146664807Y-121447467D01*
X146644983Y-121486815D01*
X146633912Y-121521078D01*
X146629818Y-121539857D01*
X146626884Y-121558599D01*
X146625734Y-121573308D01*
X146625734Y-121594033D01*
X146802383Y-121594033D01*
X146804991Y-121575009D01*
X146812799Y-121547101D01*
X146827611Y-121520520D01*
X146847986Y-121497219D01*
X146872483Y-121479148D01*
X146877871Y-121476273D01*
X146899353Y-121466919D01*
X146921902Y-121460196D01*
X146947355Y-121455784D01*
X146977547Y-121453361D01*
X147013084Y-121452606D01*
X147047851Y-121453171D01*
X147076302Y-121455264D01*
X147100510Y-121459280D01*
X147122549Y-121465615D01*
X147144494Y-121474665D01*
X147154631Y-121479597D01*
X147174255Y-121491902D01*
X147192856Y-121507800D01*
X147208511Y-121525287D01*
X147219298Y-121542360D01*
X147222257Y-121550082D01*
X147224904Y-121564080D01*
X147226563Y-121581424D01*
X147226844Y-121590583D01*
X147226099Y-121607180D01*
X147223448Y-121621912D01*
X147218313Y-121635098D01*
X147210117Y-121647056D01*
X147198283Y-121658106D01*
X147182236Y-121668566D01*
X147161399Y-121678755D01*
X147135194Y-121688993D01*
X147103045Y-121699597D01*
X147064376Y-121710887D01*
X147018610Y-121723182D01*
X146965170Y-121736801D01*
X146960167Y-121738052D01*
X146896410Y-121754734D01*
X146840541Y-121771097D01*
X146792006Y-121787470D01*
X146750250Y-121804187D01*
X146714720Y-121821577D01*
X146684861Y-121839972D01*
X146660120Y-121859702D01*
X146639943Y-121881100D01*
X146623775Y-121904495D01*
X146611063Y-121930220D01*
X146603464Y-121951242D01*
X146599683Y-121964386D01*
X146597056Y-121977015D01*
X146595394Y-121991106D01*
X146594504Y-122008633D01*
X146594196Y-122031574D01*
X146594205Y-122047000D01*
X146594372Y-122072342D01*
X146594850Y-122091179D01*
X146595902Y-122105476D01*
X146597789Y-122117194D01*
X146600773Y-122128295D01*
X146605115Y-122140744D01*
X146607583Y-122147309D01*
X146629553Y-122193796D01*
X146658167Y-122235143D01*
X146693245Y-122271220D01*
X146734605Y-122301898D01*
X146782067Y-122327047D01*
X146835449Y-122346537D01*
X146894573Y-122360240D01*
X146907796Y-122362385D01*
X146930099Y-122364861D01*
X146958135Y-122366666D01*
X146989191Y-122367740D01*
X147020554Y-122368028D01*
X147049514Y-122367472D01*
X147073356Y-122366015D01*
X147074467Y-122365907D01*
X147139614Y-122356588D01*
X147198014Y-122342201D01*
X147249747Y-122322686D01*
X147294893Y-122297981D01*
X147333534Y-122268025D01*
X147365751Y-122232756D01*
X147391623Y-122192114D01*
X147411232Y-122146036D01*
X147423382Y-122100889D01*
X147426647Y-122083428D01*
X147429028Y-122067547D01*
X147430057Y-122056416D01*
X147430067Y-122055645D01*
X147430067Y-122042767D01*
X147249193Y-122042767D01*
X147247022Y-122069814D01*
X147240150Y-122104179D01*
X147225754Y-122136031D01*
X147204705Y-122163928D01*
X147177873Y-122186424D01*
X147176067Y-122187590D01*
X147149710Y-122200921D01*
X147116967Y-122211919D01*
X147079725Y-122220060D01*
X147043657Y-122224529D01*
X146990846Y-122226242D01*
X146942789Y-122222663D01*
X146899854Y-122213989D01*
X146862410Y-122200420D01*
X146830823Y-122182155D01*
X146805461Y-122159391D01*
X146786692Y-122132327D01*
X146774884Y-122101164D01*
X146770962Y-122077095D01*
X146771219Y-122045308D01*
X146777526Y-122018164D01*
X146789668Y-121996374D01*
X146798101Y-121987495D01*
X146808049Y-121979617D01*
X146819839Y-121972089D01*
X146834198Y-121964656D01*
X146851853Y-121957063D01*
X146873530Y-121949056D01*
X146899956Y-121940380D01*
X146931859Y-121930780D01*
X146969965Y-121920001D01*
X147015000Y-121907789D01*
X147057534Y-121896546D01*
X147106695Y-121883454D01*
X147148521Y-121871813D01*
X147183954Y-121861292D01*
X147213936Y-121851562D01*
X147239410Y-121842290D01*
X147261317Y-121833146D01*
X147280600Y-121823801D01*
X147298201Y-121813922D01*
X147305202Y-121809608D01*
X147339212Y-121783821D01*
X147365938Y-121753864D01*
X147385693Y-121719301D01*
X147398765Y-121679796D01*
X147402516Y-121656391D01*
X147404339Y-121628361D01*
X147404331Y-121598117D01*
X147402589Y-121568069D01*
X147399209Y-121540629D01*
X147394287Y-121518208D01*
X147392025Y-121511483D01*
X147370934Y-121468277D01*
X147342836Y-121429604D01*
X147308013Y-121395691D01*
X147266747Y-121366766D01*
X147219322Y-121343055D01*
X147166021Y-121324787D01*
X147157017Y-121322398D01*
X147136272Y-121318443D01*
X147109034Y-121315230D01*
X147077251Y-121312824D01*
X147042869Y-121311290D01*
X147007836Y-121310694D01*
X146974098Y-121311101D01*
X146974098Y-121311101D01*
G37*
X146974098Y-121311101D02*
X146943603Y-121312575D01*
X146923035Y-121314545D01*
X146862831Y-121324834D01*
X146809648Y-121339758D01*
X146763372Y-121359399D01*
X146723884Y-121383842D01*
X146691068Y-121413170D01*
X146664807Y-121447467D01*
X146644983Y-121486815D01*
X146633912Y-121521078D01*
X146629818Y-121539857D01*
X146626884Y-121558599D01*
X146625734Y-121573308D01*
X146625734Y-121594033D01*
X146802383Y-121594033D01*
X146804991Y-121575009D01*
X146812799Y-121547101D01*
X146827611Y-121520520D01*
X146847986Y-121497219D01*
X146872483Y-121479148D01*
X146877871Y-121476273D01*
X146899353Y-121466919D01*
X146921902Y-121460196D01*
X146947355Y-121455784D01*
X146977547Y-121453361D01*
X147013084Y-121452606D01*
X147047851Y-121453171D01*
X147076302Y-121455264D01*
X147100510Y-121459280D01*
X147122549Y-121465615D01*
X147144494Y-121474665D01*
X147154631Y-121479597D01*
X147174255Y-121491902D01*
X147192856Y-121507800D01*
X147208511Y-121525287D01*
X147219298Y-121542360D01*
X147222257Y-121550082D01*
X147224904Y-121564080D01*
X147226563Y-121581424D01*
X147226844Y-121590583D01*
X147226099Y-121607180D01*
X147223448Y-121621912D01*
X147218313Y-121635098D01*
X147210117Y-121647056D01*
X147198283Y-121658106D01*
X147182236Y-121668566D01*
X147161399Y-121678755D01*
X147135194Y-121688993D01*
X147103045Y-121699597D01*
X147064376Y-121710887D01*
X147018610Y-121723182D01*
X146965170Y-121736801D01*
X146960167Y-121738052D01*
X146896410Y-121754734D01*
X146840541Y-121771097D01*
X146792006Y-121787470D01*
X146750250Y-121804187D01*
X146714720Y-121821577D01*
X146684861Y-121839972D01*
X146660120Y-121859702D01*
X146639943Y-121881100D01*
X146623775Y-121904495D01*
X146611063Y-121930220D01*
X146603464Y-121951242D01*
X146599683Y-121964386D01*
X146597056Y-121977015D01*
X146595394Y-121991106D01*
X146594504Y-122008633D01*
X146594196Y-122031574D01*
X146594205Y-122047000D01*
X146594372Y-122072342D01*
X146594850Y-122091179D01*
X146595902Y-122105476D01*
X146597789Y-122117194D01*
X146600773Y-122128295D01*
X146605115Y-122140744D01*
X146607583Y-122147309D01*
X146629553Y-122193796D01*
X146658167Y-122235143D01*
X146693245Y-122271220D01*
X146734605Y-122301898D01*
X146782067Y-122327047D01*
X146835449Y-122346537D01*
X146894573Y-122360240D01*
X146907796Y-122362385D01*
X146930099Y-122364861D01*
X146958135Y-122366666D01*
X146989191Y-122367740D01*
X147020554Y-122368028D01*
X147049514Y-122367472D01*
X147073356Y-122366015D01*
X147074467Y-122365907D01*
X147139614Y-122356588D01*
X147198014Y-122342201D01*
X147249747Y-122322686D01*
X147294893Y-122297981D01*
X147333534Y-122268025D01*
X147365751Y-122232756D01*
X147391623Y-122192114D01*
X147411232Y-122146036D01*
X147423382Y-122100889D01*
X147426647Y-122083428D01*
X147429028Y-122067547D01*
X147430057Y-122056416D01*
X147430067Y-122055645D01*
X147430067Y-122042767D01*
X147249193Y-122042767D01*
X147247022Y-122069814D01*
X147240150Y-122104179D01*
X147225754Y-122136031D01*
X147204705Y-122163928D01*
X147177873Y-122186424D01*
X147176067Y-122187590D01*
X147149710Y-122200921D01*
X147116967Y-122211919D01*
X147079725Y-122220060D01*
X147043657Y-122224529D01*
X146990846Y-122226242D01*
X146942789Y-122222663D01*
X146899854Y-122213989D01*
X146862410Y-122200420D01*
X146830823Y-122182155D01*
X146805461Y-122159391D01*
X146786692Y-122132327D01*
X146774884Y-122101164D01*
X146770962Y-122077095D01*
X146771219Y-122045308D01*
X146777526Y-122018164D01*
X146789668Y-121996374D01*
X146798101Y-121987495D01*
X146808049Y-121979617D01*
X146819839Y-121972089D01*
X146834198Y-121964656D01*
X146851853Y-121957063D01*
X146873530Y-121949056D01*
X146899956Y-121940380D01*
X146931859Y-121930780D01*
X146969965Y-121920001D01*
X147015000Y-121907789D01*
X147057534Y-121896546D01*
X147106695Y-121883454D01*
X147148521Y-121871813D01*
X147183954Y-121861292D01*
X147213936Y-121851562D01*
X147239410Y-121842290D01*
X147261317Y-121833146D01*
X147280600Y-121823801D01*
X147298201Y-121813922D01*
X147305202Y-121809608D01*
X147339212Y-121783821D01*
X147365938Y-121753864D01*
X147385693Y-121719301D01*
X147398765Y-121679796D01*
X147402516Y-121656391D01*
X147404339Y-121628361D01*
X147404331Y-121598117D01*
X147402589Y-121568069D01*
X147399209Y-121540629D01*
X147394287Y-121518208D01*
X147392025Y-121511483D01*
X147370934Y-121468277D01*
X147342836Y-121429604D01*
X147308013Y-121395691D01*
X147266747Y-121366766D01*
X147219322Y-121343055D01*
X147166021Y-121324787D01*
X147157017Y-121322398D01*
X147136272Y-121318443D01*
X147109034Y-121315230D01*
X147077251Y-121312824D01*
X147042869Y-121311290D01*
X147007836Y-121310694D01*
X146974098Y-121311101D01*
G36*
X148960417Y-121311541D02*
X148930308Y-121312526D01*
X148906645Y-121313806D01*
X148887411Y-121315601D01*
X148870584Y-121318133D01*
X148854147Y-121321623D01*
X148843129Y-121324401D01*
X148784519Y-121343900D01*
X148730999Y-121370128D01*
X148682724Y-121402936D01*
X148639844Y-121442175D01*
X148602514Y-121487697D01*
X148570884Y-121539354D01*
X148545108Y-121596996D01*
X148535775Y-121623855D01*
X148525019Y-121661272D01*
X148517040Y-121698370D01*
X148511453Y-121737590D01*
X148507873Y-121781373D01*
X148506617Y-121808332D01*
X148507030Y-121883846D01*
X148513852Y-121954811D01*
X148526922Y-122020995D01*
X148546077Y-122082166D01*
X148571155Y-122138092D01*
X148601992Y-122188541D01*
X148638426Y-122233280D01*
X148680295Y-122272079D01*
X148727437Y-122304704D01*
X148779688Y-122330924D01*
X148836886Y-122350506D01*
X148894783Y-122362618D01*
X148931686Y-122366492D01*
X148973050Y-122368034D01*
X149015199Y-122367256D01*
X149054458Y-122364165D01*
X149069276Y-122362169D01*
X149129809Y-122348665D01*
X149186428Y-122327768D01*
X149238735Y-122299767D01*
X149286329Y-122264954D01*
X149328810Y-122223620D01*
X149365778Y-122176056D01*
X149395915Y-122124397D01*
X149417869Y-122072919D01*
X149435397Y-122015138D01*
X149441635Y-121987884D01*
X149446052Y-121960384D01*
X149449444Y-121926640D01*
X149451764Y-121888820D01*
X149452448Y-121866096D01*
X149266775Y-121866096D01*
X149265520Y-121900579D01*
X149262937Y-121930300D01*
X149261634Y-121939643D01*
X149249373Y-121998324D01*
X149232234Y-122050182D01*
X149210153Y-122095358D01*
X149183070Y-122133990D01*
X149168064Y-122150463D01*
X149132526Y-122180476D01*
X149093070Y-122203179D01*
X149050321Y-122218409D01*
X149004903Y-122226003D01*
X148957437Y-122225799D01*
X148910094Y-122218009D01*
X148875314Y-122207051D01*
X148844369Y-122191432D01*
X148815001Y-122169840D01*
X148794832Y-122151132D01*
X148777302Y-122132872D01*
X148764204Y-122116946D01*
X148753381Y-122100370D01*
X148742678Y-122080160D01*
X148740805Y-122076331D01*
X148721140Y-122027618D01*
X148706410Y-121973416D01*
X148696780Y-121915229D01*
X148692414Y-121854564D01*
X148693478Y-121792925D01*
X148700135Y-121731818D01*
X148701932Y-121721033D01*
X148713760Y-121670578D01*
X148730660Y-121623424D01*
X148752021Y-121580876D01*
X148777232Y-121544242D01*
X148792912Y-121526686D01*
X148815203Y-121505847D01*
X148836698Y-121489953D01*
X148860349Y-121477163D01*
X148889111Y-121465636D01*
X148893149Y-121464215D01*
X148908712Y-121459139D01*
X148922348Y-121455778D01*
X148936598Y-121453785D01*
X148954003Y-121452817D01*
X148977107Y-121452529D01*
X148979467Y-121452525D01*
X149023108Y-121454571D01*
X149060894Y-121461248D01*
X149094436Y-121473188D01*
X149125341Y-121491024D01*
X149155219Y-121515388D01*
X149165972Y-121525817D01*
X149193938Y-121557896D01*
X149216774Y-121593071D01*
X149235230Y-121632803D01*
X149250058Y-121678550D01*
X149255194Y-121699083D01*
X149259695Y-121724447D01*
X149263163Y-121756026D01*
X149265538Y-121791624D01*
X149266762Y-121829046D01*
X149266775Y-121866096D01*
X149452448Y-121866096D01*
X149452960Y-121849090D01*
X149452984Y-121809617D01*
X149451787Y-121772567D01*
X149449319Y-121740107D01*
X149447592Y-121726262D01*
X149434152Y-121658652D01*
X149414547Y-121596327D01*
X149388938Y-121539496D01*
X149357485Y-121488370D01*
X149320347Y-121443160D01*
X149277685Y-121404076D01*
X149229657Y-121371328D01*
X149176426Y-121345128D01*
X149150434Y-121335399D01*
X149119377Y-121325749D01*
X149089867Y-121318755D01*
X149059787Y-121314150D01*
X149027020Y-121311670D01*
X148989446Y-121311048D01*
X148960417Y-121311541D01*
X148960417Y-121311541D01*
G37*
X148960417Y-121311541D02*
X148930308Y-121312526D01*
X148906645Y-121313806D01*
X148887411Y-121315601D01*
X148870584Y-121318133D01*
X148854147Y-121321623D01*
X148843129Y-121324401D01*
X148784519Y-121343900D01*
X148730999Y-121370128D01*
X148682724Y-121402936D01*
X148639844Y-121442175D01*
X148602514Y-121487697D01*
X148570884Y-121539354D01*
X148545108Y-121596996D01*
X148535775Y-121623855D01*
X148525019Y-121661272D01*
X148517040Y-121698370D01*
X148511453Y-121737590D01*
X148507873Y-121781373D01*
X148506617Y-121808332D01*
X148507030Y-121883846D01*
X148513852Y-121954811D01*
X148526922Y-122020995D01*
X148546077Y-122082166D01*
X148571155Y-122138092D01*
X148601992Y-122188541D01*
X148638426Y-122233280D01*
X148680295Y-122272079D01*
X148727437Y-122304704D01*
X148779688Y-122330924D01*
X148836886Y-122350506D01*
X148894783Y-122362618D01*
X148931686Y-122366492D01*
X148973050Y-122368034D01*
X149015199Y-122367256D01*
X149054458Y-122364165D01*
X149069276Y-122362169D01*
X149129809Y-122348665D01*
X149186428Y-122327768D01*
X149238735Y-122299767D01*
X149286329Y-122264954D01*
X149328810Y-122223620D01*
X149365778Y-122176056D01*
X149395915Y-122124397D01*
X149417869Y-122072919D01*
X149435397Y-122015138D01*
X149441635Y-121987884D01*
X149446052Y-121960384D01*
X149449444Y-121926640D01*
X149451764Y-121888820D01*
X149452448Y-121866096D01*
X149266775Y-121866096D01*
X149265520Y-121900579D01*
X149262937Y-121930300D01*
X149261634Y-121939643D01*
X149249373Y-121998324D01*
X149232234Y-122050182D01*
X149210153Y-122095358D01*
X149183070Y-122133990D01*
X149168064Y-122150463D01*
X149132526Y-122180476D01*
X149093070Y-122203179D01*
X149050321Y-122218409D01*
X149004903Y-122226003D01*
X148957437Y-122225799D01*
X148910094Y-122218009D01*
X148875314Y-122207051D01*
X148844369Y-122191432D01*
X148815001Y-122169840D01*
X148794832Y-122151132D01*
X148777302Y-122132872D01*
X148764204Y-122116946D01*
X148753381Y-122100370D01*
X148742678Y-122080160D01*
X148740805Y-122076331D01*
X148721140Y-122027618D01*
X148706410Y-121973416D01*
X148696780Y-121915229D01*
X148692414Y-121854564D01*
X148693478Y-121792925D01*
X148700135Y-121731818D01*
X148701932Y-121721033D01*
X148713760Y-121670578D01*
X148730660Y-121623424D01*
X148752021Y-121580876D01*
X148777232Y-121544242D01*
X148792912Y-121526686D01*
X148815203Y-121505847D01*
X148836698Y-121489953D01*
X148860349Y-121477163D01*
X148889111Y-121465636D01*
X148893149Y-121464215D01*
X148908712Y-121459139D01*
X148922348Y-121455778D01*
X148936598Y-121453785D01*
X148954003Y-121452817D01*
X148977107Y-121452529D01*
X148979467Y-121452525D01*
X149023108Y-121454571D01*
X149060894Y-121461248D01*
X149094436Y-121473188D01*
X149125341Y-121491024D01*
X149155219Y-121515388D01*
X149165972Y-121525817D01*
X149193938Y-121557896D01*
X149216774Y-121593071D01*
X149235230Y-121632803D01*
X149250058Y-121678550D01*
X149255194Y-121699083D01*
X149259695Y-121724447D01*
X149263163Y-121756026D01*
X149265538Y-121791624D01*
X149266762Y-121829046D01*
X149266775Y-121866096D01*
X149452448Y-121866096D01*
X149452960Y-121849090D01*
X149452984Y-121809617D01*
X149451787Y-121772567D01*
X149449319Y-121740107D01*
X149447592Y-121726262D01*
X149434152Y-121658652D01*
X149414547Y-121596327D01*
X149388938Y-121539496D01*
X149357485Y-121488370D01*
X149320347Y-121443160D01*
X149277685Y-121404076D01*
X149229657Y-121371328D01*
X149176426Y-121345128D01*
X149150434Y-121335399D01*
X149119377Y-121325749D01*
X149089867Y-121318755D01*
X149059787Y-121314150D01*
X149027020Y-121311670D01*
X148989446Y-121311048D01*
X148960417Y-121311541D01*
G36*
X150810840Y-121310794D02*
X150777172Y-121311843D01*
X150748008Y-121313681D01*
X150734184Y-121315093D01*
X150676646Y-121325128D01*
X150625694Y-121340425D01*
X150581150Y-121361155D01*
X150542834Y-121387489D01*
X150510568Y-121419597D01*
X150484172Y-121457651D01*
X150463467Y-121501823D01*
X150448275Y-121552282D01*
X150440132Y-121596150D01*
X150439383Y-121605738D01*
X150438690Y-121623317D01*
X150438059Y-121648414D01*
X150437495Y-121680553D01*
X150437004Y-121719259D01*
X150436590Y-121764059D01*
X150436259Y-121814476D01*
X150436016Y-121870037D01*
X150435867Y-121930266D01*
X150435818Y-121984558D01*
X150435734Y-122343333D01*
X150613265Y-122343333D01*
X150614458Y-122294624D01*
X150615651Y-122245914D01*
X150646911Y-122269442D01*
X150694152Y-122300182D01*
X150747034Y-122325930D01*
X150803945Y-122346062D01*
X150863272Y-122359952D01*
X150890817Y-122364059D01*
X150918211Y-122366513D01*
X150948927Y-122367821D01*
X150980118Y-122367974D01*
X151008939Y-122366965D01*
X151032543Y-122364784D01*
X151034751Y-122364465D01*
X151085613Y-122353404D01*
X151133192Y-122336438D01*
X151176602Y-122314121D01*
X151214961Y-122287009D01*
X151247385Y-122255657D01*
X151272992Y-122220621D01*
X151278193Y-122211410D01*
X151292278Y-122182390D01*
X151301753Y-122155714D01*
X151307547Y-122127972D01*
X151310586Y-122095755D01*
X151310808Y-122091450D01*
X151310171Y-122057692D01*
X151129425Y-122057692D01*
X151127485Y-122089721D01*
X151120146Y-122120181D01*
X151107858Y-122146846D01*
X151098459Y-122159909D01*
X151073148Y-122183181D01*
X151041619Y-122201700D01*
X151004808Y-122215244D01*
X150963650Y-122223590D01*
X150919079Y-122226515D01*
X150872033Y-122223797D01*
X150846367Y-122219983D01*
X150798144Y-122207714D01*
X150748536Y-122187909D01*
X150730004Y-122178793D01*
X150709015Y-122167052D01*
X150690258Y-122154208D01*
X150671111Y-122138305D01*
X150652740Y-122121083D01*
X150613523Y-122082983D01*
X150613529Y-121969742D01*
X150613534Y-121856500D01*
X150719150Y-121856500D01*
X150771312Y-121856984D01*
X150816335Y-121858518D01*
X150855493Y-121861227D01*
X150890063Y-121865236D01*
X150921322Y-121870668D01*
X150950545Y-121877649D01*
X150958228Y-121879808D01*
X151005197Y-121896495D01*
X151044699Y-121917170D01*
X151076737Y-121941836D01*
X151101314Y-121970494D01*
X151118431Y-122003148D01*
X151125514Y-122026319D01*
X151129425Y-122057692D01*
X151310171Y-122057692D01*
X151309800Y-122038101D01*
X151301439Y-121988915D01*
X151285720Y-121943889D01*
X151262642Y-121903019D01*
X151232199Y-121866303D01*
X151194388Y-121833737D01*
X151149206Y-121805318D01*
X151096649Y-121781043D01*
X151036713Y-121760909D01*
X150969394Y-121744914D01*
X150894690Y-121733052D01*
X150884467Y-121731818D01*
X150863378Y-121729774D01*
X150835915Y-121727737D01*
X150804171Y-121725828D01*
X150770238Y-121724166D01*
X150736209Y-121722870D01*
X150720426Y-121722414D01*
X150613534Y-121719678D01*
X150613609Y-121683314D01*
X150615198Y-121634683D01*
X150620013Y-121593371D01*
X150628451Y-121558718D01*
X150640909Y-121530062D01*
X150657785Y-121506743D01*
X150679476Y-121488100D01*
X150706378Y-121473473D01*
X150738890Y-121462199D01*
X150747942Y-121459827D01*
X150767424Y-121456441D01*
X150793158Y-121454042D01*
X150823019Y-121452629D01*
X150854881Y-121452200D01*
X150886618Y-121452755D01*
X150916104Y-121454294D01*
X150941214Y-121456815D01*
X150958277Y-121459913D01*
X150999513Y-121473647D01*
X151034092Y-121492454D01*
X151061928Y-121516248D01*
X151082933Y-121544943D01*
X151097020Y-121578453D01*
X151102571Y-121603725D01*
X151105562Y-121623667D01*
X151286472Y-121623667D01*
X151284085Y-121603558D01*
X151274444Y-121551365D01*
X151258597Y-121504085D01*
X151236745Y-121462191D01*
X151209092Y-121426160D01*
X151207531Y-121424489D01*
X151175055Y-121394579D01*
X151138428Y-121369635D01*
X151096823Y-121349278D01*
X151049413Y-121333134D01*
X150995372Y-121320824D01*
X150971251Y-121316820D01*
X150947416Y-121314164D01*
X150917301Y-121312217D01*
X150883062Y-121310996D01*
X150846856Y-121310517D01*
X150810840Y-121310794D01*
X150810840Y-121310794D01*
G37*
X150810840Y-121310794D02*
X150777172Y-121311843D01*
X150748008Y-121313681D01*
X150734184Y-121315093D01*
X150676646Y-121325128D01*
X150625694Y-121340425D01*
X150581150Y-121361155D01*
X150542834Y-121387489D01*
X150510568Y-121419597D01*
X150484172Y-121457651D01*
X150463467Y-121501823D01*
X150448275Y-121552282D01*
X150440132Y-121596150D01*
X150439383Y-121605738D01*
X150438690Y-121623317D01*
X150438059Y-121648414D01*
X150437495Y-121680553D01*
X150437004Y-121719259D01*
X150436590Y-121764059D01*
X150436259Y-121814476D01*
X150436016Y-121870037D01*
X150435867Y-121930266D01*
X150435818Y-121984558D01*
X150435734Y-122343333D01*
X150613265Y-122343333D01*
X150614458Y-122294624D01*
X150615651Y-122245914D01*
X150646911Y-122269442D01*
X150694152Y-122300182D01*
X150747034Y-122325930D01*
X150803945Y-122346062D01*
X150863272Y-122359952D01*
X150890817Y-122364059D01*
X150918211Y-122366513D01*
X150948927Y-122367821D01*
X150980118Y-122367974D01*
X151008939Y-122366965D01*
X151032543Y-122364784D01*
X151034751Y-122364465D01*
X151085613Y-122353404D01*
X151133192Y-122336438D01*
X151176602Y-122314121D01*
X151214961Y-122287009D01*
X151247385Y-122255657D01*
X151272992Y-122220621D01*
X151278193Y-122211410D01*
X151292278Y-122182390D01*
X151301753Y-122155714D01*
X151307547Y-122127972D01*
X151310586Y-122095755D01*
X151310808Y-122091450D01*
X151310171Y-122057692D01*
X151129425Y-122057692D01*
X151127485Y-122089721D01*
X151120146Y-122120181D01*
X151107858Y-122146846D01*
X151098459Y-122159909D01*
X151073148Y-122183181D01*
X151041619Y-122201700D01*
X151004808Y-122215244D01*
X150963650Y-122223590D01*
X150919079Y-122226515D01*
X150872033Y-122223797D01*
X150846367Y-122219983D01*
X150798144Y-122207714D01*
X150748536Y-122187909D01*
X150730004Y-122178793D01*
X150709015Y-122167052D01*
X150690258Y-122154208D01*
X150671111Y-122138305D01*
X150652740Y-122121083D01*
X150613523Y-122082983D01*
X150613529Y-121969742D01*
X150613534Y-121856500D01*
X150719150Y-121856500D01*
X150771312Y-121856984D01*
X150816335Y-121858518D01*
X150855493Y-121861227D01*
X150890063Y-121865236D01*
X150921322Y-121870668D01*
X150950545Y-121877649D01*
X150958228Y-121879808D01*
X151005197Y-121896495D01*
X151044699Y-121917170D01*
X151076737Y-121941836D01*
X151101314Y-121970494D01*
X151118431Y-122003148D01*
X151125514Y-122026319D01*
X151129425Y-122057692D01*
X151310171Y-122057692D01*
X151309800Y-122038101D01*
X151301439Y-121988915D01*
X151285720Y-121943889D01*
X151262642Y-121903019D01*
X151232199Y-121866303D01*
X151194388Y-121833737D01*
X151149206Y-121805318D01*
X151096649Y-121781043D01*
X151036713Y-121760909D01*
X150969394Y-121744914D01*
X150894690Y-121733052D01*
X150884467Y-121731818D01*
X150863378Y-121729774D01*
X150835915Y-121727737D01*
X150804171Y-121725828D01*
X150770238Y-121724166D01*
X150736209Y-121722870D01*
X150720426Y-121722414D01*
X150613534Y-121719678D01*
X150613609Y-121683314D01*
X150615198Y-121634683D01*
X150620013Y-121593371D01*
X150628451Y-121558718D01*
X150640909Y-121530062D01*
X150657785Y-121506743D01*
X150679476Y-121488100D01*
X150706378Y-121473473D01*
X150738890Y-121462199D01*
X150747942Y-121459827D01*
X150767424Y-121456441D01*
X150793158Y-121454042D01*
X150823019Y-121452629D01*
X150854881Y-121452200D01*
X150886618Y-121452755D01*
X150916104Y-121454294D01*
X150941214Y-121456815D01*
X150958277Y-121459913D01*
X150999513Y-121473647D01*
X151034092Y-121492454D01*
X151061928Y-121516248D01*
X151082933Y-121544943D01*
X151097020Y-121578453D01*
X151102571Y-121603725D01*
X151105562Y-121623667D01*
X151286472Y-121623667D01*
X151284085Y-121603558D01*
X151274444Y-121551365D01*
X151258597Y-121504085D01*
X151236745Y-121462191D01*
X151209092Y-121426160D01*
X151207531Y-121424489D01*
X151175055Y-121394579D01*
X151138428Y-121369635D01*
X151096823Y-121349278D01*
X151049413Y-121333134D01*
X150995372Y-121320824D01*
X150971251Y-121316820D01*
X150947416Y-121314164D01*
X150917301Y-121312217D01*
X150883062Y-121310996D01*
X150846856Y-121310517D01*
X150810840Y-121310794D01*
G36*
X152451624Y-121311112D02*
X152425400Y-121311645D01*
X152395376Y-121312531D01*
X152371847Y-121313673D01*
X152352844Y-121315283D01*
X152336396Y-121317575D01*
X152320531Y-121320759D01*
X152304751Y-121324663D01*
X152246353Y-121344049D01*
X152193020Y-121370144D01*
X152144907Y-121402763D01*
X152102166Y-121441720D01*
X152064949Y-121486829D01*
X152033409Y-121537905D01*
X152007700Y-121594762D01*
X151987974Y-121657214D01*
X151974385Y-121725075D01*
X151974209Y-121726262D01*
X151971087Y-121755611D01*
X151969260Y-121790634D01*
X151968679Y-121829166D01*
X151969295Y-121869038D01*
X151971059Y-121908085D01*
X151973920Y-121944140D01*
X151977830Y-121975036D01*
X151980166Y-121987884D01*
X151997451Y-122053590D01*
X152020755Y-122113564D01*
X152049942Y-122167660D01*
X152084876Y-122215733D01*
X152125420Y-122257638D01*
X152171437Y-122293228D01*
X152222792Y-122322360D01*
X152279347Y-122344888D01*
X152328034Y-122358011D01*
X152347143Y-122361086D01*
X152372430Y-122363606D01*
X152401623Y-122365493D01*
X152432446Y-122366670D01*
X152462626Y-122367060D01*
X152489888Y-122366585D01*
X152511958Y-122365168D01*
X152517788Y-122364470D01*
X152580546Y-122351805D01*
X152638541Y-122332198D01*
X152691605Y-122305819D01*
X152739572Y-122272838D01*
X152782272Y-122233425D01*
X152819540Y-122187748D01*
X152851206Y-122135979D01*
X152877104Y-122078285D01*
X152897066Y-122014837D01*
X152906740Y-121970800D01*
X152910629Y-121942568D01*
X152913255Y-121908117D01*
X152914634Y-121869599D01*
X152914784Y-121829162D01*
X152914276Y-121809933D01*
X152728845Y-121809933D01*
X152728723Y-121880182D01*
X152722672Y-121944389D01*
X152710691Y-122002558D01*
X152692779Y-122054691D01*
X152668934Y-122100792D01*
X152639157Y-122140863D01*
X152624419Y-122156347D01*
X152589979Y-122184159D01*
X152551086Y-122205162D01*
X152508590Y-122219147D01*
X152463337Y-122225907D01*
X152416176Y-122225235D01*
X152372484Y-122218028D01*
X152329784Y-122203751D01*
X152291289Y-122182266D01*
X152257165Y-122153805D01*
X152227579Y-122118603D01*
X152202697Y-122076893D01*
X152182686Y-122028906D01*
X152167712Y-121974878D01*
X152158274Y-121917919D01*
X152156055Y-121889660D01*
X152155186Y-121856163D01*
X152155584Y-121819993D01*
X152157166Y-121783713D01*
X152159848Y-121749887D01*
X152163546Y-121721079D01*
X152164956Y-121713203D01*
X152179046Y-121658029D01*
X152198404Y-121608836D01*
X152222832Y-121565856D01*
X152252132Y-121529322D01*
X152286107Y-121499465D01*
X152324557Y-121476518D01*
X152367285Y-121460712D01*
X152383947Y-121456759D01*
X152432264Y-121450783D01*
X152479079Y-121452652D01*
X152523667Y-121462164D01*
X152565301Y-121479120D01*
X152603256Y-121503320D01*
X152626295Y-121523516D01*
X152656380Y-121558248D01*
X152681041Y-121597700D01*
X152700453Y-121642356D01*
X152714791Y-121692705D01*
X152724228Y-121749233D01*
X152728845Y-121809933D01*
X152914276Y-121809933D01*
X152913721Y-121788959D01*
X152911462Y-121751139D01*
X152908025Y-121717853D01*
X152904580Y-121696637D01*
X152887650Y-121629866D01*
X152864868Y-121569080D01*
X152836319Y-121514370D01*
X152802087Y-121465825D01*
X152762257Y-121423532D01*
X152716914Y-121387583D01*
X152666141Y-121358065D01*
X152610024Y-121335069D01*
X152548647Y-121318683D01*
X152546050Y-121318160D01*
X152528854Y-121315015D01*
X152512787Y-121312844D01*
X152495876Y-121311542D01*
X152476147Y-121310999D01*
X152451624Y-121311112D01*
X152451624Y-121311112D01*
G37*
X152451624Y-121311112D02*
X152425400Y-121311645D01*
X152395376Y-121312531D01*
X152371847Y-121313673D01*
X152352844Y-121315283D01*
X152336396Y-121317575D01*
X152320531Y-121320759D01*
X152304751Y-121324663D01*
X152246353Y-121344049D01*
X152193020Y-121370144D01*
X152144907Y-121402763D01*
X152102166Y-121441720D01*
X152064949Y-121486829D01*
X152033409Y-121537905D01*
X152007700Y-121594762D01*
X151987974Y-121657214D01*
X151974385Y-121725075D01*
X151974209Y-121726262D01*
X151971087Y-121755611D01*
X151969260Y-121790634D01*
X151968679Y-121829166D01*
X151969295Y-121869038D01*
X151971059Y-121908085D01*
X151973920Y-121944140D01*
X151977830Y-121975036D01*
X151980166Y-121987884D01*
X151997451Y-122053590D01*
X152020755Y-122113564D01*
X152049942Y-122167660D01*
X152084876Y-122215733D01*
X152125420Y-122257638D01*
X152171437Y-122293228D01*
X152222792Y-122322360D01*
X152279347Y-122344888D01*
X152328034Y-122358011D01*
X152347143Y-122361086D01*
X152372430Y-122363606D01*
X152401623Y-122365493D01*
X152432446Y-122366670D01*
X152462626Y-122367060D01*
X152489888Y-122366585D01*
X152511958Y-122365168D01*
X152517788Y-122364470D01*
X152580546Y-122351805D01*
X152638541Y-122332198D01*
X152691605Y-122305819D01*
X152739572Y-122272838D01*
X152782272Y-122233425D01*
X152819540Y-122187748D01*
X152851206Y-122135979D01*
X152877104Y-122078285D01*
X152897066Y-122014837D01*
X152906740Y-121970800D01*
X152910629Y-121942568D01*
X152913255Y-121908117D01*
X152914634Y-121869599D01*
X152914784Y-121829162D01*
X152914276Y-121809933D01*
X152728845Y-121809933D01*
X152728723Y-121880182D01*
X152722672Y-121944389D01*
X152710691Y-122002558D01*
X152692779Y-122054691D01*
X152668934Y-122100792D01*
X152639157Y-122140863D01*
X152624419Y-122156347D01*
X152589979Y-122184159D01*
X152551086Y-122205162D01*
X152508590Y-122219147D01*
X152463337Y-122225907D01*
X152416176Y-122225235D01*
X152372484Y-122218028D01*
X152329784Y-122203751D01*
X152291289Y-122182266D01*
X152257165Y-122153805D01*
X152227579Y-122118603D01*
X152202697Y-122076893D01*
X152182686Y-122028906D01*
X152167712Y-121974878D01*
X152158274Y-121917919D01*
X152156055Y-121889660D01*
X152155186Y-121856163D01*
X152155584Y-121819993D01*
X152157166Y-121783713D01*
X152159848Y-121749887D01*
X152163546Y-121721079D01*
X152164956Y-121713203D01*
X152179046Y-121658029D01*
X152198404Y-121608836D01*
X152222832Y-121565856D01*
X152252132Y-121529322D01*
X152286107Y-121499465D01*
X152324557Y-121476518D01*
X152367285Y-121460712D01*
X152383947Y-121456759D01*
X152432264Y-121450783D01*
X152479079Y-121452652D01*
X152523667Y-121462164D01*
X152565301Y-121479120D01*
X152603256Y-121503320D01*
X152626295Y-121523516D01*
X152656380Y-121558248D01*
X152681041Y-121597700D01*
X152700453Y-121642356D01*
X152714791Y-121692705D01*
X152724228Y-121749233D01*
X152728845Y-121809933D01*
X152914276Y-121809933D01*
X152913721Y-121788959D01*
X152911462Y-121751139D01*
X152908025Y-121717853D01*
X152904580Y-121696637D01*
X152887650Y-121629866D01*
X152864868Y-121569080D01*
X152836319Y-121514370D01*
X152802087Y-121465825D01*
X152762257Y-121423532D01*
X152716914Y-121387583D01*
X152666141Y-121358065D01*
X152610024Y-121335069D01*
X152548647Y-121318683D01*
X152546050Y-121318160D01*
X152528854Y-121315015D01*
X152512787Y-121312844D01*
X152495876Y-121311542D01*
X152476147Y-121310999D01*
X152451624Y-121311112D01*
G36*
X157531209Y-119432477D02*
X157508621Y-119435916D01*
X157488255Y-119439490D01*
X157457810Y-119445570D01*
X157434758Y-119451695D01*
X157418036Y-119458323D01*
X157406581Y-119465913D01*
X157399331Y-119474924D01*
X157397520Y-119478663D01*
X157393063Y-119493619D01*
X157389101Y-119514989D01*
X157385883Y-119540722D01*
X157383655Y-119568770D01*
X157382662Y-119597082D01*
X157382634Y-119602429D01*
X157379947Y-119642269D01*
X157371630Y-119676108D01*
X157357297Y-119704591D01*
X157336563Y-119728363D01*
X157309041Y-119748069D01*
X157289697Y-119757945D01*
X157269438Y-119765569D01*
X157248315Y-119771038D01*
X157237174Y-119772711D01*
X157229385Y-119773330D01*
X157222464Y-119773357D01*
X157215315Y-119772379D01*
X157206840Y-119769986D01*
X157195944Y-119765766D01*
X157181527Y-119759308D01*
X157162494Y-119750201D01*
X157137748Y-119738034D01*
X157116244Y-119727379D01*
X157020260Y-119679784D01*
X157001759Y-119684766D01*
X156993352Y-119687853D01*
X156984146Y-119693200D01*
X156972994Y-119701710D01*
X156958748Y-119714287D01*
X156940259Y-119731837D01*
X156932768Y-119739132D01*
X156915383Y-119756471D01*
X156899826Y-119772613D01*
X156887276Y-119786287D01*
X156878909Y-119796223D01*
X156876267Y-119800086D01*
X156874671Y-119803640D01*
X156874043Y-119807429D01*
X156874824Y-119812304D01*
X156877454Y-119819120D01*
X156882374Y-119828729D01*
X156890024Y-119841984D01*
X156900846Y-119859738D01*
X156915279Y-119882844D01*
X156933765Y-119912155D01*
X156935946Y-119915606D01*
X156952757Y-119942478D01*
X156967978Y-119967323D01*
X156981037Y-119989166D01*
X156991362Y-120007032D01*
X156998380Y-120019946D01*
X157001520Y-120026932D01*
X157001634Y-120027584D01*
X156999683Y-120035720D01*
X156994402Y-120049378D01*
X156986643Y-120066863D01*
X156977262Y-120086479D01*
X156967112Y-120106531D01*
X156957048Y-120125325D01*
X156947925Y-120141164D01*
X156940596Y-120152354D01*
X156936450Y-120156922D01*
X156928583Y-120159725D01*
X156912576Y-120163254D01*
X156888718Y-120167458D01*
X156857300Y-120172286D01*
X156818612Y-120177690D01*
X156807284Y-120179198D01*
X156688126Y-120194916D01*
X156684298Y-120209733D01*
X156682438Y-120219653D01*
X156680273Y-120235472D01*
X156677951Y-120255538D01*
X156675622Y-120278195D01*
X156673432Y-120301791D01*
X156671532Y-120324670D01*
X156670068Y-120345180D01*
X156669189Y-120361666D01*
X156669044Y-120372475D01*
X156669414Y-120375677D01*
X156673996Y-120379448D01*
X156685006Y-120385697D01*
X156701008Y-120393768D01*
X156720567Y-120403003D01*
X156742244Y-120412748D01*
X156764604Y-120422346D01*
X156786209Y-120431142D01*
X156805625Y-120438478D01*
X156811215Y-120440436D01*
X156838900Y-120450891D01*
X156860214Y-120461459D01*
X156877191Y-120473280D01*
X156888140Y-120483483D01*
X156895824Y-120491811D01*
X156901889Y-120499732D01*
X156906679Y-120508484D01*
X156910537Y-120519302D01*
X156913804Y-120533423D01*
X156916824Y-120552084D01*
X156919939Y-120576521D01*
X156923491Y-120607971D01*
X156924055Y-120613116D01*
X156924813Y-120627887D01*
X156924094Y-120641041D01*
X156923427Y-120644720D01*
X156919526Y-120651299D01*
X156910120Y-120663051D01*
X156895817Y-120679293D01*
X156877226Y-120699343D01*
X156854956Y-120722517D01*
X156844962Y-120732704D01*
X156818993Y-120759397D01*
X156797809Y-120781956D01*
X156781761Y-120799986D01*
X156771197Y-120813093D01*
X156766468Y-120820884D01*
X156766338Y-120821321D01*
X156766865Y-120832700D01*
X156772360Y-120850098D01*
X156782550Y-120872887D01*
X156797163Y-120900435D01*
X156810346Y-120922990D01*
X156826115Y-120947285D01*
X156839903Y-120964333D01*
X156852499Y-120974888D01*
X156864695Y-120979704D01*
X156870344Y-120980200D01*
X156883092Y-120979010D01*
X156903074Y-120975566D01*
X156929416Y-120970054D01*
X156961246Y-120962660D01*
X156997688Y-120953570D01*
X157009886Y-120950411D01*
X157046019Y-120943859D01*
X157078535Y-120944381D01*
X157108759Y-120952177D01*
X157138015Y-120967447D01*
X157142382Y-120970381D01*
X157156760Y-120982319D01*
X157172624Y-120998637D01*
X157188056Y-121017021D01*
X157201140Y-121035154D01*
X157209959Y-121050722D01*
X157211046Y-121053334D01*
X157218058Y-121071693D01*
X157190813Y-121111672D01*
X157158582Y-121160732D01*
X157124458Y-121215917D01*
X157088956Y-121276205D01*
X157052586Y-121340575D01*
X157015864Y-121408004D01*
X156979300Y-121477469D01*
X156943410Y-121547949D01*
X156908705Y-121618423D01*
X156875698Y-121687866D01*
X156844903Y-121755259D01*
X156816833Y-121819578D01*
X156791999Y-121879802D01*
X156770916Y-121934908D01*
X156755946Y-121978132D01*
X156742916Y-122021133D01*
X156730122Y-122068754D01*
X156718379Y-122117653D01*
X156708503Y-122164490D01*
X156703005Y-122195059D01*
X156698146Y-122238274D01*
X156698834Y-122275795D01*
X156705241Y-122308467D01*
X156717535Y-122337134D01*
X156735889Y-122362644D01*
X156737020Y-122363909D01*
X156759907Y-122383443D01*
X156787723Y-122398021D01*
X156818370Y-122407101D01*
X156849754Y-122410144D01*
X156879778Y-122406609D01*
X156890352Y-122403444D01*
X156909945Y-122395216D01*
X156928705Y-122384548D01*
X156947464Y-122370664D01*
X156967054Y-122352790D01*
X156988306Y-122330151D01*
X157012053Y-122301974D01*
X157039126Y-122267482D01*
X157045841Y-122258667D01*
X157105493Y-122174079D01*
X157160794Y-122083305D01*
X157212044Y-121985816D01*
X157255126Y-121891501D01*
X157265766Y-121866057D01*
X157277900Y-121835992D01*
X157291679Y-121800908D01*
X157307252Y-121760408D01*
X157324769Y-121714094D01*
X157344379Y-121661570D01*
X157366233Y-121602437D01*
X157390481Y-121536299D01*
X157417271Y-121462757D01*
X157431849Y-121422583D01*
X157449714Y-121373497D01*
X157465016Y-121331920D01*
X157477951Y-121297357D01*
X157488716Y-121269313D01*
X157497506Y-121247293D01*
X157504516Y-121230801D01*
X157509944Y-121219343D01*
X157513984Y-121212422D01*
X157515883Y-121210189D01*
X157531585Y-121201120D01*
X157553137Y-121195433D01*
X157578598Y-121193203D01*
X157606026Y-121194501D01*
X157633478Y-121199400D01*
X157651864Y-121205085D01*
X157678282Y-121219232D01*
X157702524Y-121240578D01*
X157723418Y-121267916D01*
X157736402Y-121292104D01*
X157751846Y-121325290D01*
X157766481Y-121354880D01*
X157779721Y-121379766D01*
X157790980Y-121398841D01*
X157798736Y-121409882D01*
X157807082Y-121418479D01*
X157816566Y-121424134D01*
X157828615Y-121427014D01*
X157844653Y-121427286D01*
X157866106Y-121425119D01*
X157892868Y-121420942D01*
X157924041Y-121415138D01*
X157947780Y-121409500D01*
X157965104Y-121403675D01*
X157977031Y-121397311D01*
X157984577Y-121390056D01*
X157985337Y-121388957D01*
X157991088Y-121375533D01*
X157995958Y-121354102D01*
X157999963Y-121324547D01*
X158003122Y-121286750D01*
X158004565Y-121261175D01*
X158005928Y-121235698D01*
X158007365Y-121216884D01*
X158009175Y-121202933D01*
X158011659Y-121192046D01*
X158015115Y-121182422D01*
X158019088Y-121173793D01*
X158036099Y-121147930D01*
X158059502Y-121125074D01*
X158087406Y-121106466D01*
X158117923Y-121093346D01*
X158149161Y-121086955D01*
X158151592Y-121086774D01*
X158158056Y-121086352D01*
X158163809Y-121086213D01*
X158169607Y-121086682D01*
X158176210Y-121088088D01*
X158184373Y-121090757D01*
X158194855Y-121095015D01*
X158208414Y-121101190D01*
X158225807Y-121109608D01*
X158247791Y-121120596D01*
X158275124Y-121134482D01*
X158308564Y-121151592D01*
X158344382Y-121169952D01*
X158361274Y-121177925D01*
X158373283Y-121181708D01*
X158382507Y-121181901D01*
X158384580Y-121181470D01*
X158391790Y-121177396D01*
X158403477Y-121168265D01*
X158418412Y-121155276D01*
X158435369Y-121139627D01*
X158453119Y-121122519D01*
X158470435Y-121105150D01*
X158486089Y-121088719D01*
X158498854Y-121074427D01*
X158507501Y-121063471D01*
X158510388Y-121058577D01*
X158512390Y-121052686D01*
X158512555Y-121047019D01*
X158510245Y-121039960D01*
X158504823Y-121029896D01*
X158495650Y-121015212D01*
X158489475Y-121005660D01*
X158474967Y-120983684D01*
X158458230Y-120958898D01*
X158442007Y-120935347D01*
X158435513Y-120926098D01*
X158414779Y-120893758D01*
X158401114Y-120864857D01*
X158394326Y-120838478D01*
X158394223Y-120813705D01*
X158400613Y-120789621D01*
X158404920Y-120780024D01*
X158420863Y-120749141D01*
X158434178Y-120725721D01*
X158444765Y-120709924D01*
X158452387Y-120702006D01*
X158458968Y-120699846D01*
X158472907Y-120696876D01*
X158493154Y-120693272D01*
X158518656Y-120689211D01*
X158548363Y-120684870D01*
X158576990Y-120680982D01*
X158615646Y-120675752D01*
X158646321Y-120671253D01*
X158669460Y-120667406D01*
X158685512Y-120664131D01*
X158694921Y-120661350D01*
X158697849Y-120659590D01*
X158700831Y-120652365D01*
X158703704Y-120639568D01*
X158705694Y-120625250D01*
X158707390Y-120608985D01*
X158709701Y-120587520D01*
X158712278Y-120564066D01*
X158714029Y-120548400D01*
X158716531Y-120525955D01*
X158717723Y-120508725D01*
X158716740Y-120495530D01*
X158712715Y-120485188D01*
X158704783Y-120476518D01*
X158692077Y-120468338D01*
X158673732Y-120459467D01*
X158648881Y-120448724D01*
X158637381Y-120443832D01*
X158612639Y-120433362D01*
X158599196Y-120427750D01*
X158174267Y-120427750D01*
X158170161Y-120491669D01*
X158157974Y-120553396D01*
X158137900Y-120612438D01*
X158110137Y-120668304D01*
X158074879Y-120720501D01*
X158043041Y-120757574D01*
X157996032Y-120801233D01*
X157944890Y-120837688D01*
X157890184Y-120866743D01*
X157832482Y-120888202D01*
X157772353Y-120901869D01*
X157710364Y-120907548D01*
X157647085Y-120905044D01*
X157623934Y-120902076D01*
X157562691Y-120888646D01*
X157504358Y-120867687D01*
X157449569Y-120839723D01*
X157398960Y-120805279D01*
X157353164Y-120764880D01*
X157312816Y-120719051D01*
X157278549Y-120668316D01*
X157250999Y-120613202D01*
X157240016Y-120584383D01*
X157223212Y-120522803D01*
X157214793Y-120460670D01*
X157214730Y-120398397D01*
X157222997Y-120336402D01*
X157239565Y-120275099D01*
X157264128Y-120215482D01*
X157294795Y-120161520D01*
X157331296Y-120113170D01*
X157372961Y-120070622D01*
X157419118Y-120034066D01*
X157469099Y-120003695D01*
X157522232Y-119979699D01*
X157577847Y-119962268D01*
X157635275Y-119951593D01*
X157693844Y-119947866D01*
X157752884Y-119951277D01*
X157811726Y-119962018D01*
X157869698Y-119980278D01*
X157926131Y-120006249D01*
X157950219Y-120020118D01*
X157971625Y-120035030D01*
X157995956Y-120054871D01*
X158021382Y-120077873D01*
X158046070Y-120102272D01*
X158068190Y-120126300D01*
X158085912Y-120148192D01*
X158091925Y-120156816D01*
X158124609Y-120214225D01*
X158149104Y-120273631D01*
X158165370Y-120334911D01*
X158173372Y-120397941D01*
X158174267Y-120427750D01*
X158599196Y-120427750D01*
X158588811Y-120423415D01*
X158567704Y-120414735D01*
X158551125Y-120408066D01*
X158542349Y-120404684D01*
X158521790Y-120394989D01*
X158505278Y-120381928D01*
X158491776Y-120364182D01*
X158480244Y-120340430D01*
X158471070Y-120314062D01*
X158463295Y-120276652D01*
X158463688Y-120241422D01*
X158471245Y-120210950D01*
X158475132Y-120201736D01*
X158480212Y-120192648D01*
X158487366Y-120182601D01*
X158497473Y-120170511D01*
X158511414Y-120155295D01*
X158530069Y-120135869D01*
X158542704Y-120122950D01*
X158561858Y-120103134D01*
X158579306Y-120084504D01*
X158594032Y-120068191D01*
X158605020Y-120055327D01*
X158611254Y-120047042D01*
X158611910Y-120045902D01*
X158617602Y-120029685D01*
X158617542Y-120013110D01*
X158611594Y-119993776D01*
X158608527Y-119986834D01*
X158602051Y-119974467D01*
X158592676Y-119958476D01*
X158581559Y-119940628D01*
X158569860Y-119922692D01*
X158558735Y-119906436D01*
X158549345Y-119893629D01*
X158542846Y-119886039D01*
X158542050Y-119885346D01*
X158533902Y-119880704D01*
X158523502Y-119878676D01*
X158509254Y-119879274D01*
X158489561Y-119882510D01*
X158473809Y-119885871D01*
X158429323Y-119895632D01*
X158390750Y-119903600D01*
X158358539Y-119909695D01*
X158333136Y-119913840D01*
X158314991Y-119915953D01*
X158304550Y-119915956D01*
X158304210Y-119915893D01*
X158291635Y-119911163D01*
X158274682Y-119901694D01*
X158255020Y-119888674D01*
X158234320Y-119873289D01*
X158214252Y-119856725D01*
X158196486Y-119840170D01*
X158193855Y-119837484D01*
X158180604Y-119823589D01*
X158172279Y-119813978D01*
X158167909Y-119806865D01*
X158166518Y-119800460D01*
X158167135Y-119792977D01*
X158167698Y-119789447D01*
X158169049Y-119780341D01*
X158171290Y-119764218D01*
X158174234Y-119742459D01*
X158177696Y-119716445D01*
X158181489Y-119687558D01*
X158184393Y-119665214D01*
X158198149Y-119558844D01*
X158117416Y-119520487D01*
X158036684Y-119482130D01*
X157952017Y-119567915D01*
X157926871Y-119593303D01*
X157906799Y-119613295D01*
X157891000Y-119628587D01*
X157878673Y-119639878D01*
X157869015Y-119647866D01*
X157861225Y-119653249D01*
X157854502Y-119656724D01*
X157848043Y-119658991D01*
X157847132Y-119659247D01*
X157826666Y-119662507D01*
X157801395Y-119663089D01*
X157774473Y-119661200D01*
X157749055Y-119657049D01*
X157730067Y-119651547D01*
X157715780Y-119645207D01*
X157703337Y-119637413D01*
X157691898Y-119627120D01*
X157680618Y-119613282D01*
X157668657Y-119594857D01*
X157655172Y-119570798D01*
X157639321Y-119540062D01*
X157637904Y-119537240D01*
X157624451Y-119511177D01*
X157611566Y-119487628D01*
X157600044Y-119467961D01*
X157590680Y-119453546D01*
X157585431Y-119446876D01*
X157577636Y-119439420D01*
X157569750Y-119434361D01*
X157560340Y-119431590D01*
X157547971Y-119430998D01*
X157531209Y-119432477D01*
X157531209Y-119432477D01*
G37*
X157531209Y-119432477D02*
X157508621Y-119435916D01*
X157488255Y-119439490D01*
X157457810Y-119445570D01*
X157434758Y-119451695D01*
X157418036Y-119458323D01*
X157406581Y-119465913D01*
X157399331Y-119474924D01*
X157397520Y-119478663D01*
X157393063Y-119493619D01*
X157389101Y-119514989D01*
X157385883Y-119540722D01*
X157383655Y-119568770D01*
X157382662Y-119597082D01*
X157382634Y-119602429D01*
X157379947Y-119642269D01*
X157371630Y-119676108D01*
X157357297Y-119704591D01*
X157336563Y-119728363D01*
X157309041Y-119748069D01*
X157289697Y-119757945D01*
X157269438Y-119765569D01*
X157248315Y-119771038D01*
X157237174Y-119772711D01*
X157229385Y-119773330D01*
X157222464Y-119773357D01*
X157215315Y-119772379D01*
X157206840Y-119769986D01*
X157195944Y-119765766D01*
X157181527Y-119759308D01*
X157162494Y-119750201D01*
X157137748Y-119738034D01*
X157116244Y-119727379D01*
X157020260Y-119679784D01*
X157001759Y-119684766D01*
X156993352Y-119687853D01*
X156984146Y-119693200D01*
X156972994Y-119701710D01*
X156958748Y-119714287D01*
X156940259Y-119731837D01*
X156932768Y-119739132D01*
X156915383Y-119756471D01*
X156899826Y-119772613D01*
X156887276Y-119786287D01*
X156878909Y-119796223D01*
X156876267Y-119800086D01*
X156874671Y-119803640D01*
X156874043Y-119807429D01*
X156874824Y-119812304D01*
X156877454Y-119819120D01*
X156882374Y-119828729D01*
X156890024Y-119841984D01*
X156900846Y-119859738D01*
X156915279Y-119882844D01*
X156933765Y-119912155D01*
X156935946Y-119915606D01*
X156952757Y-119942478D01*
X156967978Y-119967323D01*
X156981037Y-119989166D01*
X156991362Y-120007032D01*
X156998380Y-120019946D01*
X157001520Y-120026932D01*
X157001634Y-120027584D01*
X156999683Y-120035720D01*
X156994402Y-120049378D01*
X156986643Y-120066863D01*
X156977262Y-120086479D01*
X156967112Y-120106531D01*
X156957048Y-120125325D01*
X156947925Y-120141164D01*
X156940596Y-120152354D01*
X156936450Y-120156922D01*
X156928583Y-120159725D01*
X156912576Y-120163254D01*
X156888718Y-120167458D01*
X156857300Y-120172286D01*
X156818612Y-120177690D01*
X156807284Y-120179198D01*
X156688126Y-120194916D01*
X156684298Y-120209733D01*
X156682438Y-120219653D01*
X156680273Y-120235472D01*
X156677951Y-120255538D01*
X156675622Y-120278195D01*
X156673432Y-120301791D01*
X156671532Y-120324670D01*
X156670068Y-120345180D01*
X156669189Y-120361666D01*
X156669044Y-120372475D01*
X156669414Y-120375677D01*
X156673996Y-120379448D01*
X156685006Y-120385697D01*
X156701008Y-120393768D01*
X156720567Y-120403003D01*
X156742244Y-120412748D01*
X156764604Y-120422346D01*
X156786209Y-120431142D01*
X156805625Y-120438478D01*
X156811215Y-120440436D01*
X156838900Y-120450891D01*
X156860214Y-120461459D01*
X156877191Y-120473280D01*
X156888140Y-120483483D01*
X156895824Y-120491811D01*
X156901889Y-120499732D01*
X156906679Y-120508484D01*
X156910537Y-120519302D01*
X156913804Y-120533423D01*
X156916824Y-120552084D01*
X156919939Y-120576521D01*
X156923491Y-120607971D01*
X156924055Y-120613116D01*
X156924813Y-120627887D01*
X156924094Y-120641041D01*
X156923427Y-120644720D01*
X156919526Y-120651299D01*
X156910120Y-120663051D01*
X156895817Y-120679293D01*
X156877226Y-120699343D01*
X156854956Y-120722517D01*
X156844962Y-120732704D01*
X156818993Y-120759397D01*
X156797809Y-120781956D01*
X156781761Y-120799986D01*
X156771197Y-120813093D01*
X156766468Y-120820884D01*
X156766338Y-120821321D01*
X156766865Y-120832700D01*
X156772360Y-120850098D01*
X156782550Y-120872887D01*
X156797163Y-120900435D01*
X156810346Y-120922990D01*
X156826115Y-120947285D01*
X156839903Y-120964333D01*
X156852499Y-120974888D01*
X156864695Y-120979704D01*
X156870344Y-120980200D01*
X156883092Y-120979010D01*
X156903074Y-120975566D01*
X156929416Y-120970054D01*
X156961246Y-120962660D01*
X156997688Y-120953570D01*
X157009886Y-120950411D01*
X157046019Y-120943859D01*
X157078535Y-120944381D01*
X157108759Y-120952177D01*
X157138015Y-120967447D01*
X157142382Y-120970381D01*
X157156760Y-120982319D01*
X157172624Y-120998637D01*
X157188056Y-121017021D01*
X157201140Y-121035154D01*
X157209959Y-121050722D01*
X157211046Y-121053334D01*
X157218058Y-121071693D01*
X157190813Y-121111672D01*
X157158582Y-121160732D01*
X157124458Y-121215917D01*
X157088956Y-121276205D01*
X157052586Y-121340575D01*
X157015864Y-121408004D01*
X156979300Y-121477469D01*
X156943410Y-121547949D01*
X156908705Y-121618423D01*
X156875698Y-121687866D01*
X156844903Y-121755259D01*
X156816833Y-121819578D01*
X156791999Y-121879802D01*
X156770916Y-121934908D01*
X156755946Y-121978132D01*
X156742916Y-122021133D01*
X156730122Y-122068754D01*
X156718379Y-122117653D01*
X156708503Y-122164490D01*
X156703005Y-122195059D01*
X156698146Y-122238274D01*
X156698834Y-122275795D01*
X156705241Y-122308467D01*
X156717535Y-122337134D01*
X156735889Y-122362644D01*
X156737020Y-122363909D01*
X156759907Y-122383443D01*
X156787723Y-122398021D01*
X156818370Y-122407101D01*
X156849754Y-122410144D01*
X156879778Y-122406609D01*
X156890352Y-122403444D01*
X156909945Y-122395216D01*
X156928705Y-122384548D01*
X156947464Y-122370664D01*
X156967054Y-122352790D01*
X156988306Y-122330151D01*
X157012053Y-122301974D01*
X157039126Y-122267482D01*
X157045841Y-122258667D01*
X157105493Y-122174079D01*
X157160794Y-122083305D01*
X157212044Y-121985816D01*
X157255126Y-121891501D01*
X157265766Y-121866057D01*
X157277900Y-121835992D01*
X157291679Y-121800908D01*
X157307252Y-121760408D01*
X157324769Y-121714094D01*
X157344379Y-121661570D01*
X157366233Y-121602437D01*
X157390481Y-121536299D01*
X157417271Y-121462757D01*
X157431849Y-121422583D01*
X157449714Y-121373497D01*
X157465016Y-121331920D01*
X157477951Y-121297357D01*
X157488716Y-121269313D01*
X157497506Y-121247293D01*
X157504516Y-121230801D01*
X157509944Y-121219343D01*
X157513984Y-121212422D01*
X157515883Y-121210189D01*
X157531585Y-121201120D01*
X157553137Y-121195433D01*
X157578598Y-121193203D01*
X157606026Y-121194501D01*
X157633478Y-121199400D01*
X157651864Y-121205085D01*
X157678282Y-121219232D01*
X157702524Y-121240578D01*
X157723418Y-121267916D01*
X157736402Y-121292104D01*
X157751846Y-121325290D01*
X157766481Y-121354880D01*
X157779721Y-121379766D01*
X157790980Y-121398841D01*
X157798736Y-121409882D01*
X157807082Y-121418479D01*
X157816566Y-121424134D01*
X157828615Y-121427014D01*
X157844653Y-121427286D01*
X157866106Y-121425119D01*
X157892868Y-121420942D01*
X157924041Y-121415138D01*
X157947780Y-121409500D01*
X157965104Y-121403675D01*
X157977031Y-121397311D01*
X157984577Y-121390056D01*
X157985337Y-121388957D01*
X157991088Y-121375533D01*
X157995958Y-121354102D01*
X157999963Y-121324547D01*
X158003122Y-121286750D01*
X158004565Y-121261175D01*
X158005928Y-121235698D01*
X158007365Y-121216884D01*
X158009175Y-121202933D01*
X158011659Y-121192046D01*
X158015115Y-121182422D01*
X158019088Y-121173793D01*
X158036099Y-121147930D01*
X158059502Y-121125074D01*
X158087406Y-121106466D01*
X158117923Y-121093346D01*
X158149161Y-121086955D01*
X158151592Y-121086774D01*
X158158056Y-121086352D01*
X158163809Y-121086213D01*
X158169607Y-121086682D01*
X158176210Y-121088088D01*
X158184373Y-121090757D01*
X158194855Y-121095015D01*
X158208414Y-121101190D01*
X158225807Y-121109608D01*
X158247791Y-121120596D01*
X158275124Y-121134482D01*
X158308564Y-121151592D01*
X158344382Y-121169952D01*
X158361274Y-121177925D01*
X158373283Y-121181708D01*
X158382507Y-121181901D01*
X158384580Y-121181470D01*
X158391790Y-121177396D01*
X158403477Y-121168265D01*
X158418412Y-121155276D01*
X158435369Y-121139627D01*
X158453119Y-121122519D01*
X158470435Y-121105150D01*
X158486089Y-121088719D01*
X158498854Y-121074427D01*
X158507501Y-121063471D01*
X158510388Y-121058577D01*
X158512390Y-121052686D01*
X158512555Y-121047019D01*
X158510245Y-121039960D01*
X158504823Y-121029896D01*
X158495650Y-121015212D01*
X158489475Y-121005660D01*
X158474967Y-120983684D01*
X158458230Y-120958898D01*
X158442007Y-120935347D01*
X158435513Y-120926098D01*
X158414779Y-120893758D01*
X158401114Y-120864857D01*
X158394326Y-120838478D01*
X158394223Y-120813705D01*
X158400613Y-120789621D01*
X158404920Y-120780024D01*
X158420863Y-120749141D01*
X158434178Y-120725721D01*
X158444765Y-120709924D01*
X158452387Y-120702006D01*
X158458968Y-120699846D01*
X158472907Y-120696876D01*
X158493154Y-120693272D01*
X158518656Y-120689211D01*
X158548363Y-120684870D01*
X158576990Y-120680982D01*
X158615646Y-120675752D01*
X158646321Y-120671253D01*
X158669460Y-120667406D01*
X158685512Y-120664131D01*
X158694921Y-120661350D01*
X158697849Y-120659590D01*
X158700831Y-120652365D01*
X158703704Y-120639568D01*
X158705694Y-120625250D01*
X158707390Y-120608985D01*
X158709701Y-120587520D01*
X158712278Y-120564066D01*
X158714029Y-120548400D01*
X158716531Y-120525955D01*
X158717723Y-120508725D01*
X158716740Y-120495530D01*
X158712715Y-120485188D01*
X158704783Y-120476518D01*
X158692077Y-120468338D01*
X158673732Y-120459467D01*
X158648881Y-120448724D01*
X158637381Y-120443832D01*
X158612639Y-120433362D01*
X158599196Y-120427750D01*
X158174267Y-120427750D01*
X158170161Y-120491669D01*
X158157974Y-120553396D01*
X158137900Y-120612438D01*
X158110137Y-120668304D01*
X158074879Y-120720501D01*
X158043041Y-120757574D01*
X157996032Y-120801233D01*
X157944890Y-120837688D01*
X157890184Y-120866743D01*
X157832482Y-120888202D01*
X157772353Y-120901869D01*
X157710364Y-120907548D01*
X157647085Y-120905044D01*
X157623934Y-120902076D01*
X157562691Y-120888646D01*
X157504358Y-120867687D01*
X157449569Y-120839723D01*
X157398960Y-120805279D01*
X157353164Y-120764880D01*
X157312816Y-120719051D01*
X157278549Y-120668316D01*
X157250999Y-120613202D01*
X157240016Y-120584383D01*
X157223212Y-120522803D01*
X157214793Y-120460670D01*
X157214730Y-120398397D01*
X157222997Y-120336402D01*
X157239565Y-120275099D01*
X157264128Y-120215482D01*
X157294795Y-120161520D01*
X157331296Y-120113170D01*
X157372961Y-120070622D01*
X157419118Y-120034066D01*
X157469099Y-120003695D01*
X157522232Y-119979699D01*
X157577847Y-119962268D01*
X157635275Y-119951593D01*
X157693844Y-119947866D01*
X157752884Y-119951277D01*
X157811726Y-119962018D01*
X157869698Y-119980278D01*
X157926131Y-120006249D01*
X157950219Y-120020118D01*
X157971625Y-120035030D01*
X157995956Y-120054871D01*
X158021382Y-120077873D01*
X158046070Y-120102272D01*
X158068190Y-120126300D01*
X158085912Y-120148192D01*
X158091925Y-120156816D01*
X158124609Y-120214225D01*
X158149104Y-120273631D01*
X158165370Y-120334911D01*
X158173372Y-120397941D01*
X158174267Y-120427750D01*
X158599196Y-120427750D01*
X158588811Y-120423415D01*
X158567704Y-120414735D01*
X158551125Y-120408066D01*
X158542349Y-120404684D01*
X158521790Y-120394989D01*
X158505278Y-120381928D01*
X158491776Y-120364182D01*
X158480244Y-120340430D01*
X158471070Y-120314062D01*
X158463295Y-120276652D01*
X158463688Y-120241422D01*
X158471245Y-120210950D01*
X158475132Y-120201736D01*
X158480212Y-120192648D01*
X158487366Y-120182601D01*
X158497473Y-120170511D01*
X158511414Y-120155295D01*
X158530069Y-120135869D01*
X158542704Y-120122950D01*
X158561858Y-120103134D01*
X158579306Y-120084504D01*
X158594032Y-120068191D01*
X158605020Y-120055327D01*
X158611254Y-120047042D01*
X158611910Y-120045902D01*
X158617602Y-120029685D01*
X158617542Y-120013110D01*
X158611594Y-119993776D01*
X158608527Y-119986834D01*
X158602051Y-119974467D01*
X158592676Y-119958476D01*
X158581559Y-119940628D01*
X158569860Y-119922692D01*
X158558735Y-119906436D01*
X158549345Y-119893629D01*
X158542846Y-119886039D01*
X158542050Y-119885346D01*
X158533902Y-119880704D01*
X158523502Y-119878676D01*
X158509254Y-119879274D01*
X158489561Y-119882510D01*
X158473809Y-119885871D01*
X158429323Y-119895632D01*
X158390750Y-119903600D01*
X158358539Y-119909695D01*
X158333136Y-119913840D01*
X158314991Y-119915953D01*
X158304550Y-119915956D01*
X158304210Y-119915893D01*
X158291635Y-119911163D01*
X158274682Y-119901694D01*
X158255020Y-119888674D01*
X158234320Y-119873289D01*
X158214252Y-119856725D01*
X158196486Y-119840170D01*
X158193855Y-119837484D01*
X158180604Y-119823589D01*
X158172279Y-119813978D01*
X158167909Y-119806865D01*
X158166518Y-119800460D01*
X158167135Y-119792977D01*
X158167698Y-119789447D01*
X158169049Y-119780341D01*
X158171290Y-119764218D01*
X158174234Y-119742459D01*
X158177696Y-119716445D01*
X158181489Y-119687558D01*
X158184393Y-119665214D01*
X158198149Y-119558844D01*
X158117416Y-119520487D01*
X158036684Y-119482130D01*
X157952017Y-119567915D01*
X157926871Y-119593303D01*
X157906799Y-119613295D01*
X157891000Y-119628587D01*
X157878673Y-119639878D01*
X157869015Y-119647866D01*
X157861225Y-119653249D01*
X157854502Y-119656724D01*
X157848043Y-119658991D01*
X157847132Y-119659247D01*
X157826666Y-119662507D01*
X157801395Y-119663089D01*
X157774473Y-119661200D01*
X157749055Y-119657049D01*
X157730067Y-119651547D01*
X157715780Y-119645207D01*
X157703337Y-119637413D01*
X157691898Y-119627120D01*
X157680618Y-119613282D01*
X157668657Y-119594857D01*
X157655172Y-119570798D01*
X157639321Y-119540062D01*
X157637904Y-119537240D01*
X157624451Y-119511177D01*
X157611566Y-119487628D01*
X157600044Y-119467961D01*
X157590680Y-119453546D01*
X157585431Y-119446876D01*
X157577636Y-119439420D01*
X157569750Y-119434361D01*
X157560340Y-119431590D01*
X157547971Y-119430998D01*
X157531209Y-119432477D01*
G36*
X153736148Y-121311689D02*
X153706339Y-121314135D01*
X153686343Y-121317078D01*
X153633741Y-121331192D01*
X153584584Y-121352825D01*
X153539290Y-121381591D01*
X153498271Y-121417106D01*
X153461944Y-121458984D01*
X153430722Y-121506838D01*
X153405022Y-121560282D01*
X153394588Y-121588340D01*
X153377560Y-121649266D01*
X153365880Y-121714540D01*
X153359566Y-121782391D01*
X153358633Y-121851044D01*
X153363098Y-121918726D01*
X153372978Y-121983665D01*
X153388289Y-122044088D01*
X153390247Y-122050200D01*
X153414403Y-122112800D01*
X153443772Y-122169070D01*
X153478202Y-122218856D01*
X153517545Y-122262003D01*
X153561653Y-122298358D01*
X153610375Y-122327765D01*
X153663564Y-122350070D01*
X153686538Y-122357102D01*
X153711916Y-122362150D01*
X153743188Y-122365383D01*
X153777979Y-122366804D01*
X153813914Y-122366417D01*
X153848618Y-122364226D01*
X153879717Y-122360233D01*
X153896484Y-122356772D01*
X153932566Y-122345495D01*
X153969450Y-122329881D01*
X154004178Y-122311360D01*
X154033796Y-122291365D01*
X154037242Y-122288631D01*
X154063700Y-122267168D01*
X154063700Y-122732800D01*
X154241500Y-122732800D01*
X154241500Y-121622750D01*
X154063700Y-121622750D01*
X154063700Y-122105589D01*
X154039359Y-122127489D01*
X153996816Y-122161213D01*
X153951929Y-122188278D01*
X153905546Y-122208425D01*
X153858517Y-122221390D01*
X153811691Y-122226913D01*
X153765916Y-122224732D01*
X153739850Y-122219752D01*
X153706350Y-122207360D01*
X153673945Y-122187619D01*
X153643908Y-122161643D01*
X153617511Y-122130549D01*
X153596026Y-122095451D01*
X153594437Y-122092257D01*
X153578231Y-122054391D01*
X153565677Y-122014095D01*
X153556551Y-121970137D01*
X153550629Y-121921285D01*
X153547687Y-121866306D01*
X153547259Y-121832464D01*
X153548161Y-121779988D01*
X153551081Y-121734328D01*
X153556279Y-121694020D01*
X153564017Y-121657597D01*
X153574559Y-121623596D01*
X153588166Y-121590548D01*
X153591961Y-121582504D01*
X153615200Y-121542905D01*
X153643016Y-121510134D01*
X153674799Y-121484329D01*
X153709932Y-121465631D01*
X153747804Y-121454177D01*
X153787801Y-121450109D01*
X153829309Y-121453564D01*
X153871715Y-121464682D01*
X153914405Y-121483604D01*
X153945167Y-121502268D01*
X153962762Y-121515735D01*
X153983428Y-121533941D01*
X154005102Y-121554895D01*
X154025721Y-121576602D01*
X154042967Y-121596750D01*
X154063700Y-121622750D01*
X154241500Y-121622750D01*
X154241500Y-121335800D01*
X154063700Y-121335800D01*
X154063700Y-121449690D01*
X154033009Y-121419100D01*
X153992309Y-121383436D01*
X153948498Y-121354129D01*
X153902769Y-121331861D01*
X153856317Y-121317310D01*
X153852810Y-121316543D01*
X153829416Y-121313117D01*
X153800379Y-121311171D01*
X153768393Y-121310698D01*
X153736148Y-121311689D01*
X153736148Y-121311689D01*
G37*
X153736148Y-121311689D02*
X153706339Y-121314135D01*
X153686343Y-121317078D01*
X153633741Y-121331192D01*
X153584584Y-121352825D01*
X153539290Y-121381591D01*
X153498271Y-121417106D01*
X153461944Y-121458984D01*
X153430722Y-121506838D01*
X153405022Y-121560282D01*
X153394588Y-121588340D01*
X153377560Y-121649266D01*
X153365880Y-121714540D01*
X153359566Y-121782391D01*
X153358633Y-121851044D01*
X153363098Y-121918726D01*
X153372978Y-121983665D01*
X153388289Y-122044088D01*
X153390247Y-122050200D01*
X153414403Y-122112800D01*
X153443772Y-122169070D01*
X153478202Y-122218856D01*
X153517545Y-122262003D01*
X153561653Y-122298358D01*
X153610375Y-122327765D01*
X153663564Y-122350070D01*
X153686538Y-122357102D01*
X153711916Y-122362150D01*
X153743188Y-122365383D01*
X153777979Y-122366804D01*
X153813914Y-122366417D01*
X153848618Y-122364226D01*
X153879717Y-122360233D01*
X153896484Y-122356772D01*
X153932566Y-122345495D01*
X153969450Y-122329881D01*
X154004178Y-122311360D01*
X154033796Y-122291365D01*
X154037242Y-122288631D01*
X154063700Y-122267168D01*
X154063700Y-122732800D01*
X154241500Y-122732800D01*
X154241500Y-121622750D01*
X154063700Y-121622750D01*
X154063700Y-122105589D01*
X154039359Y-122127489D01*
X153996816Y-122161213D01*
X153951929Y-122188278D01*
X153905546Y-122208425D01*
X153858517Y-122221390D01*
X153811691Y-122226913D01*
X153765916Y-122224732D01*
X153739850Y-122219752D01*
X153706350Y-122207360D01*
X153673945Y-122187619D01*
X153643908Y-122161643D01*
X153617511Y-122130549D01*
X153596026Y-122095451D01*
X153594437Y-122092257D01*
X153578231Y-122054391D01*
X153565677Y-122014095D01*
X153556551Y-121970137D01*
X153550629Y-121921285D01*
X153547687Y-121866306D01*
X153547259Y-121832464D01*
X153548161Y-121779988D01*
X153551081Y-121734328D01*
X153556279Y-121694020D01*
X153564017Y-121657597D01*
X153574559Y-121623596D01*
X153588166Y-121590548D01*
X153591961Y-121582504D01*
X153615200Y-121542905D01*
X153643016Y-121510134D01*
X153674799Y-121484329D01*
X153709932Y-121465631D01*
X153747804Y-121454177D01*
X153787801Y-121450109D01*
X153829309Y-121453564D01*
X153871715Y-121464682D01*
X153914405Y-121483604D01*
X153945167Y-121502268D01*
X153962762Y-121515735D01*
X153983428Y-121533941D01*
X154005102Y-121554895D01*
X154025721Y-121576602D01*
X154042967Y-121596750D01*
X154063700Y-121622750D01*
X154241500Y-121622750D01*
X154241500Y-121335800D01*
X154063700Y-121335800D01*
X154063700Y-121449690D01*
X154033009Y-121419100D01*
X153992309Y-121383436D01*
X153948498Y-121354129D01*
X153902769Y-121331861D01*
X153856317Y-121317310D01*
X153852810Y-121316543D01*
X153829416Y-121313117D01*
X153800379Y-121311171D01*
X153768393Y-121310698D01*
X153736148Y-121311689D01*
G36*
X146841562Y-123197340D02*
X146800856Y-123205969D01*
X146765862Y-123220847D01*
X146736602Y-123241952D01*
X146713099Y-123269265D01*
X146695375Y-123302765D01*
X146683451Y-123342432D01*
X146683216Y-123343559D01*
X146681520Y-123353136D01*
X146680125Y-123364478D01*
X146679003Y-123378435D01*
X146678129Y-123395861D01*
X146677475Y-123417606D01*
X146677015Y-123444523D01*
X146676723Y-123477462D01*
X146676571Y-123517275D01*
X146676534Y-123558121D01*
X146676534Y-123740333D01*
X146743709Y-123740333D01*
X146745270Y-123555125D01*
X146745694Y-123507754D01*
X146746165Y-123468010D01*
X146746782Y-123435054D01*
X146747645Y-123408047D01*
X146748856Y-123386150D01*
X146750515Y-123368523D01*
X146752721Y-123354327D01*
X146755574Y-123342723D01*
X146759175Y-123332872D01*
X146763625Y-123323935D01*
X146769022Y-123315071D01*
X146774998Y-123306134D01*
X146794287Y-123284629D01*
X146818635Y-123269620D01*
X146848400Y-123260919D01*
X146864799Y-123258921D01*
X146902707Y-123259716D01*
X146936737Y-123267995D01*
X146966613Y-123283577D01*
X146992055Y-123306282D01*
X147012787Y-123335930D01*
X147025168Y-123362856D01*
X147027404Y-123369093D01*
X147029249Y-123375459D01*
X147030748Y-123382819D01*
X147031946Y-123392038D01*
X147032888Y-123403980D01*
X147033618Y-123419512D01*
X147034180Y-123439496D01*
X147034620Y-123464799D01*
X147034982Y-123496285D01*
X147035310Y-123534819D01*
X147035524Y-123563592D01*
X147036797Y-123740333D01*
X147107860Y-123740333D01*
X147109171Y-123548775D01*
X147109493Y-123503438D01*
X147109810Y-123465751D01*
X147110163Y-123434898D01*
X147110591Y-123410062D01*
X147111135Y-123390428D01*
X147111837Y-123375178D01*
X147112735Y-123363497D01*
X147113871Y-123354568D01*
X147115285Y-123347575D01*
X147117017Y-123341701D01*
X147119109Y-123336130D01*
X147119789Y-123334452D01*
X147134927Y-123304394D01*
X147152803Y-123282116D01*
X147173912Y-123267234D01*
X147198747Y-123259366D01*
X147218400Y-123257825D01*
X147256731Y-123261753D01*
X147291906Y-123273183D01*
X147323129Y-123291630D01*
X147349607Y-123316607D01*
X147370545Y-123347630D01*
X147372905Y-123352257D01*
X147379622Y-123366483D01*
X147385150Y-123379952D01*
X147389603Y-123393665D01*
X147393097Y-123408622D01*
X147395747Y-123425823D01*
X147397667Y-123446269D01*
X147398972Y-123470959D01*
X147399778Y-123500894D01*
X147400200Y-123537075D01*
X147400352Y-123580501D01*
X147400360Y-123591108D01*
X147400434Y-123740333D01*
X147467036Y-123740333D01*
X147469871Y-123491625D01*
X147470403Y-123445992D01*
X147470934Y-123402492D01*
X147471451Y-123361932D01*
X147471943Y-123325122D01*
X147472400Y-123292869D01*
X147472809Y-123265980D01*
X147473159Y-123245264D01*
X147473439Y-123231529D01*
X147473612Y-123225983D01*
X147474517Y-123209050D01*
X147439592Y-123207820D01*
X147404667Y-123206591D01*
X147404667Y-123253329D01*
X147404391Y-123272078D01*
X147403641Y-123287240D01*
X147402538Y-123297111D01*
X147401397Y-123300066D01*
X147397528Y-123296690D01*
X147391849Y-123288259D01*
X147389951Y-123284887D01*
X147378380Y-123268696D01*
X147361228Y-123251248D01*
X147340745Y-123234498D01*
X147319184Y-123220402D01*
X147310365Y-123215752D01*
X147275558Y-123202651D01*
X147239885Y-123196096D01*
X147204488Y-123195778D01*
X147170506Y-123201389D01*
X147139077Y-123212621D01*
X147111342Y-123229164D01*
X147088439Y-123250712D01*
X147071510Y-123276956D01*
X147069738Y-123280855D01*
X147063986Y-123293212D01*
X147059272Y-123301688D01*
X147056989Y-123304228D01*
X147053796Y-123300779D01*
X147049424Y-123292218D01*
X147048721Y-123290541D01*
X147043018Y-123280660D01*
X147033277Y-123267579D01*
X147021525Y-123254005D01*
X147020607Y-123253030D01*
X146991853Y-123228723D01*
X146958118Y-123210814D01*
X146920263Y-123199573D01*
X146879144Y-123195264D01*
X146841562Y-123197340D01*
X146841562Y-123197340D01*
G37*
X146841562Y-123197340D02*
X146800856Y-123205969D01*
X146765862Y-123220847D01*
X146736602Y-123241952D01*
X146713099Y-123269265D01*
X146695375Y-123302765D01*
X146683451Y-123342432D01*
X146683216Y-123343559D01*
X146681520Y-123353136D01*
X146680125Y-123364478D01*
X146679003Y-123378435D01*
X146678129Y-123395861D01*
X146677475Y-123417606D01*
X146677015Y-123444523D01*
X146676723Y-123477462D01*
X146676571Y-123517275D01*
X146676534Y-123558121D01*
X146676534Y-123740333D01*
X146743709Y-123740333D01*
X146745270Y-123555125D01*
X146745694Y-123507754D01*
X146746165Y-123468010D01*
X146746782Y-123435054D01*
X146747645Y-123408047D01*
X146748856Y-123386150D01*
X146750515Y-123368523D01*
X146752721Y-123354327D01*
X146755574Y-123342723D01*
X146759175Y-123332872D01*
X146763625Y-123323935D01*
X146769022Y-123315071D01*
X146774998Y-123306134D01*
X146794287Y-123284629D01*
X146818635Y-123269620D01*
X146848400Y-123260919D01*
X146864799Y-123258921D01*
X146902707Y-123259716D01*
X146936737Y-123267995D01*
X146966613Y-123283577D01*
X146992055Y-123306282D01*
X147012787Y-123335930D01*
X147025168Y-123362856D01*
X147027404Y-123369093D01*
X147029249Y-123375459D01*
X147030748Y-123382819D01*
X147031946Y-123392038D01*
X147032888Y-123403980D01*
X147033618Y-123419512D01*
X147034180Y-123439496D01*
X147034620Y-123464799D01*
X147034982Y-123496285D01*
X147035310Y-123534819D01*
X147035524Y-123563592D01*
X147036797Y-123740333D01*
X147107860Y-123740333D01*
X147109171Y-123548775D01*
X147109493Y-123503438D01*
X147109810Y-123465751D01*
X147110163Y-123434898D01*
X147110591Y-123410062D01*
X147111135Y-123390428D01*
X147111837Y-123375178D01*
X147112735Y-123363497D01*
X147113871Y-123354568D01*
X147115285Y-123347575D01*
X147117017Y-123341701D01*
X147119109Y-123336130D01*
X147119789Y-123334452D01*
X147134927Y-123304394D01*
X147152803Y-123282116D01*
X147173912Y-123267234D01*
X147198747Y-123259366D01*
X147218400Y-123257825D01*
X147256731Y-123261753D01*
X147291906Y-123273183D01*
X147323129Y-123291630D01*
X147349607Y-123316607D01*
X147370545Y-123347630D01*
X147372905Y-123352257D01*
X147379622Y-123366483D01*
X147385150Y-123379952D01*
X147389603Y-123393665D01*
X147393097Y-123408622D01*
X147395747Y-123425823D01*
X147397667Y-123446269D01*
X147398972Y-123470959D01*
X147399778Y-123500894D01*
X147400200Y-123537075D01*
X147400352Y-123580501D01*
X147400360Y-123591108D01*
X147400434Y-123740333D01*
X147467036Y-123740333D01*
X147469871Y-123491625D01*
X147470403Y-123445992D01*
X147470934Y-123402492D01*
X147471451Y-123361932D01*
X147471943Y-123325122D01*
X147472400Y-123292869D01*
X147472809Y-123265980D01*
X147473159Y-123245264D01*
X147473439Y-123231529D01*
X147473612Y-123225983D01*
X147474517Y-123209050D01*
X147439592Y-123207820D01*
X147404667Y-123206591D01*
X147404667Y-123253329D01*
X147404391Y-123272078D01*
X147403641Y-123287240D01*
X147402538Y-123297111D01*
X147401397Y-123300066D01*
X147397528Y-123296690D01*
X147391849Y-123288259D01*
X147389951Y-123284887D01*
X147378380Y-123268696D01*
X147361228Y-123251248D01*
X147340745Y-123234498D01*
X147319184Y-123220402D01*
X147310365Y-123215752D01*
X147275558Y-123202651D01*
X147239885Y-123196096D01*
X147204488Y-123195778D01*
X147170506Y-123201389D01*
X147139077Y-123212621D01*
X147111342Y-123229164D01*
X147088439Y-123250712D01*
X147071510Y-123276956D01*
X147069738Y-123280855D01*
X147063986Y-123293212D01*
X147059272Y-123301688D01*
X147056989Y-123304228D01*
X147053796Y-123300779D01*
X147049424Y-123292218D01*
X147048721Y-123290541D01*
X147043018Y-123280660D01*
X147033277Y-123267579D01*
X147021525Y-123254005D01*
X147020607Y-123253030D01*
X146991853Y-123228723D01*
X146958118Y-123210814D01*
X146920263Y-123199573D01*
X146879144Y-123195264D01*
X146841562Y-123197340D01*
G36*
X149748163Y-123196123D02*
X149723648Y-123199186D01*
X149726378Y-123223168D01*
X149728583Y-123243073D01*
X149730751Y-123256096D01*
X149734357Y-123263688D01*
X149740872Y-123267298D01*
X149751768Y-123268377D01*
X149768518Y-123268374D01*
X149772280Y-123268370D01*
X149792748Y-123268777D01*
X149807770Y-123270289D01*
X149820347Y-123273442D01*
X149833480Y-123278772D01*
X149835342Y-123279632D01*
X149866338Y-123298615D01*
X149891900Y-123323845D01*
X149911573Y-123354727D01*
X149924905Y-123390662D01*
X149927289Y-123400817D01*
X149928622Y-123411810D01*
X149929752Y-123430713D01*
X149930666Y-123456969D01*
X149931349Y-123490024D01*
X149931786Y-123529322D01*
X149931964Y-123574308D01*
X149931967Y-123581792D01*
X149931967Y-123740333D01*
X149998569Y-123740333D01*
X150001404Y-123491625D01*
X150001937Y-123445992D01*
X150002467Y-123402492D01*
X150002984Y-123361932D01*
X150003476Y-123325122D01*
X150003933Y-123292869D01*
X150004342Y-123265980D01*
X150004692Y-123245264D01*
X150004973Y-123231529D01*
X150005145Y-123225983D01*
X150006050Y-123209050D01*
X149971125Y-123207820D01*
X149936200Y-123206591D01*
X149936200Y-123251212D01*
X149935920Y-123269482D01*
X149935162Y-123284111D01*
X149934050Y-123293359D01*
X149933025Y-123295719D01*
X149929146Y-123292351D01*
X149922871Y-123283920D01*
X149919267Y-123278305D01*
X149905342Y-123260045D01*
X149886413Y-123241212D01*
X149865333Y-123224380D01*
X149846980Y-123213121D01*
X149819990Y-123202868D01*
X149789292Y-123196678D01*
X149758945Y-123195250D01*
X149748163Y-123196123D01*
X149748163Y-123196123D01*
G37*
X149748163Y-123196123D02*
X149723648Y-123199186D01*
X149726378Y-123223168D01*
X149728583Y-123243073D01*
X149730751Y-123256096D01*
X149734357Y-123263688D01*
X149740872Y-123267298D01*
X149751768Y-123268377D01*
X149768518Y-123268374D01*
X149772280Y-123268370D01*
X149792748Y-123268777D01*
X149807770Y-123270289D01*
X149820347Y-123273442D01*
X149833480Y-123278772D01*
X149835342Y-123279632D01*
X149866338Y-123298615D01*
X149891900Y-123323845D01*
X149911573Y-123354727D01*
X149924905Y-123390662D01*
X149927289Y-123400817D01*
X149928622Y-123411810D01*
X149929752Y-123430713D01*
X149930666Y-123456969D01*
X149931349Y-123490024D01*
X149931786Y-123529322D01*
X149931964Y-123574308D01*
X149931967Y-123581792D01*
X149931967Y-123740333D01*
X149998569Y-123740333D01*
X150001404Y-123491625D01*
X150001937Y-123445992D01*
X150002467Y-123402492D01*
X150002984Y-123361932D01*
X150003476Y-123325122D01*
X150003933Y-123292869D01*
X150004342Y-123265980D01*
X150004692Y-123245264D01*
X150004973Y-123231529D01*
X150005145Y-123225983D01*
X150006050Y-123209050D01*
X149971125Y-123207820D01*
X149936200Y-123206591D01*
X149936200Y-123251212D01*
X149935920Y-123269482D01*
X149935162Y-123284111D01*
X149934050Y-123293359D01*
X149933025Y-123295719D01*
X149929146Y-123292351D01*
X149922871Y-123283920D01*
X149919267Y-123278305D01*
X149905342Y-123260045D01*
X149886413Y-123241212D01*
X149865333Y-123224380D01*
X149846980Y-123213121D01*
X149819990Y-123202868D01*
X149789292Y-123196678D01*
X149758945Y-123195250D01*
X149748163Y-123196123D01*
G36*
X150876001Y-123740333D02*
X150947967Y-123740333D01*
X150947967Y-122872500D01*
X150876001Y-122872500D01*
X150876001Y-123740333D01*
X150876001Y-123740333D01*
G37*
X150876001Y-123740333D02*
X150947967Y-123740333D01*
X150947967Y-122872500D01*
X150876001Y-122872500D01*
X150876001Y-123740333D01*
G36*
X152103709Y-123306726D02*
X152080591Y-123337969D01*
X152061295Y-123363362D01*
X152046023Y-123382655D01*
X152034976Y-123395599D01*
X152028355Y-123401944D01*
X152026550Y-123402443D01*
X152023077Y-123398059D01*
X152015326Y-123387738D01*
X152003979Y-123372406D01*
X151989718Y-123352989D01*
X151973225Y-123330411D01*
X151955181Y-123305598D01*
X151953810Y-123303709D01*
X151885145Y-123209050D01*
X151842006Y-123207843D01*
X151824059Y-123207581D01*
X151809765Y-123207827D01*
X151800897Y-123208523D01*
X151798867Y-123209260D01*
X151801356Y-123213115D01*
X151808429Y-123222884D01*
X151819495Y-123237782D01*
X151833963Y-123257020D01*
X151851241Y-123279813D01*
X151870739Y-123305374D01*
X151887758Y-123327571D01*
X151908748Y-123354974D01*
X151928104Y-123380404D01*
X151945213Y-123403045D01*
X151959463Y-123422081D01*
X151970243Y-123436695D01*
X151976940Y-123446070D01*
X151978942Y-123449234D01*
X151976940Y-123454038D01*
X151969949Y-123464868D01*
X151958351Y-123481206D01*
X151942528Y-123502535D01*
X151922861Y-123528337D01*
X151899733Y-123558093D01*
X151882642Y-123579792D01*
X151859743Y-123608732D01*
X151837962Y-123636267D01*
X151817988Y-123661523D01*
X151800510Y-123683630D01*
X151786218Y-123701717D01*
X151775801Y-123714911D01*
X151769947Y-123722341D01*
X151769936Y-123722354D01*
X151755822Y-123740333D01*
X151847598Y-123740333D01*
X151938591Y-123621871D01*
X151959752Y-123594397D01*
X151979289Y-123569174D01*
X151996604Y-123546962D01*
X152011102Y-123528521D01*
X152022186Y-123514610D01*
X152029259Y-123505987D01*
X152031701Y-123503376D01*
X152034645Y-123506630D01*
X152042068Y-123515898D01*
X152053377Y-123530411D01*
X152067981Y-123549400D01*
X152085289Y-123572099D01*
X152104710Y-123597737D01*
X152122717Y-123621639D01*
X152211617Y-123739937D01*
X152252892Y-123740135D01*
X152270419Y-123739983D01*
X152284250Y-123739414D01*
X152292571Y-123738527D01*
X152294167Y-123737853D01*
X152291670Y-123734075D01*
X152284536Y-123724304D01*
X152273301Y-123709250D01*
X152258501Y-123689621D01*
X152240673Y-123666129D01*
X152220351Y-123639482D01*
X152198073Y-123610391D01*
X152186236Y-123594978D01*
X152163177Y-123564934D01*
X152141801Y-123536991D01*
X152122646Y-123511856D01*
X152106246Y-123490237D01*
X152093139Y-123472841D01*
X152083859Y-123460375D01*
X152078942Y-123453548D01*
X152078287Y-123452466D01*
X152080792Y-123448755D01*
X152087925Y-123439134D01*
X152099104Y-123424368D01*
X152113744Y-123405220D01*
X152131262Y-123382453D01*
X152151075Y-123356830D01*
X152171402Y-123330654D01*
X152192848Y-123303037D01*
X152212552Y-123277558D01*
X152229931Y-123254980D01*
X152244402Y-123236066D01*
X152255380Y-123221578D01*
X152262283Y-123212278D01*
X152264534Y-123208945D01*
X152260594Y-123208114D01*
X152249949Y-123207450D01*
X152234358Y-123207034D01*
X152220663Y-123206933D01*
X152176793Y-123206933D01*
X152103709Y-123306726D01*
X152103709Y-123306726D01*
G37*
X152103709Y-123306726D02*
X152080591Y-123337969D01*
X152061295Y-123363362D01*
X152046023Y-123382655D01*
X152034976Y-123395599D01*
X152028355Y-123401944D01*
X152026550Y-123402443D01*
X152023077Y-123398059D01*
X152015326Y-123387738D01*
X152003979Y-123372406D01*
X151989718Y-123352989D01*
X151973225Y-123330411D01*
X151955181Y-123305598D01*
X151953810Y-123303709D01*
X151885145Y-123209050D01*
X151842006Y-123207843D01*
X151824059Y-123207581D01*
X151809765Y-123207827D01*
X151800897Y-123208523D01*
X151798867Y-123209260D01*
X151801356Y-123213115D01*
X151808429Y-123222884D01*
X151819495Y-123237782D01*
X151833963Y-123257020D01*
X151851241Y-123279813D01*
X151870739Y-123305374D01*
X151887758Y-123327571D01*
X151908748Y-123354974D01*
X151928104Y-123380404D01*
X151945213Y-123403045D01*
X151959463Y-123422081D01*
X151970243Y-123436695D01*
X151976940Y-123446070D01*
X151978942Y-123449234D01*
X151976940Y-123454038D01*
X151969949Y-123464868D01*
X151958351Y-123481206D01*
X151942528Y-123502535D01*
X151922861Y-123528337D01*
X151899733Y-123558093D01*
X151882642Y-123579792D01*
X151859743Y-123608732D01*
X151837962Y-123636267D01*
X151817988Y-123661523D01*
X151800510Y-123683630D01*
X151786218Y-123701717D01*
X151775801Y-123714911D01*
X151769947Y-123722341D01*
X151769936Y-123722354D01*
X151755822Y-123740333D01*
X151847598Y-123740333D01*
X151938591Y-123621871D01*
X151959752Y-123594397D01*
X151979289Y-123569174D01*
X151996604Y-123546962D01*
X152011102Y-123528521D01*
X152022186Y-123514610D01*
X152029259Y-123505987D01*
X152031701Y-123503376D01*
X152034645Y-123506630D01*
X152042068Y-123515898D01*
X152053377Y-123530411D01*
X152067981Y-123549400D01*
X152085289Y-123572099D01*
X152104710Y-123597737D01*
X152122717Y-123621639D01*
X152211617Y-123739937D01*
X152252892Y-123740135D01*
X152270419Y-123739983D01*
X152284250Y-123739414D01*
X152292571Y-123738527D01*
X152294167Y-123737853D01*
X152291670Y-123734075D01*
X152284536Y-123724304D01*
X152273301Y-123709250D01*
X152258501Y-123689621D01*
X152240673Y-123666129D01*
X152220351Y-123639482D01*
X152198073Y-123610391D01*
X152186236Y-123594978D01*
X152163177Y-123564934D01*
X152141801Y-123536991D01*
X152122646Y-123511856D01*
X152106246Y-123490237D01*
X152093139Y-123472841D01*
X152083859Y-123460375D01*
X152078942Y-123453548D01*
X152078287Y-123452466D01*
X152080792Y-123448755D01*
X152087925Y-123439134D01*
X152099104Y-123424368D01*
X152113744Y-123405220D01*
X152131262Y-123382453D01*
X152151075Y-123356830D01*
X152171402Y-123330654D01*
X152192848Y-123303037D01*
X152212552Y-123277558D01*
X152229931Y-123254980D01*
X152244402Y-123236066D01*
X152255380Y-123221578D01*
X152262283Y-123212278D01*
X152264534Y-123208945D01*
X152260594Y-123208114D01*
X152249949Y-123207450D01*
X152234358Y-123207034D01*
X152220663Y-123206933D01*
X152176793Y-123206933D01*
X152103709Y-123306726D01*
G36*
X148927133Y-123638353D02*
X148908615Y-123649732D01*
X148904711Y-123653376D01*
X148895526Y-123664060D01*
X148891435Y-123674380D01*
X148890567Y-123687203D01*
X148893682Y-123710317D01*
X148902936Y-123727611D01*
X148918193Y-123738949D01*
X148939317Y-123744195D01*
X148947930Y-123744567D01*
X148961790Y-123743489D01*
X148971959Y-123739014D01*
X148981758Y-123730423D01*
X148994911Y-123712292D01*
X149000163Y-123692926D01*
X148997488Y-123673582D01*
X148986861Y-123655516D01*
X148983375Y-123651759D01*
X148965769Y-123639341D01*
X148946603Y-123634880D01*
X148927133Y-123638353D01*
X148927133Y-123638353D01*
G37*
X148927133Y-123638353D02*
X148908615Y-123649732D01*
X148904711Y-123653376D01*
X148895526Y-123664060D01*
X148891435Y-123674380D01*
X148890567Y-123687203D01*
X148893682Y-123710317D01*
X148902936Y-123727611D01*
X148918193Y-123738949D01*
X148939317Y-123744195D01*
X148947930Y-123744567D01*
X148961790Y-123743489D01*
X148971959Y-123739014D01*
X148981758Y-123730423D01*
X148994911Y-123712292D01*
X149000163Y-123692926D01*
X148997488Y-123673582D01*
X148986861Y-123655516D01*
X148983375Y-123651759D01*
X148965769Y-123639341D01*
X148946603Y-123634880D01*
X148927133Y-123638353D01*
G36*
X147840527Y-123201252D02*
X147795569Y-123214106D01*
X147754106Y-123233539D01*
X147729164Y-123249972D01*
X147694171Y-123281195D01*
X147666297Y-123317000D01*
X147645543Y-123357383D01*
X147631913Y-123402338D01*
X147625408Y-123451862D01*
X147624800Y-123473633D01*
X147628133Y-123523934D01*
X147638280Y-123569494D01*
X147655465Y-123610885D01*
X147679911Y-123648681D01*
X147703478Y-123675348D01*
X147737638Y-123703796D01*
X147776803Y-123726058D01*
X147819911Y-123741849D01*
X147865897Y-123750890D01*
X147913700Y-123752896D01*
X147962256Y-123747587D01*
X147969817Y-123746083D01*
X148014573Y-123732467D01*
X148055337Y-123711672D01*
X148091497Y-123684284D01*
X148122443Y-123650884D01*
X148147566Y-123612057D01*
X148166255Y-123568387D01*
X148170612Y-123554082D01*
X148176723Y-123522621D01*
X148179469Y-123486618D01*
X148178882Y-123451621D01*
X148110302Y-123451621D01*
X148110288Y-123493389D01*
X148103163Y-123535033D01*
X148088908Y-123575107D01*
X148068108Y-123609858D01*
X148040973Y-123639064D01*
X148007716Y-123662501D01*
X147968547Y-123679949D01*
X147963700Y-123681552D01*
X147940185Y-123686641D01*
X147912145Y-123689032D01*
X147883089Y-123688688D01*
X147856530Y-123685573D01*
X147844644Y-123682779D01*
X147805660Y-123667172D01*
X147770920Y-123644822D01*
X147741449Y-123616516D01*
X147720838Y-123587568D01*
X147711010Y-123566374D01*
X147702548Y-123539946D01*
X147696251Y-123511498D01*
X147692920Y-123484242D01*
X147692596Y-123474014D01*
X147696498Y-123431028D01*
X147707575Y-123391286D01*
X147725185Y-123355453D01*
X147748686Y-123324192D01*
X147777435Y-123298165D01*
X147810790Y-123278037D01*
X147848108Y-123264470D01*
X147888747Y-123258128D01*
X147902084Y-123257733D01*
X147943486Y-123261604D01*
X147981541Y-123272735D01*
X148015726Y-123290406D01*
X148045518Y-123313896D01*
X148070395Y-123342483D01*
X148089833Y-123375447D01*
X148103310Y-123412067D01*
X148110302Y-123451621D01*
X148178882Y-123451621D01*
X148178843Y-123449305D01*
X148174835Y-123413914D01*
X148171019Y-123395780D01*
X148155442Y-123351122D01*
X148132981Y-123310800D01*
X148104278Y-123275465D01*
X148069977Y-123245771D01*
X148030720Y-123222367D01*
X147987150Y-123205907D01*
X147982517Y-123204651D01*
X147935386Y-123196278D01*
X147887594Y-123195227D01*
X147840527Y-123201252D01*
X147840527Y-123201252D01*
G37*
X147840527Y-123201252D02*
X147795569Y-123214106D01*
X147754106Y-123233539D01*
X147729164Y-123249972D01*
X147694171Y-123281195D01*
X147666297Y-123317000D01*
X147645543Y-123357383D01*
X147631913Y-123402338D01*
X147625408Y-123451862D01*
X147624800Y-123473633D01*
X147628133Y-123523934D01*
X147638280Y-123569494D01*
X147655465Y-123610885D01*
X147679911Y-123648681D01*
X147703478Y-123675348D01*
X147737638Y-123703796D01*
X147776803Y-123726058D01*
X147819911Y-123741849D01*
X147865897Y-123750890D01*
X147913700Y-123752896D01*
X147962256Y-123747587D01*
X147969817Y-123746083D01*
X148014573Y-123732467D01*
X148055337Y-123711672D01*
X148091497Y-123684284D01*
X148122443Y-123650884D01*
X148147566Y-123612057D01*
X148166255Y-123568387D01*
X148170612Y-123554082D01*
X148176723Y-123522621D01*
X148179469Y-123486618D01*
X148178882Y-123451621D01*
X148110302Y-123451621D01*
X148110288Y-123493389D01*
X148103163Y-123535033D01*
X148088908Y-123575107D01*
X148068108Y-123609858D01*
X148040973Y-123639064D01*
X148007716Y-123662501D01*
X147968547Y-123679949D01*
X147963700Y-123681552D01*
X147940185Y-123686641D01*
X147912145Y-123689032D01*
X147883089Y-123688688D01*
X147856530Y-123685573D01*
X147844644Y-123682779D01*
X147805660Y-123667172D01*
X147770920Y-123644822D01*
X147741449Y-123616516D01*
X147720838Y-123587568D01*
X147711010Y-123566374D01*
X147702548Y-123539946D01*
X147696251Y-123511498D01*
X147692920Y-123484242D01*
X147692596Y-123474014D01*
X147696498Y-123431028D01*
X147707575Y-123391286D01*
X147725185Y-123355453D01*
X147748686Y-123324192D01*
X147777435Y-123298165D01*
X147810790Y-123278037D01*
X147848108Y-123264470D01*
X147888747Y-123258128D01*
X147902084Y-123257733D01*
X147943486Y-123261604D01*
X147981541Y-123272735D01*
X148015726Y-123290406D01*
X148045518Y-123313896D01*
X148070395Y-123342483D01*
X148089833Y-123375447D01*
X148103310Y-123412067D01*
X148110302Y-123451621D01*
X148178882Y-123451621D01*
X148178843Y-123449305D01*
X148174835Y-123413914D01*
X148171019Y-123395780D01*
X148155442Y-123351122D01*
X148132981Y-123310800D01*
X148104278Y-123275465D01*
X148069977Y-123245771D01*
X148030720Y-123222367D01*
X147987150Y-123205907D01*
X147982517Y-123204651D01*
X147935386Y-123196278D01*
X147887594Y-123195227D01*
X147840527Y-123201252D01*
G36*
X148393749Y-123202268D02*
X148351018Y-123216261D01*
X148311730Y-123237279D01*
X148279973Y-123262156D01*
X148267266Y-123274135D01*
X148259997Y-123281838D01*
X148257336Y-123286678D01*
X148258456Y-123290073D01*
X148261917Y-123292995D01*
X148270055Y-123299081D01*
X148281697Y-123307939D01*
X148289332Y-123313803D01*
X148308281Y-123328416D01*
X148333782Y-123307182D01*
X148368384Y-123282780D01*
X148403697Y-123266737D01*
X148440074Y-123258951D01*
X148477870Y-123259322D01*
X148493588Y-123261756D01*
X148533040Y-123273439D01*
X148568078Y-123291828D01*
X148598246Y-123316140D01*
X148623086Y-123345597D01*
X148642143Y-123379418D01*
X148654960Y-123416823D01*
X148661080Y-123457031D01*
X148660047Y-123499263D01*
X148653496Y-123535033D01*
X148639301Y-123574664D01*
X148618656Y-123609292D01*
X148592284Y-123638379D01*
X148560908Y-123661393D01*
X148525249Y-123677797D01*
X148486031Y-123687058D01*
X148445946Y-123688741D01*
X148425159Y-123687214D01*
X148409225Y-123684393D01*
X148394544Y-123679423D01*
X148381390Y-123673378D01*
X148363019Y-123662758D01*
X148343855Y-123649243D01*
X148331394Y-123638774D01*
X148309020Y-123617767D01*
X148296052Y-123627880D01*
X148284021Y-123637513D01*
X148270997Y-123648292D01*
X148268770Y-123650179D01*
X148254456Y-123662365D01*
X148283314Y-123688808D01*
X148319035Y-123715951D01*
X148358727Y-123735807D01*
X148401824Y-123748240D01*
X148447766Y-123753113D01*
X148495987Y-123750290D01*
X148520150Y-123746083D01*
X148564907Y-123732467D01*
X148605670Y-123711672D01*
X148641830Y-123684284D01*
X148672777Y-123650884D01*
X148697900Y-123612057D01*
X148716588Y-123568387D01*
X148720945Y-123554082D01*
X148727056Y-123522621D01*
X148729802Y-123486618D01*
X148729176Y-123449305D01*
X148725168Y-123413914D01*
X148721352Y-123395780D01*
X148705775Y-123351122D01*
X148683314Y-123310800D01*
X148654612Y-123275465D01*
X148620311Y-123245771D01*
X148581053Y-123222367D01*
X148537483Y-123205907D01*
X148532850Y-123204651D01*
X148485640Y-123196241D01*
X148438948Y-123195521D01*
X148393749Y-123202268D01*
X148393749Y-123202268D01*
G37*
X148393749Y-123202268D02*
X148351018Y-123216261D01*
X148311730Y-123237279D01*
X148279973Y-123262156D01*
X148267266Y-123274135D01*
X148259997Y-123281838D01*
X148257336Y-123286678D01*
X148258456Y-123290073D01*
X148261917Y-123292995D01*
X148270055Y-123299081D01*
X148281697Y-123307939D01*
X148289332Y-123313803D01*
X148308281Y-123328416D01*
X148333782Y-123307182D01*
X148368384Y-123282780D01*
X148403697Y-123266737D01*
X148440074Y-123258951D01*
X148477870Y-123259322D01*
X148493588Y-123261756D01*
X148533040Y-123273439D01*
X148568078Y-123291828D01*
X148598246Y-123316140D01*
X148623086Y-123345597D01*
X148642143Y-123379418D01*
X148654960Y-123416823D01*
X148661080Y-123457031D01*
X148660047Y-123499263D01*
X148653496Y-123535033D01*
X148639301Y-123574664D01*
X148618656Y-123609292D01*
X148592284Y-123638379D01*
X148560908Y-123661393D01*
X148525249Y-123677797D01*
X148486031Y-123687058D01*
X148445946Y-123688741D01*
X148425159Y-123687214D01*
X148409225Y-123684393D01*
X148394544Y-123679423D01*
X148381390Y-123673378D01*
X148363019Y-123662758D01*
X148343855Y-123649243D01*
X148331394Y-123638774D01*
X148309020Y-123617767D01*
X148296052Y-123627880D01*
X148284021Y-123637513D01*
X148270997Y-123648292D01*
X148268770Y-123650179D01*
X148254456Y-123662365D01*
X148283314Y-123688808D01*
X148319035Y-123715951D01*
X148358727Y-123735807D01*
X148401824Y-123748240D01*
X148447766Y-123753113D01*
X148495987Y-123750290D01*
X148520150Y-123746083D01*
X148564907Y-123732467D01*
X148605670Y-123711672D01*
X148641830Y-123684284D01*
X148672777Y-123650884D01*
X148697900Y-123612057D01*
X148716588Y-123568387D01*
X148720945Y-123554082D01*
X148727056Y-123522621D01*
X148729802Y-123486618D01*
X148729176Y-123449305D01*
X148725168Y-123413914D01*
X148721352Y-123395780D01*
X148705775Y-123351122D01*
X148683314Y-123310800D01*
X148654612Y-123275465D01*
X148620311Y-123245771D01*
X148581053Y-123222367D01*
X148537483Y-123205907D01*
X148532850Y-123204651D01*
X148485640Y-123196241D01*
X148438948Y-123195521D01*
X148393749Y-123202268D01*
G36*
X149378868Y-123196784D02*
X149343923Y-123201099D01*
X149317101Y-123207823D01*
X149275925Y-123225680D01*
X149240131Y-123249848D01*
X149210038Y-123279852D01*
X149185965Y-123315217D01*
X149168231Y-123355469D01*
X149157153Y-123400132D01*
X149153051Y-123448733D01*
X149153034Y-123452244D01*
X149153034Y-123490567D01*
X149597534Y-123490567D01*
X149597471Y-123500092D01*
X149595753Y-123515290D01*
X149591337Y-123535030D01*
X149585103Y-123556176D01*
X149577927Y-123575592D01*
X149573850Y-123584489D01*
X149560300Y-123605920D01*
X149541671Y-123628263D01*
X149520514Y-123648753D01*
X149500683Y-123663802D01*
X149471585Y-123677895D01*
X149437841Y-123686536D01*
X149401436Y-123689540D01*
X149364352Y-123686721D01*
X149333137Y-123679408D01*
X149296149Y-123664416D01*
X149264822Y-123644341D01*
X149238483Y-123619336D01*
X149218354Y-123596752D01*
X149194161Y-123616355D01*
X149182361Y-123626644D01*
X149173748Y-123635546D01*
X149170009Y-123641295D01*
X149169967Y-123641663D01*
X149172793Y-123646905D01*
X149180415Y-123656509D01*
X149191555Y-123668943D01*
X149200659Y-123678407D01*
X149229598Y-123703996D01*
X149260360Y-123723512D01*
X149294298Y-123737483D01*
X149332768Y-123746436D01*
X149377123Y-123750898D01*
X149387984Y-123751335D01*
X149414751Y-123751715D01*
X149435837Y-123750841D01*
X149453961Y-123748504D01*
X149469348Y-123745143D01*
X149508691Y-123732408D01*
X149542712Y-123714995D01*
X149573903Y-123691491D01*
X149589108Y-123677120D01*
X149614370Y-123648482D01*
X149633536Y-123618767D01*
X149648046Y-123585397D01*
X149656874Y-123555895D01*
X149661844Y-123528765D01*
X149664646Y-123496707D01*
X149665245Y-123462838D01*
X149663604Y-123430276D01*
X149662661Y-123423496D01*
X149597534Y-123423496D01*
X149593442Y-123424235D01*
X149581733Y-123424923D01*
X149563255Y-123425542D01*
X149538859Y-123426078D01*
X149509392Y-123426514D01*
X149475705Y-123426834D01*
X149438647Y-123427022D01*
X149408959Y-123427066D01*
X149220384Y-123427066D01*
X149223048Y-123411191D01*
X149233598Y-123373126D01*
X149251700Y-123338736D01*
X149277031Y-123308631D01*
X149278413Y-123307315D01*
X149307385Y-123285517D01*
X149340586Y-123269951D01*
X149376440Y-123260803D01*
X149413373Y-123258257D01*
X149449809Y-123262498D01*
X149484173Y-123273713D01*
X149499053Y-123281382D01*
X149518744Y-123295503D01*
X149539203Y-123314441D01*
X149557607Y-123335346D01*
X149569629Y-123352703D01*
X149576175Y-123365288D01*
X149583210Y-123380989D01*
X149589747Y-123397307D01*
X149594801Y-123411740D01*
X149597387Y-123421788D01*
X149597534Y-123423496D01*
X149662661Y-123423496D01*
X149659689Y-123402140D01*
X149658672Y-123397497D01*
X149644289Y-123354340D01*
X149622682Y-123314412D01*
X149594729Y-123278661D01*
X149561309Y-123248037D01*
X149523301Y-123223488D01*
X149481584Y-123205962D01*
X149481117Y-123205815D01*
X149450533Y-123199104D01*
X149415427Y-123196107D01*
X149378868Y-123196784D01*
X149378868Y-123196784D01*
G37*
X149378868Y-123196784D02*
X149343923Y-123201099D01*
X149317101Y-123207823D01*
X149275925Y-123225680D01*
X149240131Y-123249848D01*
X149210038Y-123279852D01*
X149185965Y-123315217D01*
X149168231Y-123355469D01*
X149157153Y-123400132D01*
X149153051Y-123448733D01*
X149153034Y-123452244D01*
X149153034Y-123490567D01*
X149597534Y-123490567D01*
X149597471Y-123500092D01*
X149595753Y-123515290D01*
X149591337Y-123535030D01*
X149585103Y-123556176D01*
X149577927Y-123575592D01*
X149573850Y-123584489D01*
X149560300Y-123605920D01*
X149541671Y-123628263D01*
X149520514Y-123648753D01*
X149500683Y-123663802D01*
X149471585Y-123677895D01*
X149437841Y-123686536D01*
X149401436Y-123689540D01*
X149364352Y-123686721D01*
X149333137Y-123679408D01*
X149296149Y-123664416D01*
X149264822Y-123644341D01*
X149238483Y-123619336D01*
X149218354Y-123596752D01*
X149194161Y-123616355D01*
X149182361Y-123626644D01*
X149173748Y-123635546D01*
X149170009Y-123641295D01*
X149169967Y-123641663D01*
X149172793Y-123646905D01*
X149180415Y-123656509D01*
X149191555Y-123668943D01*
X149200659Y-123678407D01*
X149229598Y-123703996D01*
X149260360Y-123723512D01*
X149294298Y-123737483D01*
X149332768Y-123746436D01*
X149377123Y-123750898D01*
X149387984Y-123751335D01*
X149414751Y-123751715D01*
X149435837Y-123750841D01*
X149453961Y-123748504D01*
X149469348Y-123745143D01*
X149508691Y-123732408D01*
X149542712Y-123714995D01*
X149573903Y-123691491D01*
X149589108Y-123677120D01*
X149614370Y-123648482D01*
X149633536Y-123618767D01*
X149648046Y-123585397D01*
X149656874Y-123555895D01*
X149661844Y-123528765D01*
X149664646Y-123496707D01*
X149665245Y-123462838D01*
X149663604Y-123430276D01*
X149662661Y-123423496D01*
X149597534Y-123423496D01*
X149593442Y-123424235D01*
X149581733Y-123424923D01*
X149563255Y-123425542D01*
X149538859Y-123426078D01*
X149509392Y-123426514D01*
X149475705Y-123426834D01*
X149438647Y-123427022D01*
X149408959Y-123427066D01*
X149220384Y-123427066D01*
X149223048Y-123411191D01*
X149233598Y-123373126D01*
X149251700Y-123338736D01*
X149277031Y-123308631D01*
X149278413Y-123307315D01*
X149307385Y-123285517D01*
X149340586Y-123269951D01*
X149376440Y-123260803D01*
X149413373Y-123258257D01*
X149449809Y-123262498D01*
X149484173Y-123273713D01*
X149499053Y-123281382D01*
X149518744Y-123295503D01*
X149539203Y-123314441D01*
X149557607Y-123335346D01*
X149569629Y-123352703D01*
X149576175Y-123365288D01*
X149583210Y-123380989D01*
X149589747Y-123397307D01*
X149594801Y-123411740D01*
X149597387Y-123421788D01*
X149597534Y-123423496D01*
X149662661Y-123423496D01*
X149659689Y-123402140D01*
X149658672Y-123397497D01*
X149644289Y-123354340D01*
X149622682Y-123314412D01*
X149594729Y-123278661D01*
X149561309Y-123248037D01*
X149523301Y-123223488D01*
X149481584Y-123205962D01*
X149481117Y-123205815D01*
X149450533Y-123199104D01*
X149415427Y-123196107D01*
X149378868Y-123196784D01*
G36*
X150372060Y-123201252D02*
X150327102Y-123214106D01*
X150285639Y-123233539D01*
X150260697Y-123249972D01*
X150225704Y-123281195D01*
X150197830Y-123317000D01*
X150177076Y-123357383D01*
X150163446Y-123402338D01*
X150156941Y-123451862D01*
X150156334Y-123473633D01*
X150159666Y-123523934D01*
X150169813Y-123569494D01*
X150186998Y-123610885D01*
X150211444Y-123648681D01*
X150235011Y-123675348D01*
X150269171Y-123703796D01*
X150308337Y-123726058D01*
X150351444Y-123741849D01*
X150397430Y-123750890D01*
X150445233Y-123752896D01*
X150493789Y-123747587D01*
X150501351Y-123746083D01*
X150546107Y-123732467D01*
X150586870Y-123711672D01*
X150623030Y-123684284D01*
X150653977Y-123650884D01*
X150679100Y-123612057D01*
X150697788Y-123568387D01*
X150702145Y-123554082D01*
X150708256Y-123522621D01*
X150711002Y-123486618D01*
X150710415Y-123451621D01*
X150641836Y-123451621D01*
X150641822Y-123493389D01*
X150634696Y-123535033D01*
X150620442Y-123575107D01*
X150599641Y-123609858D01*
X150572506Y-123639064D01*
X150539249Y-123662501D01*
X150500080Y-123679949D01*
X150495233Y-123681552D01*
X150471719Y-123686641D01*
X150443678Y-123689032D01*
X150414623Y-123688688D01*
X150388063Y-123685573D01*
X150376177Y-123682779D01*
X150337193Y-123667172D01*
X150302454Y-123644822D01*
X150272982Y-123616516D01*
X150252371Y-123587568D01*
X150242543Y-123566374D01*
X150234081Y-123539946D01*
X150227785Y-123511498D01*
X150224453Y-123484242D01*
X150224130Y-123474014D01*
X150228031Y-123431028D01*
X150239108Y-123391286D01*
X150256719Y-123355453D01*
X150280219Y-123324192D01*
X150308968Y-123298165D01*
X150342323Y-123278037D01*
X150379641Y-123264470D01*
X150420281Y-123258128D01*
X150433617Y-123257733D01*
X150475019Y-123261604D01*
X150513074Y-123272735D01*
X150547259Y-123290406D01*
X150577051Y-123313896D01*
X150601928Y-123342483D01*
X150621366Y-123375447D01*
X150634843Y-123412067D01*
X150641836Y-123451621D01*
X150710415Y-123451621D01*
X150710376Y-123449305D01*
X150706368Y-123413914D01*
X150702552Y-123395780D01*
X150686975Y-123351122D01*
X150664514Y-123310800D01*
X150635812Y-123275465D01*
X150601511Y-123245771D01*
X150562253Y-123222367D01*
X150518683Y-123205907D01*
X150514051Y-123204651D01*
X150466919Y-123196278D01*
X150419128Y-123195227D01*
X150372060Y-123201252D01*
X150372060Y-123201252D01*
G37*
X150372060Y-123201252D02*
X150327102Y-123214106D01*
X150285639Y-123233539D01*
X150260697Y-123249972D01*
X150225704Y-123281195D01*
X150197830Y-123317000D01*
X150177076Y-123357383D01*
X150163446Y-123402338D01*
X150156941Y-123451862D01*
X150156334Y-123473633D01*
X150159666Y-123523934D01*
X150169813Y-123569494D01*
X150186998Y-123610885D01*
X150211444Y-123648681D01*
X150235011Y-123675348D01*
X150269171Y-123703796D01*
X150308337Y-123726058D01*
X150351444Y-123741849D01*
X150397430Y-123750890D01*
X150445233Y-123752896D01*
X150493789Y-123747587D01*
X150501351Y-123746083D01*
X150546107Y-123732467D01*
X150586870Y-123711672D01*
X150623030Y-123684284D01*
X150653977Y-123650884D01*
X150679100Y-123612057D01*
X150697788Y-123568387D01*
X150702145Y-123554082D01*
X150708256Y-123522621D01*
X150711002Y-123486618D01*
X150710415Y-123451621D01*
X150641836Y-123451621D01*
X150641822Y-123493389D01*
X150634696Y-123535033D01*
X150620442Y-123575107D01*
X150599641Y-123609858D01*
X150572506Y-123639064D01*
X150539249Y-123662501D01*
X150500080Y-123679949D01*
X150495233Y-123681552D01*
X150471719Y-123686641D01*
X150443678Y-123689032D01*
X150414623Y-123688688D01*
X150388063Y-123685573D01*
X150376177Y-123682779D01*
X150337193Y-123667172D01*
X150302454Y-123644822D01*
X150272982Y-123616516D01*
X150252371Y-123587568D01*
X150242543Y-123566374D01*
X150234081Y-123539946D01*
X150227785Y-123511498D01*
X150224453Y-123484242D01*
X150224130Y-123474014D01*
X150228031Y-123431028D01*
X150239108Y-123391286D01*
X150256719Y-123355453D01*
X150280219Y-123324192D01*
X150308968Y-123298165D01*
X150342323Y-123278037D01*
X150379641Y-123264470D01*
X150420281Y-123258128D01*
X150433617Y-123257733D01*
X150475019Y-123261604D01*
X150513074Y-123272735D01*
X150547259Y-123290406D01*
X150577051Y-123313896D01*
X150601928Y-123342483D01*
X150621366Y-123375447D01*
X150634843Y-123412067D01*
X150641836Y-123451621D01*
X150710415Y-123451621D01*
X150710376Y-123449305D01*
X150706368Y-123413914D01*
X150702552Y-123395780D01*
X150686975Y-123351122D01*
X150664514Y-123310800D01*
X150635812Y-123275465D01*
X150601511Y-123245771D01*
X150562253Y-123222367D01*
X150518683Y-123205907D01*
X150514051Y-123204651D01*
X150466919Y-123196278D01*
X150419128Y-123195227D01*
X150372060Y-123201252D01*
G36*
X152484667Y-123206933D02*
X152332267Y-123206933D01*
X152332267Y-123270433D01*
X152485003Y-123270433D01*
X152483777Y-123455641D01*
X152483466Y-123500200D01*
X152483152Y-123537090D01*
X152482797Y-123567110D01*
X152482361Y-123591057D01*
X152481806Y-123609730D01*
X152481094Y-123623926D01*
X152480184Y-123634444D01*
X152479039Y-123642083D01*
X152477620Y-123647639D01*
X152475887Y-123651911D01*
X152474084Y-123655224D01*
X152463614Y-123670178D01*
X152451959Y-123679810D01*
X152437036Y-123685112D01*
X152416761Y-123687075D01*
X152407084Y-123687152D01*
X152383582Y-123685870D01*
X152363238Y-123682682D01*
X152353599Y-123679931D01*
X152342274Y-123676131D01*
X152334784Y-123674318D01*
X152333287Y-123674403D01*
X152332254Y-123679014D01*
X152330882Y-123689804D01*
X152329456Y-123704506D01*
X152329361Y-123705627D01*
X152326863Y-123735424D01*
X152349673Y-123742489D01*
X152369190Y-123746971D01*
X152392527Y-123749989D01*
X152417005Y-123751428D01*
X152439945Y-123751177D01*
X152458670Y-123749122D01*
X152465617Y-123747382D01*
X152492975Y-123736017D01*
X152513786Y-123721649D01*
X152529843Y-123702742D01*
X152540532Y-123683183D01*
X152542813Y-123678080D01*
X152544712Y-123673024D01*
X152546271Y-123667220D01*
X152547528Y-123659868D01*
X152548526Y-123650173D01*
X152549303Y-123637336D01*
X152549901Y-123620559D01*
X152550359Y-123599047D01*
X152550718Y-123572000D01*
X152551019Y-123538621D01*
X152551301Y-123498114D01*
X152551502Y-123466225D01*
X152552721Y-123270433D01*
X152666700Y-123270433D01*
X152666700Y-123206933D01*
X152552400Y-123206933D01*
X152552400Y-123054533D01*
X152484667Y-123054533D01*
X152484667Y-123206933D01*
X152484667Y-123206933D01*
G37*
X152484667Y-123206933D02*
X152332267Y-123206933D01*
X152332267Y-123270433D01*
X152485003Y-123270433D01*
X152483777Y-123455641D01*
X152483466Y-123500200D01*
X152483152Y-123537090D01*
X152482797Y-123567110D01*
X152482361Y-123591057D01*
X152481806Y-123609730D01*
X152481094Y-123623926D01*
X152480184Y-123634444D01*
X152479039Y-123642083D01*
X152477620Y-123647639D01*
X152475887Y-123651911D01*
X152474084Y-123655224D01*
X152463614Y-123670178D01*
X152451959Y-123679810D01*
X152437036Y-123685112D01*
X152416761Y-123687075D01*
X152407084Y-123687152D01*
X152383582Y-123685870D01*
X152363238Y-123682682D01*
X152353599Y-123679931D01*
X152342274Y-123676131D01*
X152334784Y-123674318D01*
X152333287Y-123674403D01*
X152332254Y-123679014D01*
X152330882Y-123689804D01*
X152329456Y-123704506D01*
X152329361Y-123705627D01*
X152326863Y-123735424D01*
X152349673Y-123742489D01*
X152369190Y-123746971D01*
X152392527Y-123749989D01*
X152417005Y-123751428D01*
X152439945Y-123751177D01*
X152458670Y-123749122D01*
X152465617Y-123747382D01*
X152492975Y-123736017D01*
X152513786Y-123721649D01*
X152529843Y-123702742D01*
X152540532Y-123683183D01*
X152542813Y-123678080D01*
X152544712Y-123673024D01*
X152546271Y-123667220D01*
X152547528Y-123659868D01*
X152548526Y-123650173D01*
X152549303Y-123637336D01*
X152549901Y-123620559D01*
X152550359Y-123599047D01*
X152550718Y-123572000D01*
X152551019Y-123538621D01*
X152551301Y-123498114D01*
X152551502Y-123466225D01*
X152552721Y-123270433D01*
X152666700Y-123270433D01*
X152666700Y-123206933D01*
X152552400Y-123206933D01*
X152552400Y-123054533D01*
X152484667Y-123054533D01*
X152484667Y-123206933D01*
G36*
X151357471Y-123197292D02*
X151338701Y-123198626D01*
X151322760Y-123201160D01*
X151306837Y-123205279D01*
X151297217Y-123208308D01*
X151252208Y-123227191D01*
X151212763Y-123252233D01*
X151179204Y-123282943D01*
X151151851Y-123318831D01*
X151131027Y-123359409D01*
X151117054Y-123404184D01*
X151110252Y-123452669D01*
X151110161Y-123493266D01*
X151116680Y-123542047D01*
X151130363Y-123587199D01*
X151150779Y-123628141D01*
X151177495Y-123664292D01*
X151210079Y-123695071D01*
X151248099Y-123719896D01*
X151291123Y-123738186D01*
X151292652Y-123738681D01*
X151328733Y-123747303D01*
X151368410Y-123751813D01*
X151408230Y-123752022D01*
X151444743Y-123747739D01*
X151447501Y-123747179D01*
X151484891Y-123736158D01*
X151520792Y-123719653D01*
X151553322Y-123698804D01*
X151580602Y-123674754D01*
X151594744Y-123657783D01*
X151603866Y-123645083D01*
X151604000Y-123823942D01*
X151604134Y-124002800D01*
X151671867Y-124002800D01*
X151671867Y-123469123D01*
X151608497Y-123469123D01*
X151605667Y-123508789D01*
X151601885Y-123526374D01*
X151587845Y-123563992D01*
X151566621Y-123598646D01*
X151539276Y-123629273D01*
X151506877Y-123654813D01*
X151470489Y-123674203D01*
X151444574Y-123683180D01*
X151422295Y-123687185D01*
X151395385Y-123688869D01*
X151367356Y-123688237D01*
X151341717Y-123685292D01*
X151331232Y-123683044D01*
X151292828Y-123668899D01*
X151259168Y-123647976D01*
X151230716Y-123620802D01*
X151207934Y-123587904D01*
X151191287Y-123549808D01*
X151182301Y-123513703D01*
X151179065Y-123491962D01*
X151177978Y-123474305D01*
X151178955Y-123456650D01*
X151180815Y-123442157D01*
X151190013Y-123400257D01*
X151204756Y-123364244D01*
X151225569Y-123333185D01*
X151252979Y-123306146D01*
X151261204Y-123299695D01*
X151293755Y-123279379D01*
X151328370Y-123266248D01*
X151367020Y-123259588D01*
X151373417Y-123259094D01*
X151414876Y-123260217D01*
X151454021Y-123268673D01*
X151490201Y-123283699D01*
X151522763Y-123304532D01*
X151551055Y-123330410D01*
X151574427Y-123360570D01*
X151592225Y-123394251D01*
X151603799Y-123430689D01*
X151608497Y-123469123D01*
X151671867Y-123469123D01*
X151671867Y-123206933D01*
X151604134Y-123206933D01*
X151604134Y-123299897D01*
X151573442Y-123268826D01*
X151553442Y-123249972D01*
X151534991Y-123236026D01*
X151515076Y-123224767D01*
X151511001Y-123222806D01*
X151485131Y-123211602D01*
X151461624Y-123203958D01*
X151437722Y-123199316D01*
X151410669Y-123197122D01*
X151381884Y-123196775D01*
X151357471Y-123197292D01*
X151357471Y-123197292D01*
G37*
X151357471Y-123197292D02*
X151338701Y-123198626D01*
X151322760Y-123201160D01*
X151306837Y-123205279D01*
X151297217Y-123208308D01*
X151252208Y-123227191D01*
X151212763Y-123252233D01*
X151179204Y-123282943D01*
X151151851Y-123318831D01*
X151131027Y-123359409D01*
X151117054Y-123404184D01*
X151110252Y-123452669D01*
X151110161Y-123493266D01*
X151116680Y-123542047D01*
X151130363Y-123587199D01*
X151150779Y-123628141D01*
X151177495Y-123664292D01*
X151210079Y-123695071D01*
X151248099Y-123719896D01*
X151291123Y-123738186D01*
X151292652Y-123738681D01*
X151328733Y-123747303D01*
X151368410Y-123751813D01*
X151408230Y-123752022D01*
X151444743Y-123747739D01*
X151447501Y-123747179D01*
X151484891Y-123736158D01*
X151520792Y-123719653D01*
X151553322Y-123698804D01*
X151580602Y-123674754D01*
X151594744Y-123657783D01*
X151603866Y-123645083D01*
X151604000Y-123823942D01*
X151604134Y-124002800D01*
X151671867Y-124002800D01*
X151671867Y-123469123D01*
X151608497Y-123469123D01*
X151605667Y-123508789D01*
X151601885Y-123526374D01*
X151587845Y-123563992D01*
X151566621Y-123598646D01*
X151539276Y-123629273D01*
X151506877Y-123654813D01*
X151470489Y-123674203D01*
X151444574Y-123683180D01*
X151422295Y-123687185D01*
X151395385Y-123688869D01*
X151367356Y-123688237D01*
X151341717Y-123685292D01*
X151331232Y-123683044D01*
X151292828Y-123668899D01*
X151259168Y-123647976D01*
X151230716Y-123620802D01*
X151207934Y-123587904D01*
X151191287Y-123549808D01*
X151182301Y-123513703D01*
X151179065Y-123491962D01*
X151177978Y-123474305D01*
X151178955Y-123456650D01*
X151180815Y-123442157D01*
X151190013Y-123400257D01*
X151204756Y-123364244D01*
X151225569Y-123333185D01*
X151252979Y-123306146D01*
X151261204Y-123299695D01*
X151293755Y-123279379D01*
X151328370Y-123266248D01*
X151367020Y-123259588D01*
X151373417Y-123259094D01*
X151414876Y-123260217D01*
X151454021Y-123268673D01*
X151490201Y-123283699D01*
X151522763Y-123304532D01*
X151551055Y-123330410D01*
X151574427Y-123360570D01*
X151592225Y-123394251D01*
X151603799Y-123430689D01*
X151608497Y-123469123D01*
X151671867Y-123469123D01*
X151671867Y-123206933D01*
X151604134Y-123206933D01*
X151604134Y-123299897D01*
X151573442Y-123268826D01*
X151553442Y-123249972D01*
X151534991Y-123236026D01*
X151515076Y-123224767D01*
X151511001Y-123222806D01*
X151485131Y-123211602D01*
X151461624Y-123203958D01*
X151437722Y-123199316D01*
X151410669Y-123197122D01*
X151381884Y-123196775D01*
X151357471Y-123197292D01*
G04 #@! TD*
M02*
