G04 #@! TF.GenerationSoftware,KiCad,Pcbnew,5.0.0-fee4fd1~66~ubuntu18.04.1*
G04 #@! TF.CreationDate,2018-08-17T17:18:45-07:00*
G04 #@! TF.ProjectId,RPi FS HAT,525069204653204841542E6B69636164,2*
G04 #@! TF.SameCoordinates,Original*
G04 #@! TF.FileFunction,Copper,L2,Bot,Signal*
G04 #@! TF.FilePolarity,Positive*
%FSLAX46Y46*%
G04 Gerber Fmt 4.6, Leading zero omitted, Abs format (unit mm)*
G04 Created by KiCad (PCBNEW 5.0.0-fee4fd1~66~ubuntu18.04.1) date Fri Aug 17 17:18:45 2018*
%MOMM*%
%LPD*%
G01*
G04 APERTURE LIST*
G04 #@! TA.AperFunction,ComponentPad*
%ADD10R,1.700000X1.700000*%
G04 #@! TD*
G04 #@! TA.AperFunction,ComponentPad*
%ADD11O,1.700000X1.700000*%
G04 #@! TD*
G04 #@! TA.AperFunction,ComponentPad*
%ADD12O,1.524000X1.524000*%
G04 #@! TD*
G04 #@! TA.AperFunction,ViaPad*
%ADD13C,1.000000*%
G04 #@! TD*
G04 #@! TA.AperFunction,ViaPad*
%ADD14C,0.800000*%
G04 #@! TD*
G04 #@! TA.AperFunction,Conductor*
%ADD15C,0.300000*%
G04 #@! TD*
G04 #@! TA.AperFunction,Conductor*
%ADD16C,0.250000*%
G04 #@! TD*
G04 #@! TA.AperFunction,Conductor*
%ADD17C,0.254000*%
G04 #@! TD*
G04 APERTURE END LIST*
D10*
G04 #@! TO.P,J1,1*
G04 #@! TO.N,/3V3*
X147955000Y-118110000D03*
D11*
G04 #@! TO.P,J1,2*
G04 #@! TO.N,Net-(J1-Pad2)*
X147955000Y-115570000D03*
G04 #@! TO.P,J1,3*
G04 #@! TO.N,Net-(J1-Pad3)*
X150495000Y-118110000D03*
G04 #@! TO.P,J1,4*
G04 #@! TO.N,Net-(J1-Pad4)*
X150495000Y-115570000D03*
G04 #@! TO.P,J1,5*
G04 #@! TO.N,Net-(J1-Pad5)*
X153035000Y-118110000D03*
G04 #@! TO.P,J1,6*
G04 #@! TO.N,GND*
X153035000Y-115570000D03*
G04 #@! TO.P,J1,7*
G04 #@! TO.N,/led*
X155575000Y-118110000D03*
G04 #@! TO.P,J1,8*
G04 #@! TO.N,/button_input*
X155575000Y-115570000D03*
G04 #@! TO.P,J1,9*
G04 #@! TO.N,GND*
X158115000Y-118110000D03*
G04 #@! TO.P,J1,10*
G04 #@! TO.N,Net-(J1-Pad10)*
X158115000Y-115570000D03*
G04 #@! TO.P,J1,11*
G04 #@! TO.N,/sensor_data*
X160655000Y-118110000D03*
G04 #@! TO.P,J1,12*
G04 #@! TO.N,Net-(J1-Pad12)*
X160655000Y-115570000D03*
G04 #@! TO.P,J1,13*
G04 #@! TO.N,Net-(J1-Pad13)*
X163195000Y-118110000D03*
G04 #@! TO.P,J1,14*
G04 #@! TO.N,Net-(J1-Pad14)*
X163195000Y-115570000D03*
G04 #@! TO.P,J1,15*
G04 #@! TO.N,Net-(J1-Pad15)*
X165735000Y-118110000D03*
G04 #@! TO.P,J1,16*
G04 #@! TO.N,Net-(J1-Pad16)*
X165735000Y-115570000D03*
G04 #@! TD*
D12*
G04 #@! TO.P,SW1,1*
G04 #@! TO.N,/3V3*
X147624800Y-125247400D03*
X154127200Y-125247400D03*
G04 #@! TO.P,SW1,2*
G04 #@! TO.N,/button_input*
X147624800Y-129768600D03*
X154127200Y-129768600D03*
G04 #@! TD*
D10*
G04 #@! TO.P,U1,1*
G04 #@! TO.N,/3V3*
X165608000Y-129032000D03*
D11*
G04 #@! TO.P,U1,2*
G04 #@! TO.N,/sensor_data*
X163068000Y-129032000D03*
G04 #@! TO.P,U1,3*
G04 #@! TO.N,N/C*
X160528000Y-129032000D03*
G04 #@! TO.P,U1,4*
G04 #@! TO.N,GND*
X157988000Y-129032000D03*
G04 #@! TD*
D13*
G04 #@! TO.N,GND*
X163576000Y-120396000D03*
X148336000Y-120396000D03*
D14*
G04 #@! TO.N,/led*
X156972000Y-121412000D03*
X151892000Y-123952000D03*
G04 #@! TO.N,/button_input*
X149860000Y-126492000D03*
X149860000Y-124397400D03*
G04 #@! TD*
D15*
G04 #@! TO.N,GND*
X157988000Y-118237000D02*
X158115000Y-118110000D01*
X157988000Y-129032000D02*
X157988000Y-118237000D01*
X163576000Y-120396000D02*
X158496000Y-120396000D01*
X158115000Y-120015000D02*
X158115000Y-118110000D01*
X158496000Y-120396000D02*
X158115000Y-120015000D01*
X148336000Y-120396000D02*
X157480000Y-120396000D01*
X158115000Y-119761000D02*
X158115000Y-118110000D01*
X157480000Y-120396000D02*
X158115000Y-119761000D01*
D16*
G04 #@! TO.N,/led*
X156972000Y-121412000D02*
X154432000Y-123952000D01*
X154432000Y-123952000D02*
X151892000Y-123952000D01*
G04 #@! TO.N,/button_input*
X149860000Y-126492000D02*
X149860000Y-124460000D01*
X149860000Y-124460000D02*
X149860000Y-124397400D01*
G04 #@! TO.N,/sensor_data*
X163068000Y-129032000D02*
X163068000Y-122936000D01*
X164501001Y-121502999D02*
X164501001Y-119951999D01*
X163068000Y-122936000D02*
X164501001Y-121502999D01*
X161504999Y-118959999D02*
X160655000Y-118110000D01*
X164020001Y-119470999D02*
X162015999Y-119470999D01*
X162015999Y-119470999D02*
X161504999Y-118959999D01*
X164501001Y-119951999D02*
X164020001Y-119470999D01*
G04 #@! TD*
D17*
G04 #@! TO.N,GND*
G36*
X167231292Y-114060287D02*
X167315468Y-114116532D01*
X167371713Y-114200709D01*
X167406000Y-114373081D01*
X167406001Y-129576781D01*
X166999517Y-130322000D01*
X166966195Y-130322000D01*
X167086300Y-130142250D01*
X167138067Y-129882000D01*
X167138067Y-128182000D01*
X167086300Y-127921750D01*
X166938880Y-127701120D01*
X166718250Y-127553700D01*
X166458000Y-127501933D01*
X164758000Y-127501933D01*
X164497750Y-127553700D01*
X164277120Y-127701120D01*
X164131928Y-127918415D01*
X163860000Y-127736718D01*
X163860000Y-123264056D01*
X165005875Y-122118183D01*
X165072001Y-122073999D01*
X165116185Y-122007873D01*
X165116187Y-122007871D01*
X165247048Y-121812023D01*
X165247049Y-121812022D01*
X165293001Y-121581004D01*
X165293001Y-121581000D01*
X165308516Y-121503000D01*
X165293001Y-121425000D01*
X165293001Y-120030004D01*
X165308517Y-119951999D01*
X165247049Y-119642975D01*
X165182845Y-119546889D01*
X165585592Y-119627000D01*
X165884408Y-119627000D01*
X166326904Y-119538982D01*
X166828695Y-119203695D01*
X167163982Y-118701904D01*
X167281719Y-118110000D01*
X167163982Y-117518096D01*
X166828695Y-117016305D01*
X166564837Y-116840000D01*
X166828695Y-116663695D01*
X167163982Y-116161904D01*
X167281719Y-115570000D01*
X167163982Y-114978096D01*
X166828695Y-114476305D01*
X166326904Y-114141018D01*
X165884408Y-114053000D01*
X165585592Y-114053000D01*
X165143096Y-114141018D01*
X164641305Y-114476305D01*
X164465000Y-114740163D01*
X164288695Y-114476305D01*
X163786904Y-114141018D01*
X163344408Y-114053000D01*
X163045592Y-114053000D01*
X162603096Y-114141018D01*
X162101305Y-114476305D01*
X161925000Y-114740163D01*
X161748695Y-114476305D01*
X161246904Y-114141018D01*
X160804408Y-114053000D01*
X160505592Y-114053000D01*
X160063096Y-114141018D01*
X159561305Y-114476305D01*
X159385000Y-114740163D01*
X159208695Y-114476305D01*
X158706904Y-114141018D01*
X158264408Y-114053000D01*
X157965592Y-114053000D01*
X157523096Y-114141018D01*
X157021305Y-114476305D01*
X156845000Y-114740163D01*
X156668695Y-114476305D01*
X156166904Y-114141018D01*
X155724408Y-114053000D01*
X155425592Y-114053000D01*
X154983096Y-114141018D01*
X154481305Y-114476305D01*
X154275273Y-114784654D01*
X154230183Y-114688642D01*
X153801924Y-114298355D01*
X153391890Y-114128524D01*
X153162000Y-114249845D01*
X153162000Y-115443000D01*
X153182000Y-115443000D01*
X153182000Y-115697000D01*
X153162000Y-115697000D01*
X153162000Y-115717000D01*
X152908000Y-115717000D01*
X152908000Y-115697000D01*
X152888000Y-115697000D01*
X152888000Y-115443000D01*
X152908000Y-115443000D01*
X152908000Y-114249845D01*
X152678110Y-114128524D01*
X152268076Y-114298355D01*
X151839817Y-114688642D01*
X151794727Y-114784654D01*
X151588695Y-114476305D01*
X151086904Y-114141018D01*
X150644408Y-114053000D01*
X150345592Y-114053000D01*
X149903096Y-114141018D01*
X149401305Y-114476305D01*
X149225000Y-114740163D01*
X149048695Y-114476305D01*
X148546904Y-114141018D01*
X148104408Y-114053000D01*
X147805592Y-114053000D01*
X147363096Y-114141018D01*
X146861305Y-114476305D01*
X146526018Y-114978096D01*
X146408281Y-115570000D01*
X146526018Y-116161904D01*
X146841415Y-116633928D01*
X146624120Y-116779120D01*
X146476700Y-116999750D01*
X146424933Y-117260000D01*
X146424933Y-118960000D01*
X146476700Y-119220250D01*
X146624120Y-119440880D01*
X146844750Y-119588300D01*
X147105000Y-119640067D01*
X148805000Y-119640067D01*
X149065250Y-119588300D01*
X149285880Y-119440880D01*
X149431072Y-119223585D01*
X149903096Y-119538982D01*
X150345592Y-119627000D01*
X150644408Y-119627000D01*
X151086904Y-119538982D01*
X151588695Y-119203695D01*
X151765000Y-118939837D01*
X151941305Y-119203695D01*
X152443096Y-119538982D01*
X152885592Y-119627000D01*
X153184408Y-119627000D01*
X153626904Y-119538982D01*
X154128695Y-119203695D01*
X154305000Y-118939837D01*
X154481305Y-119203695D01*
X154983096Y-119538982D01*
X155425592Y-119627000D01*
X155724408Y-119627000D01*
X156166904Y-119538982D01*
X156668695Y-119203695D01*
X156874727Y-118895346D01*
X156919817Y-118991358D01*
X157348076Y-119381645D01*
X157758110Y-119551476D01*
X157988000Y-119430155D01*
X157988000Y-118237000D01*
X157968000Y-118237000D01*
X157968000Y-117983000D01*
X157988000Y-117983000D01*
X157988000Y-117963000D01*
X158242000Y-117963000D01*
X158242000Y-117983000D01*
X158262000Y-117983000D01*
X158262000Y-118237000D01*
X158242000Y-118237000D01*
X158242000Y-119430155D01*
X158471890Y-119551476D01*
X158881924Y-119381645D01*
X159310183Y-118991358D01*
X159355273Y-118895346D01*
X159561305Y-119203695D01*
X160063096Y-119538982D01*
X160505592Y-119627000D01*
X160804408Y-119627000D01*
X161010875Y-119585931D01*
X161400812Y-119975869D01*
X161444999Y-120041999D01*
X161706976Y-120217047D01*
X161937994Y-120262999D01*
X161937998Y-120262999D01*
X162015998Y-120278514D01*
X162093998Y-120262999D01*
X163691945Y-120262999D01*
X163709002Y-120280056D01*
X163709001Y-121174941D01*
X162563130Y-122320814D01*
X162497001Y-122365000D01*
X162452815Y-122431129D01*
X162452814Y-122431130D01*
X162321953Y-122626977D01*
X162260485Y-122936000D01*
X162276001Y-123014005D01*
X162276000Y-127736718D01*
X161974305Y-127938305D01*
X161798000Y-128202163D01*
X161621695Y-127938305D01*
X161119904Y-127603018D01*
X160677408Y-127515000D01*
X160378592Y-127515000D01*
X159936096Y-127603018D01*
X159434305Y-127938305D01*
X159228273Y-128246654D01*
X159183183Y-128150642D01*
X158754924Y-127760355D01*
X158344890Y-127590524D01*
X158115000Y-127711845D01*
X158115000Y-128905000D01*
X158135000Y-128905000D01*
X158135000Y-129159000D01*
X158115000Y-129159000D01*
X158115000Y-129179000D01*
X157861000Y-129179000D01*
X157861000Y-129159000D01*
X156667181Y-129159000D01*
X156546514Y-129388892D01*
X156792817Y-129913358D01*
X157221076Y-130303645D01*
X157265392Y-130322000D01*
X155474117Y-130322000D01*
X155584195Y-129768600D01*
X155473288Y-129211032D01*
X155157451Y-128738349D01*
X155062805Y-128675108D01*
X156546514Y-128675108D01*
X156667181Y-128905000D01*
X157861000Y-128905000D01*
X157861000Y-127711845D01*
X157631110Y-127590524D01*
X157221076Y-127760355D01*
X156792817Y-128150642D01*
X156546514Y-128675108D01*
X155062805Y-128675108D01*
X154684768Y-128422512D01*
X154267941Y-128339600D01*
X153986459Y-128339600D01*
X153569632Y-128422512D01*
X153096949Y-128738349D01*
X152781112Y-129211032D01*
X152670205Y-129768600D01*
X152780283Y-130322000D01*
X148971717Y-130322000D01*
X149081795Y-129768600D01*
X148970888Y-129211032D01*
X148655051Y-128738349D01*
X148182368Y-128422512D01*
X147765541Y-128339600D01*
X147484059Y-128339600D01*
X147067232Y-128422512D01*
X146594549Y-128738349D01*
X146538000Y-128822980D01*
X146538000Y-126193020D01*
X146594549Y-126277651D01*
X147067232Y-126593488D01*
X147484059Y-126676400D01*
X147765541Y-126676400D01*
X148182368Y-126593488D01*
X148655051Y-126277651D01*
X148970888Y-125804968D01*
X149068001Y-125316749D01*
X149068000Y-125775034D01*
X148955441Y-125887593D01*
X148793000Y-126279760D01*
X148793000Y-126704240D01*
X148955441Y-127096407D01*
X149255593Y-127396559D01*
X149647760Y-127559000D01*
X150072240Y-127559000D01*
X150464407Y-127396559D01*
X150764559Y-127096407D01*
X150927000Y-126704240D01*
X150927000Y-126279760D01*
X150764559Y-125887593D01*
X150652000Y-125775034D01*
X150652000Y-125114366D01*
X150764559Y-125001807D01*
X150927000Y-124609640D01*
X150927000Y-124410490D01*
X150987441Y-124556407D01*
X151287593Y-124856559D01*
X151679760Y-125019000D01*
X152104240Y-125019000D01*
X152496407Y-124856559D01*
X152608966Y-124744000D01*
X152770337Y-124744000D01*
X152670205Y-125247400D01*
X152781112Y-125804968D01*
X153096949Y-126277651D01*
X153569632Y-126593488D01*
X153986459Y-126676400D01*
X154267941Y-126676400D01*
X154684768Y-126593488D01*
X155157451Y-126277651D01*
X155473288Y-125804968D01*
X155584195Y-125247400D01*
X155473288Y-124689832D01*
X155209304Y-124294752D01*
X157025058Y-122479000D01*
X157184240Y-122479000D01*
X157576407Y-122316559D01*
X157876559Y-122016407D01*
X158039000Y-121624240D01*
X158039000Y-121199760D01*
X157876559Y-120807593D01*
X157576407Y-120507441D01*
X157184240Y-120345000D01*
X156759760Y-120345000D01*
X156367593Y-120507441D01*
X156067441Y-120807593D01*
X155905000Y-121199760D01*
X155905000Y-121358942D01*
X154103944Y-123160000D01*
X152608966Y-123160000D01*
X152496407Y-123047441D01*
X152104240Y-122885000D01*
X151679760Y-122885000D01*
X151287593Y-123047441D01*
X150987441Y-123347593D01*
X150825000Y-123739760D01*
X150825000Y-123938910D01*
X150764559Y-123792993D01*
X150464407Y-123492841D01*
X150072240Y-123330400D01*
X149647760Y-123330400D01*
X149255593Y-123492841D01*
X148955441Y-123792993D01*
X148793000Y-124185160D01*
X148793000Y-124423604D01*
X148655051Y-124217149D01*
X148182368Y-123901312D01*
X147765541Y-123818400D01*
X147484059Y-123818400D01*
X147067232Y-123901312D01*
X146594549Y-124217149D01*
X146538000Y-124301780D01*
X146538000Y-121846923D01*
X146523743Y-121775248D01*
X146523743Y-121775243D01*
X146446405Y-121386438D01*
X146446405Y-121386435D01*
X146366494Y-121193514D01*
X146335613Y-121118961D01*
X146335612Y-121118960D01*
X146115370Y-120789346D01*
X145910654Y-120584630D01*
X145581040Y-120364388D01*
X145313565Y-120253595D01*
X145313562Y-120253595D01*
X144924756Y-120176257D01*
X144924752Y-120176257D01*
X144853077Y-120162000D01*
X141297081Y-120162000D01*
X141124709Y-120127713D01*
X141040532Y-120071468D01*
X140984287Y-119987292D01*
X140950000Y-119814919D01*
X140950000Y-118160375D01*
X141167966Y-118436864D01*
X141763558Y-118821432D01*
X142451607Y-118992345D01*
X143157921Y-118931171D01*
X143806340Y-118644508D01*
X144326945Y-118163266D01*
X144663598Y-117539338D01*
X144780000Y-116840000D01*
X144779734Y-116806088D01*
X144652362Y-116108665D01*
X144305949Y-115490101D01*
X143777850Y-115017096D01*
X143125009Y-114740653D01*
X142417820Y-114690582D01*
X141732540Y-114872280D01*
X141143063Y-115266157D01*
X140950000Y-115519130D01*
X140950000Y-114869327D01*
X141001818Y-114558006D01*
X141122166Y-114334962D01*
X141308269Y-114162930D01*
X141553714Y-114054420D01*
X141778681Y-114026000D01*
X167058919Y-114026000D01*
X167231292Y-114060287D01*
X167231292Y-114060287D01*
G37*
X167231292Y-114060287D02*
X167315468Y-114116532D01*
X167371713Y-114200709D01*
X167406000Y-114373081D01*
X167406001Y-129576781D01*
X166999517Y-130322000D01*
X166966195Y-130322000D01*
X167086300Y-130142250D01*
X167138067Y-129882000D01*
X167138067Y-128182000D01*
X167086300Y-127921750D01*
X166938880Y-127701120D01*
X166718250Y-127553700D01*
X166458000Y-127501933D01*
X164758000Y-127501933D01*
X164497750Y-127553700D01*
X164277120Y-127701120D01*
X164131928Y-127918415D01*
X163860000Y-127736718D01*
X163860000Y-123264056D01*
X165005875Y-122118183D01*
X165072001Y-122073999D01*
X165116185Y-122007873D01*
X165116187Y-122007871D01*
X165247048Y-121812023D01*
X165247049Y-121812022D01*
X165293001Y-121581004D01*
X165293001Y-121581000D01*
X165308516Y-121503000D01*
X165293001Y-121425000D01*
X165293001Y-120030004D01*
X165308517Y-119951999D01*
X165247049Y-119642975D01*
X165182845Y-119546889D01*
X165585592Y-119627000D01*
X165884408Y-119627000D01*
X166326904Y-119538982D01*
X166828695Y-119203695D01*
X167163982Y-118701904D01*
X167281719Y-118110000D01*
X167163982Y-117518096D01*
X166828695Y-117016305D01*
X166564837Y-116840000D01*
X166828695Y-116663695D01*
X167163982Y-116161904D01*
X167281719Y-115570000D01*
X167163982Y-114978096D01*
X166828695Y-114476305D01*
X166326904Y-114141018D01*
X165884408Y-114053000D01*
X165585592Y-114053000D01*
X165143096Y-114141018D01*
X164641305Y-114476305D01*
X164465000Y-114740163D01*
X164288695Y-114476305D01*
X163786904Y-114141018D01*
X163344408Y-114053000D01*
X163045592Y-114053000D01*
X162603096Y-114141018D01*
X162101305Y-114476305D01*
X161925000Y-114740163D01*
X161748695Y-114476305D01*
X161246904Y-114141018D01*
X160804408Y-114053000D01*
X160505592Y-114053000D01*
X160063096Y-114141018D01*
X159561305Y-114476305D01*
X159385000Y-114740163D01*
X159208695Y-114476305D01*
X158706904Y-114141018D01*
X158264408Y-114053000D01*
X157965592Y-114053000D01*
X157523096Y-114141018D01*
X157021305Y-114476305D01*
X156845000Y-114740163D01*
X156668695Y-114476305D01*
X156166904Y-114141018D01*
X155724408Y-114053000D01*
X155425592Y-114053000D01*
X154983096Y-114141018D01*
X154481305Y-114476305D01*
X154275273Y-114784654D01*
X154230183Y-114688642D01*
X153801924Y-114298355D01*
X153391890Y-114128524D01*
X153162000Y-114249845D01*
X153162000Y-115443000D01*
X153182000Y-115443000D01*
X153182000Y-115697000D01*
X153162000Y-115697000D01*
X153162000Y-115717000D01*
X152908000Y-115717000D01*
X152908000Y-115697000D01*
X152888000Y-115697000D01*
X152888000Y-115443000D01*
X152908000Y-115443000D01*
X152908000Y-114249845D01*
X152678110Y-114128524D01*
X152268076Y-114298355D01*
X151839817Y-114688642D01*
X151794727Y-114784654D01*
X151588695Y-114476305D01*
X151086904Y-114141018D01*
X150644408Y-114053000D01*
X150345592Y-114053000D01*
X149903096Y-114141018D01*
X149401305Y-114476305D01*
X149225000Y-114740163D01*
X149048695Y-114476305D01*
X148546904Y-114141018D01*
X148104408Y-114053000D01*
X147805592Y-114053000D01*
X147363096Y-114141018D01*
X146861305Y-114476305D01*
X146526018Y-114978096D01*
X146408281Y-115570000D01*
X146526018Y-116161904D01*
X146841415Y-116633928D01*
X146624120Y-116779120D01*
X146476700Y-116999750D01*
X146424933Y-117260000D01*
X146424933Y-118960000D01*
X146476700Y-119220250D01*
X146624120Y-119440880D01*
X146844750Y-119588300D01*
X147105000Y-119640067D01*
X148805000Y-119640067D01*
X149065250Y-119588300D01*
X149285880Y-119440880D01*
X149431072Y-119223585D01*
X149903096Y-119538982D01*
X150345592Y-119627000D01*
X150644408Y-119627000D01*
X151086904Y-119538982D01*
X151588695Y-119203695D01*
X151765000Y-118939837D01*
X151941305Y-119203695D01*
X152443096Y-119538982D01*
X152885592Y-119627000D01*
X153184408Y-119627000D01*
X153626904Y-119538982D01*
X154128695Y-119203695D01*
X154305000Y-118939837D01*
X154481305Y-119203695D01*
X154983096Y-119538982D01*
X155425592Y-119627000D01*
X155724408Y-119627000D01*
X156166904Y-119538982D01*
X156668695Y-119203695D01*
X156874727Y-118895346D01*
X156919817Y-118991358D01*
X157348076Y-119381645D01*
X157758110Y-119551476D01*
X157988000Y-119430155D01*
X157988000Y-118237000D01*
X157968000Y-118237000D01*
X157968000Y-117983000D01*
X157988000Y-117983000D01*
X157988000Y-117963000D01*
X158242000Y-117963000D01*
X158242000Y-117983000D01*
X158262000Y-117983000D01*
X158262000Y-118237000D01*
X158242000Y-118237000D01*
X158242000Y-119430155D01*
X158471890Y-119551476D01*
X158881924Y-119381645D01*
X159310183Y-118991358D01*
X159355273Y-118895346D01*
X159561305Y-119203695D01*
X160063096Y-119538982D01*
X160505592Y-119627000D01*
X160804408Y-119627000D01*
X161010875Y-119585931D01*
X161400812Y-119975869D01*
X161444999Y-120041999D01*
X161706976Y-120217047D01*
X161937994Y-120262999D01*
X161937998Y-120262999D01*
X162015998Y-120278514D01*
X162093998Y-120262999D01*
X163691945Y-120262999D01*
X163709002Y-120280056D01*
X163709001Y-121174941D01*
X162563130Y-122320814D01*
X162497001Y-122365000D01*
X162452815Y-122431129D01*
X162452814Y-122431130D01*
X162321953Y-122626977D01*
X162260485Y-122936000D01*
X162276001Y-123014005D01*
X162276000Y-127736718D01*
X161974305Y-127938305D01*
X161798000Y-128202163D01*
X161621695Y-127938305D01*
X161119904Y-127603018D01*
X160677408Y-127515000D01*
X160378592Y-127515000D01*
X159936096Y-127603018D01*
X159434305Y-127938305D01*
X159228273Y-128246654D01*
X159183183Y-128150642D01*
X158754924Y-127760355D01*
X158344890Y-127590524D01*
X158115000Y-127711845D01*
X158115000Y-128905000D01*
X158135000Y-128905000D01*
X158135000Y-129159000D01*
X158115000Y-129159000D01*
X158115000Y-129179000D01*
X157861000Y-129179000D01*
X157861000Y-129159000D01*
X156667181Y-129159000D01*
X156546514Y-129388892D01*
X156792817Y-129913358D01*
X157221076Y-130303645D01*
X157265392Y-130322000D01*
X155474117Y-130322000D01*
X155584195Y-129768600D01*
X155473288Y-129211032D01*
X155157451Y-128738349D01*
X155062805Y-128675108D01*
X156546514Y-128675108D01*
X156667181Y-128905000D01*
X157861000Y-128905000D01*
X157861000Y-127711845D01*
X157631110Y-127590524D01*
X157221076Y-127760355D01*
X156792817Y-128150642D01*
X156546514Y-128675108D01*
X155062805Y-128675108D01*
X154684768Y-128422512D01*
X154267941Y-128339600D01*
X153986459Y-128339600D01*
X153569632Y-128422512D01*
X153096949Y-128738349D01*
X152781112Y-129211032D01*
X152670205Y-129768600D01*
X152780283Y-130322000D01*
X148971717Y-130322000D01*
X149081795Y-129768600D01*
X148970888Y-129211032D01*
X148655051Y-128738349D01*
X148182368Y-128422512D01*
X147765541Y-128339600D01*
X147484059Y-128339600D01*
X147067232Y-128422512D01*
X146594549Y-128738349D01*
X146538000Y-128822980D01*
X146538000Y-126193020D01*
X146594549Y-126277651D01*
X147067232Y-126593488D01*
X147484059Y-126676400D01*
X147765541Y-126676400D01*
X148182368Y-126593488D01*
X148655051Y-126277651D01*
X148970888Y-125804968D01*
X149068001Y-125316749D01*
X149068000Y-125775034D01*
X148955441Y-125887593D01*
X148793000Y-126279760D01*
X148793000Y-126704240D01*
X148955441Y-127096407D01*
X149255593Y-127396559D01*
X149647760Y-127559000D01*
X150072240Y-127559000D01*
X150464407Y-127396559D01*
X150764559Y-127096407D01*
X150927000Y-126704240D01*
X150927000Y-126279760D01*
X150764559Y-125887593D01*
X150652000Y-125775034D01*
X150652000Y-125114366D01*
X150764559Y-125001807D01*
X150927000Y-124609640D01*
X150927000Y-124410490D01*
X150987441Y-124556407D01*
X151287593Y-124856559D01*
X151679760Y-125019000D01*
X152104240Y-125019000D01*
X152496407Y-124856559D01*
X152608966Y-124744000D01*
X152770337Y-124744000D01*
X152670205Y-125247400D01*
X152781112Y-125804968D01*
X153096949Y-126277651D01*
X153569632Y-126593488D01*
X153986459Y-126676400D01*
X154267941Y-126676400D01*
X154684768Y-126593488D01*
X155157451Y-126277651D01*
X155473288Y-125804968D01*
X155584195Y-125247400D01*
X155473288Y-124689832D01*
X155209304Y-124294752D01*
X157025058Y-122479000D01*
X157184240Y-122479000D01*
X157576407Y-122316559D01*
X157876559Y-122016407D01*
X158039000Y-121624240D01*
X158039000Y-121199760D01*
X157876559Y-120807593D01*
X157576407Y-120507441D01*
X157184240Y-120345000D01*
X156759760Y-120345000D01*
X156367593Y-120507441D01*
X156067441Y-120807593D01*
X155905000Y-121199760D01*
X155905000Y-121358942D01*
X154103944Y-123160000D01*
X152608966Y-123160000D01*
X152496407Y-123047441D01*
X152104240Y-122885000D01*
X151679760Y-122885000D01*
X151287593Y-123047441D01*
X150987441Y-123347593D01*
X150825000Y-123739760D01*
X150825000Y-123938910D01*
X150764559Y-123792993D01*
X150464407Y-123492841D01*
X150072240Y-123330400D01*
X149647760Y-123330400D01*
X149255593Y-123492841D01*
X148955441Y-123792993D01*
X148793000Y-124185160D01*
X148793000Y-124423604D01*
X148655051Y-124217149D01*
X148182368Y-123901312D01*
X147765541Y-123818400D01*
X147484059Y-123818400D01*
X147067232Y-123901312D01*
X146594549Y-124217149D01*
X146538000Y-124301780D01*
X146538000Y-121846923D01*
X146523743Y-121775248D01*
X146523743Y-121775243D01*
X146446405Y-121386438D01*
X146446405Y-121386435D01*
X146366494Y-121193514D01*
X146335613Y-121118961D01*
X146335612Y-121118960D01*
X146115370Y-120789346D01*
X145910654Y-120584630D01*
X145581040Y-120364388D01*
X145313565Y-120253595D01*
X145313562Y-120253595D01*
X144924756Y-120176257D01*
X144924752Y-120176257D01*
X144853077Y-120162000D01*
X141297081Y-120162000D01*
X141124709Y-120127713D01*
X141040532Y-120071468D01*
X140984287Y-119987292D01*
X140950000Y-119814919D01*
X140950000Y-118160375D01*
X141167966Y-118436864D01*
X141763558Y-118821432D01*
X142451607Y-118992345D01*
X143157921Y-118931171D01*
X143806340Y-118644508D01*
X144326945Y-118163266D01*
X144663598Y-117539338D01*
X144780000Y-116840000D01*
X144779734Y-116806088D01*
X144652362Y-116108665D01*
X144305949Y-115490101D01*
X143777850Y-115017096D01*
X143125009Y-114740653D01*
X142417820Y-114690582D01*
X141732540Y-114872280D01*
X141143063Y-115266157D01*
X140950000Y-115519130D01*
X140950000Y-114869327D01*
X141001818Y-114558006D01*
X141122166Y-114334962D01*
X141308269Y-114162930D01*
X141553714Y-114054420D01*
X141778681Y-114026000D01*
X167058919Y-114026000D01*
X167231292Y-114060287D01*
G04 #@! TD*
M02*
