M48
INCH,TZ
T1C0.0157
T2C0.0236
T3C0.0394
T4C0.0400
%
G90
G05
T1
X59000Y-48975
X59000Y-49800
X59800Y-48800
X61800Y-47800
T2
X58400Y-47400
X64400Y-47400
T3
X58250Y-45500
X58250Y-46500
X59250Y-45500
X59250Y-46500
X60250Y-45500
X60250Y-46500
X61250Y-45500
X61250Y-46500
X62250Y-45500
X62250Y-46500
X63250Y-45500
X63250Y-46500
X64250Y-45500
X64250Y-46500
X65250Y-45500
X65250Y-46500
X62200Y-50800
X63200Y-50800
X64200Y-50800
X65200Y-50800
T4
X58120Y-49310
X58120Y-51090
X60680Y-49310
X60680Y-51090
T0
M30
